<svg width="89" height="89" viewBox="0 0 89 89" fill="none" xmlns="http://www.w3.org/2000/svg">
<path d="M76.9781 33.766C77.413 34.3721 77.7177 35.0092 77.8755 35.6688L77.3892 35.7851C77.4625 36.0917 77.5 36.4026 77.5 36.7174C77.5 37.0322 77.4625 37.3431 77.3892 37.6497L77.8755 37.766C77.7177 38.4256 77.413 39.0627 76.9781 39.6688L76.5719 39.3773C76.2147 39.8752 75.7573 40.3579 75.206 40.818L75.5264 41.2018C75.0156 41.6283 74.4341 42.0311 73.79 42.4063L73.5383 41.9742C72.9757 42.302 72.3613 42.6093 71.7004 42.8929L71.8976 43.3523C71.273 43.6203 70.6102 43.8666 69.9137 44.0889L69.7617 43.6126C69.1228 43.8165 68.4541 44.0001 67.7592 44.1614L67.8722 44.6485C67.2013 44.8042 66.5073 44.9392 65.7936 45.052L65.7155 44.5581C65.0438 44.6642 64.3539 44.7504 63.6485 44.815L63.6942 45.3129C63.0031 45.3763 62.2978 45.4193 61.5808 45.4408L61.5659 44.941C61.2205 44.9513 60.8724 44.9565 60.5217 44.9565C60.1711 44.9565 59.8229 44.9513 59.4775 44.941L59.4626 45.4408C58.7457 45.4193 58.0403 45.3763 57.3493 45.3129L57.3949 44.815C56.6896 44.7504 55.9996 44.6642 55.3279 44.5581L55.2499 45.052C54.5361 44.9392 53.8421 44.8042 53.1712 44.6485L53.2843 44.1614C52.5894 44.0001 51.9206 43.8165 51.2817 43.6126L51.1297 44.0889C50.4333 43.8666 49.7704 43.6203 49.1458 43.3523L49.343 42.8929C48.6821 42.6093 48.0677 42.302 47.5051 41.9742L47.2534 42.4063C46.6094 42.0311 46.0279 41.6283 45.517 41.2018L45.8374 40.818C45.2862 40.3579 44.8288 39.8752 44.4716 39.3773L44.0653 39.6688C43.6305 39.0627 43.3257 38.4256 43.168 37.766L43.6543 37.6497C43.5809 37.3431 43.5435 37.0322 43.5435 36.7174C43.5435 36.4026 43.5809 36.0917 43.6543 35.7851L43.168 35.6688C43.3257 35.0092 43.6305 34.3721 44.0653 33.766L44.4716 34.0575C44.8288 33.5596 45.2862 33.0769 45.8374 32.6168L45.517 32.233C46.0279 31.8065 46.6094 31.4037 47.2534 31.0285L47.5051 31.4606C48.0677 31.1328 48.6821 30.8255 49.343 30.5419L49.1458 30.0825C49.7704 29.8145 50.4333 29.5682 51.1297 29.3459L51.2817 29.8222C51.9206 29.6183 52.5894 29.4347 53.2843 29.2734L53.1712 28.7863C53.8421 28.6306 54.5361 28.4956 55.2499 28.3828L55.3279 28.8767C55.9996 28.7706 56.6896 28.6845 57.3949 28.6198L57.3493 28.1219C58.0403 28.0585 58.7457 28.0155 59.4626 27.9941L59.4775 28.4938C59.8229 28.4835 60.1711 28.4783 60.5217 28.4783C60.8724 28.4783 61.2205 28.4835 61.5659 28.4938L61.5808 27.9941C62.2978 28.0155 63.0031 28.0585 63.6942 28.1219L63.6485 28.6198C64.3539 28.6845 65.0438 28.7706 65.7155 28.8767L65.7936 28.3828C66.5073 28.4956 67.2013 28.6306 67.8722 28.7863L67.7592 29.2734C68.4541 29.4347 69.1228 29.6183 69.7617 29.8222L69.9137 29.3459C70.6102 29.5682 71.273 29.8145 71.8976 30.0825L71.7004 30.5419C72.3613 30.8255 72.9757 31.1328 73.5383 31.4606L73.79 31.0285C74.4341 31.4037 75.0156 31.8065 75.5264 32.233L75.206 32.6168C75.7573 33.0769 76.2147 33.5596 76.5719 34.0575L76.9781 33.766Z" stroke="#00E88A" stroke-dasharray="2 2"/>
<path d="M60.5217 37.2174C65.409 37.2174 69.8583 36.228 73.1043 34.605C76.3204 32.9969 78.5 30.6829 78.5 27.9783C78.5 25.2736 76.3204 22.9596 73.1043 21.3516C69.8583 19.7286 65.409 18.7391 60.5217 18.7391C55.6344 18.7391 51.1851 19.7286 47.9391 21.3516C44.723 22.9596 42.5435 25.2736 42.5435 27.9783C42.5435 30.6829 44.723 32.9969 47.9391 34.605C51.1851 36.228 55.6344 37.2174 60.5217 37.2174Z" fill="black" stroke="#00E88A"/>
<path d="M44.9347 57.0704C45.3695 57.6764 45.6742 58.3135 45.832 58.9732L45.3457 59.0895C45.419 59.3961 45.4565 59.707 45.4565 60.0218C45.4565 60.3365 45.419 60.6475 45.3457 60.954L45.832 61.0703C45.6742 61.73 45.3695 62.3671 44.9347 62.9731L44.5284 62.6817C44.1712 63.1795 43.7138 63.6622 43.1626 64.1223L43.483 64.5062C42.9721 64.9326 42.3906 65.3354 41.7465 65.7106L41.4949 65.2786C40.9323 65.6063 40.3179 65.9137 39.657 66.1972L39.8541 66.6567C39.2296 66.9247 38.5667 67.171 37.8703 67.3933L37.7182 66.9169C37.0794 67.1209 36.4106 67.3045 35.7157 67.4658L35.8288 67.9528C35.1579 68.1085 34.4639 68.2436 33.7501 68.3563L33.6721 67.8625C33.0004 67.9686 32.3104 68.0547 31.6051 68.1194L31.6507 68.6173C30.9596 68.6806 30.2543 68.7237 29.5374 68.7451L29.5224 68.2453C29.1771 68.2556 28.8289 68.2609 28.4783 68.2609C28.1276 68.2609 27.7795 68.2556 27.4341 68.2453L27.4191 68.7451C26.7022 68.7237 25.9969 68.6806 25.3058 68.6173L25.3514 68.1194C24.6461 68.0547 23.9561 67.9686 23.2844 67.8625L23.2064 68.3563C22.4926 68.2436 21.7987 68.1085 21.1278 67.9528L21.2408 67.4658C20.5459 67.3045 19.8772 67.1209 19.2383 66.9169L19.0862 67.3933C18.3898 67.171 17.727 66.9247 17.1024 66.6567L17.2995 66.1972C16.6386 65.9137 16.0242 65.6063 15.4617 65.2786L15.21 65.7106C14.5659 65.3354 13.9844 64.9326 13.4735 64.5062L13.7939 64.1223C13.2427 63.6622 12.7853 63.1795 12.4281 62.6817L12.0218 62.9731C11.587 62.3671 11.2823 61.73 11.1245 61.0703L11.6108 60.954C11.5375 60.6475 11.5 60.3365 11.5 60.0218C11.5 59.707 11.5375 59.3961 11.6108 59.0895L11.1245 58.9732C11.2823 58.3135 11.587 57.6764 12.0218 57.0704L12.4281 57.3618C12.7853 56.864 13.2427 56.3813 13.7939 55.9212L13.4735 55.5373C13.9844 55.1109 14.5659 54.7081 15.21 54.3329L15.4617 54.7649C16.0242 54.4372 16.6386 54.1298 17.2995 53.8463L17.1024 53.3868C17.727 53.1188 18.3898 52.8725 19.0862 52.6503L19.2383 53.1266C19.8772 52.9227 20.5459 52.739 21.2408 52.5778L21.1278 52.0907C21.7987 51.935 22.4926 51.7999 23.2064 51.6872L23.2844 52.181C23.9561 52.0749 24.6461 51.9888 25.3514 51.9241L25.3058 51.4262C25.9969 51.3629 26.7022 51.3198 27.4191 51.2984L27.4341 51.7982C27.7795 51.7879 28.1276 51.7826 28.4783 51.7826C28.8289 51.7826 29.1771 51.7879 29.5224 51.7982L29.5374 51.2984C30.2543 51.3198 30.9596 51.3629 31.6507 51.4262L31.6051 51.9241C32.3104 51.9888 33.0004 52.0749 33.6721 52.181L33.7501 51.6872C34.4639 51.7999 35.1579 51.935 35.8288 52.0907L35.7157 52.5778C36.4106 52.739 37.0793 52.9227 37.7182 53.1266L37.8703 52.6503C38.5667 52.8725 39.2296 53.1188 39.8541 53.3868L39.657 53.8463C40.3179 54.1298 40.9323 54.4372 41.4949 54.7649L41.7465 54.3329C42.3906 54.7081 42.9721 55.1109 43.483 55.5373L43.1626 55.9212C43.7138 56.3813 44.1712 56.864 44.5284 57.3618L44.9347 57.0704Z" stroke="#00E88A" stroke-dasharray="2 2"/>
<path d="M28.4783 60.5217C33.3655 60.5217 37.8149 59.5323 41.0609 57.9093C44.277 56.3013 46.4565 53.9873 46.4565 51.2826C46.4565 48.578 44.277 46.264 41.0609 44.6559C37.8149 43.0329 33.3655 42.0435 28.4783 42.0435C23.591 42.0435 19.1417 43.0329 15.8957 44.6559C12.6796 46.264 10.5 48.578 10.5 51.2826C10.5 53.9873 12.6796 56.3013 15.8957 57.9093C19.1417 59.5323 23.591 60.5217 28.4783 60.5217Z" fill="black" stroke="#00E88A"/>
<path d="M65.3464 51.0757C65.2321 50.8243 64.9357 50.7132 64.6843 50.8275L60.5877 52.6898C60.3364 52.8041 60.2252 53.1005 60.3395 53.3519C60.4538 53.6033 60.7502 53.7144 61.0016 53.6001L64.643 51.9447L66.2984 55.5861C66.4127 55.8375 66.7091 55.9486 66.9605 55.8344C67.2119 55.7201 67.323 55.4236 67.2087 55.1723L65.3464 51.0757ZM21.4836 35.498C21.6146 35.7411 21.9178 35.832 22.161 35.7011L26.1227 33.5669C26.3658 33.436 26.4567 33.1327 26.3258 32.8896C26.1948 32.6465 25.8915 32.5556 25.6484 32.6865L22.1269 34.5836L20.2299 31.062C20.0989 30.8189 19.7957 30.728 19.5525 30.859C19.3094 30.9899 19.2185 31.2932 19.3495 31.5363L21.4836 35.498ZM52.6485 64.8721C55.3153 64.1101 57.9391 62.222 60.1611 59.8147C62.3873 57.4029 64.2433 54.4349 65.3594 51.4582L64.423 51.1071C63.3547 53.9564 61.5695 56.8145 59.4263 59.1364C57.2788 61.4629 54.8048 63.216 52.3738 63.9106L52.6485 64.8721ZM37.2173 23.837C33.4928 23.837 30.1118 24.7684 27.3742 26.6563C24.6332 28.5466 22.5666 31.376 21.4449 35.1173L22.4028 35.4045C23.4645 31.8632 25.4029 29.2306 27.942 27.4796C30.4845 25.7262 33.6586 24.837 37.2173 24.837L37.2173 23.837Z" fill="#00E88A"/>
</svg>
