<svg width="89" height="89" viewBox="0 0 89 89" fill="none" xmlns="http://www.w3.org/2000/svg">
<path d="M79.0514 51.7469C79.5796 52.3765 79.9377 52.975 80.1099 53.5339L79.8802 53.5824C79.9767 53.8959 80.0063 54.1882 79.9708 54.4612C79.9353 54.7342 79.8346 54.9893 79.6664 55.2272L79.8675 55.3987C79.5676 55.8227 79.0851 56.1811 78.4369 56.4746L78.317 56.2357C77.8461 56.4489 77.2801 56.6288 76.624 56.7742L76.7038 57.0264C76.1537 57.1484 75.5447 57.2456 74.8811 57.3184L74.824 57.0624C74.2508 57.1253 73.6354 57.1698 72.9804 57.196L73.0224 57.4531C72.4272 57.4769 71.8003 57.4857 71.1436 57.4795L71.1126 57.2223C70.5108 57.2166 69.8836 57.1983 69.2325 57.1674L69.2548 57.4244C68.6449 57.3955 68.0144 57.3556 67.3645 57.3048L67.3491 57.0482C66.7359 57.0003 66.1053 56.9426 65.4582 56.8752L65.4676 57.1312C64.8486 57.0667 64.2149 56.9933 63.5672 56.9112L63.563 56.6558C62.9454 56.5775 62.315 56.4911 61.6727 56.3967L61.6722 56.6515C61.0502 56.5601 60.4172 56.4613 59.7738 56.355L59.7785 56.1009C59.1562 55.9981 58.5241 55.8883 57.8829 55.7716L57.8743 56.025C57.2496 55.9113 56.6164 55.791 55.9751 55.6641L55.9873 55.4114C55.3646 55.2882 54.7343 55.1589 54.097 55.0233L54.0814 55.2754C53.457 55.1426 52.826 55.004 52.1889 54.8594L52.2077 54.6081C51.5842 54.4667 50.9546 54.3196 50.3197 54.1669L50.2977 54.4175C49.673 54.2673 49.0431 54.1116 48.4084 53.9506L48.4334 53.7007C47.8098 53.5425 47.1816 53.379 46.5492 53.2104L46.5213 53.4595C45.897 53.293 45.2687 53.1215 44.6367 52.9449L44.6675 52.6966C44.3542 52.609 44.04 52.5203 43.725 52.4302C43.41 52.3402 43.096 52.2495 42.7832 52.1582L42.7496 52.4057C42.1186 52.2214 41.4923 52.0344 40.871 51.845L40.9075 51.5984C40.2781 51.4065 39.654 51.2121 39.0354 51.0154L38.9959 51.2611C38.3663 51.0609 37.7425 50.8583 37.1249 50.6536L37.1673 50.4088C36.5396 50.2007 35.9183 49.9904 35.3039 49.7781L35.2584 50.0218C34.6307 49.8049 34.0101 49.586 33.3972 49.3652L33.4459 49.1226C32.8203 48.8973 32.2027 48.6701 31.5936 48.4413L31.5416 48.6827C30.9145 48.4471 30.2965 48.2098 29.688 47.9712L29.7436 47.7312C29.119 47.4863 28.5047 47.2399 27.9012 46.9924L27.8418 47.2309C27.2179 46.9751 26.6054 46.718 26.0051 46.4602L26.0685 46.2234C25.4486 45.9571 24.8417 45.6899 24.2486 45.4223L24.1807 45.6571C23.5589 45.3765 22.9521 45.0954 22.3613 44.8142L22.4342 44.5817C21.8166 44.2878 21.2166 43.9939 20.6353 43.7005L20.5567 43.9302C19.9407 43.6193 19.3453 43.3089 18.7718 42.9997L18.857 42.7734C18.2448 42.4433 17.6579 42.1147 17.0978 41.7884L17.0045 42.0101C16.3933 41.6541 15.8135 41.3005 15.2668 40.9504L15.3703 40.7349C14.7688 40.3496 14.2087 39.9692 13.6922 39.595L13.5751 39.8012C12.9772 39.3679 12.4363 38.9421 11.9561 38.5258L12.0934 38.3357C11.5207 37.8391 11.0404 37.3602 10.6566 36.9028L10.4854 37.0585C9.95728 36.4289 9.59912 35.8304 9.42699 35.2715L9.6567 35.223C9.56012 34.9094 9.5306 34.6172 9.56608 34.3442C9.60157 34.0712 9.70224 33.8161 9.87049 33.5782L9.66939 33.4066C9.96928 32.9826 10.4518 32.6243 11.1 32.3308L11.2199 32.5697C11.6908 32.3564 12.2568 32.1765 12.9129 32.0311L12.833 31.7789C13.3832 31.657 13.9921 31.5598 14.6558 31.487L14.7129 31.7429C15.2861 31.6801 15.9015 31.6355 16.5565 31.6093L16.5144 31.3522C17.1097 31.3284 17.7366 31.3196 18.3933 31.3258L18.4243 31.5831C19.0261 31.5887 19.6533 31.6071 20.3044 31.6379L20.282 31.3809C20.8919 31.4099 21.5225 31.4498 22.1724 31.5006L22.1877 31.7571C22.801 31.8051 23.4316 31.8628 24.0786 31.9302L24.0693 31.6742C24.6882 31.7387 25.322 31.812 25.9697 31.8942L25.9738 32.1496C26.5915 32.2279 27.2219 32.3143 27.8642 32.4086L27.8647 32.1539C28.4866 32.2453 29.1196 32.3441 29.763 32.4504L29.7583 32.7045C30.3807 32.8073 31.0128 32.9171 31.654 33.0338L31.6625 32.7804C32.2872 32.8941 32.9205 33.0144 33.5617 33.1412L33.5495 33.394C34.1723 33.5171 34.8026 33.6465 35.4399 33.782L35.4555 33.53C36.0798 33.6627 36.7108 33.8014 37.348 33.9459L37.3291 34.1972C37.9527 34.3387 38.5822 34.4858 39.2172 34.6385L39.2391 34.3879C39.8639 34.5381 40.4938 34.6937 41.1285 34.8548L41.1035 35.1046C41.7271 35.2629 42.3553 35.4263 42.9877 35.595L43.0156 35.3459C43.6399 35.5123 44.2682 35.6839 44.9001 35.8605L44.8693 36.1088C45.1826 36.1963 45.4968 36.2851 45.8119 36.3751C46.1269 36.4651 46.4409 36.5558 46.7537 36.6472L46.7873 36.3997C47.4182 36.584 48.0446 36.7709 48.6659 36.9603L48.6294 37.207C49.2587 37.3989 49.8829 37.5933 50.5015 37.79L50.5409 37.5442C51.1705 37.7444 51.7944 37.947 52.412 38.1518L52.3696 38.3966C52.9973 38.6047 53.6186 38.815 54.233 39.0273L54.2785 38.7835C54.9062 39.0004 55.5268 39.2194 56.1397 39.4401L56.091 39.6827C56.7166 39.9081 57.3342 40.1353 57.9432 40.3641L57.9953 40.1227C58.6223 40.3583 59.2404 40.5955 59.8489 40.8342L59.7933 41.0742C60.4178 41.3191 61.0322 41.5655 61.6357 41.8129L61.695 41.5744C62.319 41.8303 62.9314 42.0873 63.5317 42.3452L63.4683 42.582C64.0883 42.8483 64.6952 43.1154 65.2882 43.383L65.3561 43.1482C65.978 43.4288 66.5848 43.7099 67.1756 43.9911L67.1027 44.2236C67.7203 44.5176 68.3202 44.8115 68.9016 45.1048L68.9801 44.8751C69.5962 45.1861 70.1916 45.4964 70.7651 45.8057L70.6799 46.0319C71.2921 46.362 71.879 46.6906 72.4391 47.0169L72.5324 46.7952C73.1436 47.1513 73.7234 47.5049 74.27 47.855L74.1666 48.0705C74.7681 48.4557 75.3282 48.8361 75.8446 49.2104L75.9618 49.0042C76.5597 49.4374 77.1006 49.8632 77.5808 50.2796L77.4434 50.4697C78.0161 50.9662 78.4965 51.4451 78.8802 51.9026L79.0514 51.7469Z" stroke="#00E88A" stroke-width="0.5" stroke-dasharray="2 2"/>
<path d="M80.1633 42.9043C80.851 43.3542 81.3671 43.8235 81.6935 44.3086L81.4877 44.4215C81.6708 44.6937 81.7837 44.965 81.8287 45.2365C81.8737 45.5081 81.8512 45.7814 81.759 46.0578L82.0011 46.1639C81.8367 46.6565 81.4785 47.1391 80.943 47.6076L80.7591 47.4136C80.37 47.754 79.8803 48.09 79.2943 48.419L79.4438 48.6373C78.9524 48.9132 78.3977 49.1825 77.7835 49.4442L77.6548 49.2157C77.1242 49.4418 76.5481 49.6625 75.9287 49.8771L76.0433 50.111C75.4804 50.306 74.8828 50.4958 74.2525 50.6799L74.1483 50.4426C73.5707 50.6113 72.965 50.7753 72.3328 50.9341L72.4286 51.1737C71.8364 51.3225 71.2213 51.4667 70.5845 51.6061L70.4955 51.365C69.8947 51.4965 69.2743 51.6238 68.6354 51.7465L68.7185 51.9888C68.1073 52.1062 67.4794 52.2193 66.8357 52.3281L66.7578 52.0848C66.1439 52.1886 65.5155 52.2883 64.8733 52.3838L64.9466 52.6278C64.3248 52.7203 63.6903 52.8089 63.0437 52.8933L62.9746 52.6487C62.3492 52.7304 61.7124 52.8082 61.0648 52.882L61.1299 53.127C60.4991 53.1989 59.8581 53.267 59.2076 53.3312L59.1461 53.0857C58.5144 53.148 57.8736 53.2065 57.2243 53.2612L57.2823 53.507C56.6463 53.5606 56.0022 53.6104 55.3505 53.6564L55.2958 53.4104C54.6579 53.4554 54.0128 53.4968 53.3608 53.5343L53.4123 53.7806C52.7708 53.8175 52.1228 53.8508 51.4687 53.8803L51.4203 53.6339C50.7776 53.6629 50.129 53.6882 49.4749 53.7097L49.5202 53.9563C48.8745 53.9775 48.2234 53.9952 47.5674 54.009L47.525 53.7624C47.1998 53.7692 46.8733 53.7752 46.5457 53.7802C46.2181 53.7851 45.8914 53.7892 45.5655 53.7922L45.6049 54.0389C44.9476 54.045 44.294 54.0473 43.6445 54.0458L43.608 53.7991C42.9501 53.7975 42.2964 53.792 41.6473 53.7827L41.6807 54.0294C41.0201 54.0199 40.3643 54.0065 39.7139 53.9892L39.6836 53.7426C39.0226 53.7251 38.367 53.7035 37.7175 53.6781L37.7444 53.9246C37.0808 53.8986 36.4234 53.8685 35.7729 53.8346L35.7493 53.5883C35.0852 53.5536 34.4283 53.5148 33.7791 53.472L33.7991 53.7181C33.1307 53.6741 32.4704 53.6258 31.819 53.5734L31.8027 53.3276C31.134 53.2739 30.4747 53.2158 29.8254 53.1535L29.8376 53.399C29.1663 53.3346 28.5056 53.2658 27.8564 53.1927L27.8486 52.9477C27.1781 52.8722 26.5199 52.792 25.8747 52.7075L25.8777 52.9519C25.2012 52.8632 24.5391 52.7697 23.8922 52.6715L23.8947 52.4278C23.2185 52.3252 22.5591 52.2174 21.9178 52.1048L21.9091 52.3474C21.2294 52.2281 20.5696 52.1032 19.9312 51.9732L19.9473 51.732C19.2658 51.5931 18.6089 51.4484 17.9783 51.2981L17.9532 51.5373C17.2651 51.3733 16.6078 51.2026 15.9832 51.0257L16.0199 50.7895C15.3327 50.5948 14.6864 50.3927 14.0838 50.1839L14.0313 50.4151C13.3336 50.1734 12.6926 49.9224 12.1125 49.6628L12.189 49.441C11.4971 49.1315 10.8988 48.812 10.3991 48.4852L10.2802 48.6838C9.59249 48.2339 9.07648 47.7646 8.74999 47.2795L8.95585 47.1666C8.77268 46.8944 8.65984 46.6232 8.61482 46.3516C8.5698 46.08 8.59235 45.8067 8.68458 45.5303L8.44243 45.4242C8.60681 44.9316 8.96502 44.449 9.50052 43.9805L9.68442 44.1745C10.0735 43.8341 10.5632 43.4981 11.1492 43.1691L10.9998 42.9508C11.4911 42.6749 12.0459 42.4056 12.6601 42.1439L12.7888 42.3724C13.3193 42.1463 13.8955 41.9256 14.5148 41.711L14.4002 41.4771C14.9631 41.2821 15.5607 41.0923 16.1911 40.9082L16.2952 41.1455C16.8729 40.9768 17.4786 40.8128 18.1108 40.654L18.015 40.4144C18.6072 40.2657 19.2223 40.1214 19.8591 39.982L19.948 40.2231C20.5489 40.0916 21.1692 39.9643 21.8081 39.8417L21.7251 39.5993C22.3362 39.482 22.9641 39.3688 23.6078 39.26L23.6857 39.5033C24.2996 39.3996 24.928 39.2998 25.5702 39.2043L25.4969 38.9603C26.1187 38.8678 26.7532 38.7793 27.3999 38.6948L27.4689 38.9394C28.0944 38.8578 28.7312 38.78 29.3787 38.7062L29.3136 38.4611C29.9445 38.3892 30.5854 38.3211 31.2359 38.257L31.2974 38.5024C31.9291 38.4401 32.5699 38.3816 33.2192 38.3269L33.1612 38.0811C33.7972 38.0276 34.4414 37.9777 35.0931 37.9317L35.1477 38.1777C35.7856 38.1327 36.4307 38.0913 37.0827 38.0538L37.0312 37.8075C37.6727 37.7706 38.3207 37.7373 38.9748 37.7078L39.0232 37.9542C39.6659 37.9252 40.3145 37.8999 40.9687 37.8784L40.9233 37.6318C41.5691 37.6106 42.2202 37.593 42.8762 37.5791L42.9185 37.8257C43.2438 37.8189 43.5702 37.813 43.8978 37.808C44.2254 37.803 44.5522 37.799 44.878 37.7959L44.8386 37.5492C45.4959 37.5431 46.1495 37.5408 46.7991 37.5424L46.8355 37.789C47.4934 37.7906 48.1472 37.7961 48.7962 37.8054L48.7628 37.5587C49.4234 37.5682 50.0792 37.5816 50.7297 37.5989L50.7599 37.8455C51.421 37.863 52.0765 37.8846 52.7261 37.91L52.6991 37.6636C53.3627 37.6895 54.0201 37.7196 54.6707 37.7535L54.6943 37.9999C55.3583 38.0345 56.0152 38.0733 56.6644 38.1161L56.6444 37.87C57.3128 37.914 57.9731 37.9623 58.6246 38.0147L58.6408 38.2605C59.3095 38.3143 59.9688 38.3723 60.6182 38.4346L60.606 38.1891C61.2772 38.2535 61.9379 38.3223 62.5871 38.3954L62.5949 38.6404C63.2654 38.716 63.9237 38.7961 64.5688 38.8806L64.5658 38.6362C65.2423 38.7249 65.9044 38.8184 66.5513 38.9166L66.5488 39.1603C67.2251 39.2629 67.8844 39.3707 68.5257 39.4833L68.5345 39.2407C69.2142 39.36 69.8739 39.4849 70.5123 39.6149L70.4962 39.8562C71.1778 39.995 71.8346 40.1397 72.4652 40.29L72.4903 40.0508C73.1784 40.2148 73.8358 40.3855 74.4603 40.5624L74.4236 40.7986C75.1109 40.9934 75.7571 41.1954 76.3597 41.4042L76.4122 41.173C77.1099 41.4147 77.7509 41.6658 78.331 41.9253L78.2545 42.1471C78.9464 42.4566 79.5448 42.7761 80.0445 43.1029L80.1633 42.9043Z" stroke="#00E88A" stroke-width="0.5" stroke-dasharray="2 2"/>
<path d="M27.3307 24.6247C29.3511 25.2709 31.9131 25.1701 34.9861 24.3336L34.9862 24.3336C38.1917 23.461 41.4298 21.9287 44.7006 19.7376L44.7006 19.7376C44.9274 19.5856 45.1942 19.503 45.468 19.5001C45.7419 19.4972 46.0104 19.5742 46.2404 19.7214L46.2405 19.7215C49.7817 21.9867 53.0439 23.5267 56.0133 24.3334C58.8787 25.112 61.4524 25.2037 63.7412 24.6038C64.6321 24.3703 65.5 25.0407 65.5 25.9546V48.905C65.5 58.32 58.8958 66.4537 49.658 68.4115C48.4432 68.6689 47.2054 69.0076 45.9448 69.4278C45.6573 69.5237 45.3463 69.5241 45.0585 69.429C43.7977 69.0123 42.5612 68.6757 41.3488 68.4191C32.1079 66.4644 25.5 58.3291 25.5 48.9115V25.9546C25.5 25.0097 26.4238 24.3346 27.3307 24.6247ZM27.3307 24.6247L27.4831 24.1484M27.3307 24.6247L27.4831 24.1484M27.4831 24.1484C26.2554 23.7558 25 24.669 25 25.9546V48.9115C25 58.5662 31.7742 66.9048 41.2453 68.9083C42.4384 69.1608 43.6571 69.4924 44.9017 69.9037C45.2917 70.0326 45.7132 70.0321 46.1029 69.9022C47.3469 69.4875 48.5665 69.1538 49.7616 68.9007L44.4223 19.3222C41.1884 21.4886 37.9994 22.9951 34.8548 23.8512C31.8304 24.6744 29.3757 24.7538 27.4831 24.1484Z" stroke="#00E88A"/>
<path d="M42.7864 47.5501L38.7624 43.1123C38.335 42.6696 37.7117 42.7529 37.2884 43.1999L36.3 44.2441C36.1949 44.3551 36.1949 44.5338 36.3 44.6448L41.0785 49.8701L41.0804 49.8681L42.0144 50.8548L42.022 50.8628C42.4494 51.3054 43.1389 51.3018 43.5622 50.8548L53.9116 39.5363C54.0167 39.4253 54.0167 39.2465 53.9116 39.1355L52.859 38.0396C52.4315 37.5969 51.7986 37.6444 51.3754 38.0914L42.7864 47.5501Z" fill="#00E88A"/>
</svg>
