<svg width="29" height="30" viewBox="0 0 29 30" fill="none" xmlns="http://www.w3.org/2000/svg">
<g clip-path="url(#clip0_128_745)">
<path d="M11.819 13.0466H2.49151C2.18469 13.0461 1.88078 13.1083 1.59715 13.2295C1.31353 13.3507 1.05573 13.5286 0.838507 13.753C0.62128 13.9774 0.448874 14.244 0.33114 14.5374C0.213406 14.8309 0.15265 15.1455 0.152344 15.4633C0.152344 16.8069 1.20001 17.8799 2.49151 17.8799H11.819V27.5405C11.819 28.8794 12.8632 29.9633 14.1523 29.9633C15.4497 29.9633 16.4857 28.8782 16.4857 27.5405V17.8799H25.8132C26.12 17.8804 26.4239 17.8183 26.7075 17.6971C26.9912 17.5758 27.249 17.398 27.4662 17.1735C27.6834 16.9491 27.8558 16.6826 27.9735 16.3891C28.0913 16.0956 28.152 15.781 28.1523 15.4633C28.1523 14.1196 27.1047 13.0466 25.8132 13.0466H16.4857V3.38597C16.4861 3.06819 16.4261 2.75342 16.3091 2.45967C16.1921 2.16591 16.0203 1.89891 15.8036 1.67393C15.587 1.44894 15.3296 1.27038 15.0463 1.14844C14.7629 1.0265 14.4592 0.963574 14.1523 0.963257C12.855 0.963257 11.819 2.04834 11.819 3.38597V13.0466Z" fill="#00E88A"/>
</g>
<defs>
<clipPath id="clip0_128_745">
<rect width="28" height="29" fill="white" transform="translate(0.152344 0.963257)"/>
</clipPath>
</defs>
</svg>
