<svg width="16" height="17" viewBox="0 0 16 17" fill="none" xmlns="http://www.w3.org/2000/svg">
<circle cx="8" cy="8.5" r="8" fill="#F6B91B"/>
<path d="M9.93448 8.19993L9.93454 8.19996L9.93595 8.19645C10.0454 7.92365 10.1 7.63725 10.1 7.33799C10.1 6.76567 9.90749 6.29481 9.51892 5.93501C9.1316 5.57636 8.63544 5.4 8.03922 5.4C7.43931 5.4 6.93033 5.60483 6.51885 6.01456C6.11036 6.39526 5.9 6.83742 5.9 7.33799C5.9 7.62929 5.95154 7.86106 6.08625 7.99539C6.21083 8.11962 6.36751 8.18101 6.54902 8.18101C6.69206 8.18101 6.81805 8.15259 6.91811 8.08607C7.03439 8.00877 7.08039 7.87882 7.08039 7.72905C7.08039 7.61175 7.05181 7.50444 6.99215 7.41056C6.95282 7.3067 6.86713 7.22959 6.75621 7.17316C6.69314 7.13138 6.6369 7.0969 6.58789 7.07039C6.57717 7.03886 6.57059 6.99839 6.57059 6.94693C6.57059 6.75232 6.67866 6.5426 6.92954 6.31744L6.92963 6.31754L6.93336 6.31383C7.17126 6.07658 7.50904 5.95196 7.96078 5.95196C8.38887 5.95196 8.68317 6.06474 8.86653 6.27045L8.8664 6.27057L8.87056 6.27472C9.07953 6.48311 9.19412 6.81719 9.19412 7.29888C9.19412 7.59799 9.13167 7.83904 9.01331 8.0279L9.01292 8.02766L9.00865 8.03618C8.91647 8.22003 8.68722 8.4426 8.29758 8.70164C8.05359 8.86385 7.87085 9.0438 7.75637 9.24358L7.75624 9.2435L7.75374 9.24847C7.66525 9.42497 7.62549 9.66455 7.62549 9.9581V10.7402V10.8402H7.72549H8.03922H8.13922V10.7402V10.0363C8.13922 9.76665 8.21261 9.59207 8.33842 9.48752L8.33843 9.48753L8.33948 9.48663C8.51585 9.33588 8.79736 9.14396 9.1877 8.91037C9.56088 8.69757 9.81735 8.46272 9.93448 8.19993ZM8.57059 11.9525C8.57059 11.7713 8.50893 11.6149 8.38434 11.4906C8.25976 11.3664 8.10308 11.305 7.92157 11.305C7.74006 11.305 7.58337 11.3664 7.4588 11.4906C7.33421 11.6149 7.27255 11.7713 7.27255 11.9525C7.27255 12.1338 7.33421 12.2901 7.4588 12.4144C7.58337 12.5386 7.74006 12.6 7.92157 12.6C8.10308 12.6 8.25976 12.5386 8.38434 12.4144C8.50893 12.2901 8.57059 12.1338 8.57059 11.9525Z" fill="black" stroke="black" stroke-width="0.2"/>
</svg>
