<svg width="48" height="48" viewBox="0 0 48 48" fill="none" xmlns="http://www.w3.org/2000/svg">
<path d="M24 48C10.7445 48 0 37.2555 0 24C0 10.7445 10.7445 0 24 0C37.2555 0 48 10.7445 48 24C48 37.2555 37.2555 48 24 48ZM33.6925 18.9113V18.9132C34.4674 18.3961 35.5062 17.326 35.7514 16.2748C34.9834 16.8027 34.0723 17.076 33.1441 17.057C34.2016 16.5419 34.9765 15.7578 35.2404 14.4187C34.2203 14.9717 33.4454 15.4888 32.124 15.7578C29.251 12.2955 22.4287 14.9717 23.7501 20.2522C19.0073 20.0022 16.1324 17.6101 13.789 14.9717C12.4863 17.093 13.527 20.5363 15.3612 21.5894C14.3 21.5894 13.7703 21.3413 13.2612 21.0723C13.2612 23.7126 14.8484 25.2998 16.9484 26.1028H14.8484C15.6251 27.9211 16.9466 29.2582 19.2899 29.2582C17.7402 30.8643 14.5845 31.6485 12.2411 31.3795C14.3374 32.9686 16.6827 34.0198 20.1022 33.7527C28.1916 33.4838 33.6906 27.3832 33.6906 18.9113H33.6925Z" fill="white"/>
</svg>
