<svg width="31" height="31" viewBox="0 0 31 31" fill="none" xmlns="http://www.w3.org/2000/svg">
<path d="M26.1562 5.8125H21.3125V3.875H19.375V5.8125H11.625V3.875H9.6875V5.8125H4.84375C4.31094 5.8125 3.875 6.24844 3.875 6.78125V26.1562C3.875 26.6891 4.31094 27.125 4.84375 27.125H26.1562C26.6891 27.125 27.125 26.6891 27.125 26.1562V6.78125C27.125 6.24844 26.6891 5.8125 26.1562 5.8125ZM25.1875 25.1875H5.8125V11.625H25.1875V25.1875ZM11.625 15.5H7.75V13.5625H11.625V15.5ZM17.4375 15.5H13.5625V13.5625H17.4375V15.5ZM23.25 15.5H19.375V13.5625H23.25V15.5ZM11.625 19.375H7.75V17.4375H11.625V19.375ZM17.4375 19.375H13.5625V17.4375H17.4375V19.375ZM23.25 19.375H19.375V17.4375H23.25V19.375ZM11.625 23.25H7.75V21.3125H11.625V23.25ZM17.4375 23.25H13.5625V21.3125H17.4375V23.25Z" fill="#F6B91B"/>
</svg>
