<svg width="48" height="48" viewBox="0 0 48 48" fill="none" xmlns="http://www.w3.org/2000/svg">
<path d="M24 0C10.7438 0 0 10.7438 0 24C0 37.2562 10.7438 48 24 48C37.2562 48 48 37.2562 48 24C48 10.7438 37.2562 0 24 0ZM30.2427 35.1334C30.2427 35.5663 30.0223 35.7853 29.5866 35.9992H29.1509C28.9304 35.9992 28.7151 35.9992 28.4947 35.7802L23.2559 32.3118L20.6365 34.9144C20.4161 35.1334 19.9804 35.3473 19.5447 35.1334C19.109 34.9144 18.8886 34.4815 18.8886 34.0486V29.2814C18.8886 29.0624 18.8886 28.8485 19.109 28.6295L29.5814 17.5724L29.1457 17.3534L17.5866 27.7637C17.1509 28.1966 16.7151 28.1966 16.2794 27.9827L11.0406 24.7333C10.8202 24.7333 10.6049 24.3004 10.6049 23.8675C10.6049 23.4345 10.8254 23.0016 11.2611 23.0016L33.0774 12.1635C33.2978 11.9445 33.7335 11.9445 34.1692 12.1635C34.6049 12.3825 34.6049 12.8154 34.6049 13.4622L30.2427 35.1334Z" fill="white"/>
</svg>
