<svg width="43" height="49" viewBox="0 0 43 49" fill="none" xmlns="http://www.w3.org/2000/svg">
<path d="M37.8243 0.212402C40.6156 0.212402 42.867 2.4864 43 5.1624V48.2124L37.6853 43.6664L34.7669 40.9904L31.5824 38.1944L32.9126 42.6044H5.04271C2.25929 42.6044 0 40.4744 0 37.6524V5.1724C0 2.4964 2.26326 0.218402 5.05263 0.218402H37.8104L37.8243 0.212402ZM25.6781 11.5784H25.6185L25.2175 11.9784C29.3331 13.1784 31.3243 15.0524 31.3243 15.0524C28.672 13.7164 26.2816 13.0484 23.8913 12.7784C22.1641 12.5084 20.4369 12.6504 18.9777 12.7784H18.5806C17.6475 12.7784 15.6622 13.1784 13.0018 14.2484C12.0747 14.6544 11.5426 14.9204 11.5426 14.9204C11.5426 14.9204 13.5319 12.9164 17.9155 11.8464L17.6475 11.5764C17.6475 11.5764 14.328 11.4484 10.7445 14.1164C10.7445 14.1164 7.16104 20.4044 7.16104 28.1564C7.16104 28.1564 9.14636 31.6364 14.5921 31.7684C14.5921 31.7684 15.3862 30.7024 16.1903 29.7644C13.1329 28.8284 11.9417 26.9564 11.9417 26.9564C11.9417 26.9564 12.2077 27.0884 12.6068 27.3564H12.7259C12.7854 27.3564 12.8132 27.3864 12.845 27.4164V27.4284C12.8768 27.4604 12.9046 27.4884 12.9641 27.4884C13.6193 27.7604 14.2744 28.0284 14.8105 28.2884C15.9569 28.7828 17.1559 29.1425 18.384 29.3604C20.2304 29.6304 22.3467 29.7604 24.7569 29.3604C25.9481 29.0904 27.1393 28.8264 28.3305 28.2904C29.1048 27.8904 30.0577 27.4904 31.104 26.8164C31.104 26.8164 29.9128 28.6884 26.7263 29.6244C27.3815 30.5564 28.3047 31.6244 28.3047 31.6244C33.7524 31.5044 35.8687 28.0244 35.9879 28.1724C35.9879 20.4324 32.3845 14.1324 32.3845 14.1324C29.1385 11.7044 26.101 11.6124 25.5649 11.6124L25.6761 11.5724L25.6781 11.5784ZM26.0116 20.4044C27.4073 20.4044 28.533 21.6044 28.533 23.0744C28.533 24.5544 27.4014 25.7544 26.0116 25.7544C24.6219 25.7544 23.4903 24.5544 23.4903 23.0864C23.4943 21.6064 24.6279 20.4104 26.0116 20.4104V20.4044ZM16.9923 20.4044C18.3821 20.4044 19.5057 21.6044 19.5057 23.0744C19.5057 24.5544 18.3741 25.7544 16.9844 25.7544C15.5947 25.7544 14.463 24.5544 14.463 23.0864C14.463 21.6064 15.5947 20.4104 16.9844 20.4104L16.9923 20.4044Z" fill="white"/>
</svg>
