<svg xmlns="http://www.w3.org/2000/svg" width="367.24" height="128.36" viewBox="0 0 367.24 128.36"><defs><style>.a{fill:#f6b91b;}.b{fill:#115e61;}.c{fill:#00e88a;}</style></defs><g transform="translate(-776 -4785.1)"><path class="a" d="M625.666-385.836H978.615L886.7-440.6H717.566l-91.9,54.76Zm360.1,1.97H618.525l98.5-58.7h170.21l.24.14,98.289,58.56Z" transform="translate(157.475 5297.326)"/><path class="a" d="M667.716-384.086l-1.22-1.54,71.66-56.73,1.22,1.55-71.66,56.72Z" transform="translate(157.475 5297.326)"/><path class="a" d="M690.005-384.136l-1.36-1.43,59.44-56.73,1.36,1.43-59.44,56.73Z" transform="translate(157.475 5297.326)"/><path class="a" d="M713.245-384.226l-1.51-1.26,47.22-56.72,1.51,1.25-47.22,56.73Z" transform="translate(157.475 5297.326)"/><path class="a" d="M735.646-384.336l-1.67-1.04L769.3-442.1l1.66,1.04-35.31,56.72Z" transform="translate(157.475 5297.326)"/><path class="a" d="M758.226-384.476l-1.82-.75,23.61-56.73,1.81.75-23.6,56.73Z" transform="translate(157.475 5297.326)"/><path class="a" d="M780.646-384.656l-1.93-.4,11.85-56.73,1.92.41-11.84,56.72Z" transform="translate(157.475 5297.326)"/><path class="a" d="M959.086-384.046l-83.3-56.72,1.1-1.63,83.3,56.73-1.1,1.62Z" transform="translate(157.475 5297.326)"/><path class="a" d="M936.516-384.086l-71.65-56.72,1.22-1.55,71.66,56.73-1.23,1.54Z" transform="translate(157.475 5297.326)"/><path class="a" d="M914.226-384.136l-59.43-56.73,1.36-1.43,59.43,56.73-1.36,1.43Z" transform="translate(157.475 5297.326)"/><path class="a" d="M890.986-384.226l-47.22-56.73,1.51-1.25,47.23,56.72-1.52,1.26Z" transform="translate(157.475 5297.326)"/><path class="a" d="M868.6-384.336l-35.32-56.72,1.67-1.04,35.32,56.72-1.67,1.04Z" transform="translate(157.475 5297.326)"/><path class="a" d="M846.015-384.476l-23.61-56.73,1.82-.75,23.6,56.73-1.81.75Z" transform="translate(157.475 5297.326)"/><path class="a" d="M823.6-384.656l-11.85-56.72,1.93-.41,11.84,56.73-1.92.4Z" transform="translate(157.475 5297.326)"/><path class="a" d="M803.346-384.856h-1.97v-56.73h1.97v56.73Z" transform="translate(157.475 5297.326)"/><path class="a" d="M754.336-431.146h-52.91v-1.96h200.2v1.96Z" transform="translate(157.475 5297.326)"/><path class="a" d="M917.986-422.1H686.245v-1.97h231.74v1.97Z" transform="translate(157.475 5297.326)"/><path class="a" d="M934.576-412.236H669.7v-1.96h264.88v1.96Z" transform="translate(157.475 5297.326)"/><path class="a" d="M950.446-402.776H653.825v-1.97h296.62v1.97Z" transform="translate(157.475 5297.326)"/><path class="b" d="M890.535-453.156H714.206v12.56h176.33v-12.56Z" transform="translate(157.475 5297.326)"/><path class="b" d="M890.535-464.306H714.206v7.93h176.33v-7.93Z" transform="translate(157.475 5297.326)"/><path class="b" d="M890.535-477.086H714.206v5.96h176.33v-5.96Z" transform="translate(157.475 5297.326)"/><path class="b" d="M890.535-492.626H714.206v2.98h176.33v-2.98Z" transform="translate(157.475 5297.326)"/><path class="b" d="M749.505-507.546v-.16a1.653,1.653,0,0,0-.5-1.36,2.452,2.452,0,0,0-1.62-.43h-1.679v3.71h1.69a2.572,2.572,0,0,0,1.629-.41,1.689,1.689,0,0,0,.48-1.35Zm2.731-.14v.09c0,2.89-1.621,4.35-4.84,4.35h-3.761a.624.624,0,0,1-.61-.63v-7.54a.631.631,0,0,1,.61-.63H747.4a5.261,5.261,0,0,1,3.62,1.1,4.091,4.091,0,0,1,1.22,3.26Zm-10.57-3.73v1.28a.633.633,0,0,1-.61.64h-2.23v5.62a.623.623,0,0,1-.61.63h-1.461a.617.617,0,0,1-.609-.63v-5.62h-2.23a.626.626,0,0,1-.61-.64v-1.28a.623.623,0,0,1,.61-.63h7.14a.631.631,0,0,1,.61.63Zm-9.64,3.79a2.2,2.2,0,0,1,.589,1.73l-.009.13a2.445,2.445,0,0,1-1.27,2.09,5.166,5.166,0,0,1-2.68.61c-.17,0-.341,0-.51-.01a5.154,5.154,0,0,1-3.11-.99,3.18,3.18,0,0,1-.45-.46.655.655,0,0,1-.13-.54.632.632,0,0,1,.34-.44l1.249-.59a.594.594,0,0,1,.681.12,1.525,1.525,0,0,0,.34.26,2.883,2.883,0,0,0,1.27.31c.11.01.219.01.32.01.29,0,1.209-.03,1.229-.45l.011-.07c.01-.24-.371-.37-.69-.44l-2.26-.5a3.85,3.85,0,0,1-1.99-.94,2.048,2.048,0,0,1-.591-1.67l.01-.13a2.429,2.429,0,0,1,1.2-2.03,4.787,4.787,0,0,1,2.549-.6c.151,0,.311.01.471.02a5.115,5.115,0,0,1,3.05.94l.25.23a.674.674,0,0,1,.169.56.618.618,0,0,1-.349.46l-1.24.6a.6.6,0,0,1-.64-.08l-.15-.1a2.87,2.87,0,0,0-1.2-.29c-.111-.01-.221-.01-.31-.01-.51,0-1.11.1-1.13.37v.07l.12.18a2.151,2.151,0,0,0,.55.18l2.27.5a3.935,3.935,0,0,1,2.04.97Zm-9.161-3.79v1.18a.623.623,0,0,1-.61.63h-4.419v.75h4.419a.632.632,0,0,1,.61.64v1.13a.632.632,0,0,1-.61.64h-4.419v.76h4.419a.632.632,0,0,1,.61.64v1.17a.623.623,0,0,1-.61.63h-6.489a.617.617,0,0,1-.61-.63v-7.54a.623.623,0,0,1,.61-.63h6.489a.63.63,0,0,1,.61.63Z" transform="translate(157.475 5297.326)"/><path class="b" d="M856.275-511.426v7.53a.644.644,0,0,1-.64.64h-1.429a.645.645,0,0,1-.641-.64v-4.93l-1,.47a.657.657,0,0,1-.811-.22l-.609-.91a.619.619,0,0,1-.09-.53.667.667,0,0,1,.35-.42l3.33-1.57a.635.635,0,0,1,.269-.07h.63a.646.646,0,0,1,.64.65Z" transform="translate(157.475 5297.326)"/><path class="b" d="M861.786-508.8h.3c.141,0,.311.01.5.01.65,0,1.31-.02,2.049-.06-.159-.85-1.209-1.03-2.07-1.03a3.873,3.873,0,0,0-1.379.18.5.5,0,0,0-.38.47c0,.13.03.43.98.43Zm5.01-1.72a3.386,3.386,0,0,1,.569,1.97v1.61a3.483,3.483,0,0,1-1.259,2.86,5.465,5.465,0,0,1-3.5,1.01,5.586,5.586,0,0,1-3.231-.8,5.351,5.351,0,0,1-.49-.38.676.676,0,0,1-.209-.58.645.645,0,0,1,.379-.49l1.271-.57a.638.638,0,0,1,.6.03,2.564,2.564,0,0,0,.37.18,3.436,3.436,0,0,0,1.339.21,2.606,2.606,0,0,0,1.521-.38.989.989,0,0,0,.459-.75c-.86.06-1.469.07-1.83.07-.209,0-.349-.01-.42-.01h-.059a5.564,5.564,0,0,1-3.1-.65,2.083,2.083,0,0,1-1.11-1.93v-.06a2.54,2.54,0,0,1,1.2-2.28,6.214,6.214,0,0,1,3.38-.77,6.538,6.538,0,0,1,2.5.44,3.425,3.425,0,0,1,1.62,1.27Z" transform="translate(157.475 5297.326)"/><path class="b" d="M872.845-508.8h.3c.15,0,.31.01.5.01.66,0,1.32-.02,2.06-.06-.171-.85-1.22-1.03-2.071-1.03a3.879,3.879,0,0,0-1.38.18.523.523,0,0,0-.39.47c.01.13.041.43.98.43Zm5.02-1.72a3.382,3.382,0,0,1,.561,1.97v1.61a3.458,3.458,0,0,1-1.26,2.86,5.434,5.434,0,0,1-3.49,1.01,5.64,5.64,0,0,1-3.24-.8,4.911,4.911,0,0,1-.48-.38.626.626,0,0,1-.211-.58.614.614,0,0,1,.37-.49l1.281-.57a.619.619,0,0,1,.59.03,2.777,2.777,0,0,0,.379.18,3.4,3.4,0,0,0,1.331.21,2.6,2.6,0,0,0,1.52-.38,1,1,0,0,0,.47-.75c-.86.06-1.47.07-1.84.07-.2,0-.341-.01-.41-.01h-.061a5.628,5.628,0,0,1-3.109-.65,2.091,2.091,0,0,1-1.1-1.93v-.06a2.539,2.539,0,0,1,1.2-2.28,6.221,6.221,0,0,1,3.38-.77,6.527,6.527,0,0,1,2.5.44,3.459,3.459,0,0,1,1.62,1.27Z" transform="translate(157.475 5297.326)"/><path class="b" d="M885.906-506.876v-2.48l-2.8,2.48Zm4.14.64v.92a.649.649,0,0,1-.65.65h-.781v.77a.646.646,0,0,1-.649.64h-1.41a.647.647,0,0,1-.65-.64v-.77h-5.031a.648.648,0,0,1-.649-.65v-1.51a.666.666,0,0,1,.21-.48l5-4.59a.7.7,0,0,1,.439-.16h2.091a.639.639,0,0,1,.649.64v4.54h.781a.647.647,0,0,1,.65.64Z" transform="translate(157.475 5297.326)"/><path class="c" d="M844.716-442.886a43.464,43.464,0,0,0-43.361-41.39,43.455,43.455,0,0,0-43.379,42.09l-7.611,1.12h16.561v.04l66-.12,11.79-1.74Z" transform="translate(157.475 5297.326)"/><path class="a" d="M858.375-441.066h-21.38l.561-.08-66,.12v.16a43.462,43.462,0,0,0,43.41,43.42,43.471,43.471,0,0,0,43.419-43.42l-.01-.2Z" transform="translate(157.475 5297.326)"/><path class="a" d="M853.745-441.066h-21.38l.561-.08-66,.12v.16a43.463,43.463,0,0,0,43.409,43.42,43.462,43.462,0,0,0,43.41-43.42v-.2Z" transform="translate(157.475 5297.326)"/></g></svg>