<svg xmlns="http://www.w3.org/2000/svg" width="80.755" height="33.97" viewBox="0 0 80.755 33.97"><defs><style>.a{fill:#00e88a;}</style></defs><g transform="translate(0)"><path class="a" d="M907.285,830a18.114,18.114,0,0,1,.829,3.084c6.924.821,11.382,2.107,11.382,3.552,0,2.479-13.107,4.487-29.277,4.487s-29.278-2.008-29.278-4.487c0-1.445,4.459-2.73,11.382-3.552a18.075,18.075,0,0,1,.829-3.084c-13.769,1.166-23.311,3.7-23.311,6.636,0,4.043,18.078,7.32,40.378,7.32s40.377-3.277,40.377-7.32C930.6,833.7,921.054,831.169,907.285,830Zm-52.957,6.858c0-1.76,4.564-3.341,11.827-4.435-6.351,1.1-10.292,2.638-10.292,4.337,0,1.536,3.228,3.181,8.549,4.251C858.17,839.938,854.328,838.474,854.328,836.861Zm61.7,4.153c5.321-1.07,8.55-2.714,8.55-4.251,0-1.7-3.942-3.235-10.292-4.337,7.262,1.094,11.827,2.675,11.827,4.435C926.109,838.474,922.267,839.938,916.025,841.014Z" transform="translate(-849.841 -819.299)"/><g transform="translate(23.393)"><path class="a" d="M913.794,829.542a161.521,161.521,0,0,0,16.673-.8,16.985,16.985,0,1,0-33.348,0A161.358,161.358,0,0,0,913.794,829.542Z" transform="translate(-896.809 -808.512)"/><path class="a" d="M915.009,855.841c-5.6,0-10.932-.208-15.779-.581a16.992,16.992,0,0,0,31.558,0C925.94,855.633,920.609,855.841,915.009,855.841Z" transform="translate(-898.024 -831.977)"/></g></g></svg>