<svg xmlns="http://www.w3.org/2000/svg" width="49" height="55" viewBox="0 0 49 55"><defs><style>.a{fill:#00e88a;}</style></defs><path class="a" d="M1661.511,653.837l-8.2-5.107a.619.619,0,0,0-.609-.026l-39.557,20.154a.62.62,0,0,0-.339.552v9.028a.62.62,0,0,0,.293.526l39.466,24.578a.618.618,0,0,0,.6.033l8.294-3.967a.621.621,0,0,0,.352-.56V654.363A.62.62,0,0,0,1661.511,653.837Zm-.947,27.558-7.153,3.664v-8.311l7.153,4.511Zm-30.434-1.811,7.145-3.78,7.536,4.721-7.074,3.825Zm30.434-16.662-7.153,3.784v-8.088l7.153,4.181Zm-15.4,8.73-1.3.664,1.3-.688Zm-1.082,1.945v4.712l-4.168-2.582Zm1.579-1.734,7,4.415-7,3.786Zm-.5-.9-7.228-4.559,7.228-3.683Zm.5-8.3,7.1,4.383-7.1,3.757Zm-.913,8.622-7.11,3.761V666.8Zm8.164,5.418v8.31l-7.12-4.46Zm-7.174-5.38,7.174-3.8v8.321Zm7.174-4.767-6.908-4.263,6.908-3.52Zm-15.465-.461-7.222-4.554,7.459-3.8,7.308,4.51Zm-7.736-4.291,7.222,4.553-7.611,3.878-7.248-4.54Zm7.43,5v8.327l-7.33-4.593Zm-.354,8.69-7.146,3.78-7.613-4.77,7.269-3.7Zm8.377,5.4V689l-6.946-4.352Zm.5.162,7,4.384-7,3.585Zm7.748-13.611,7.153,4.414V672l-7.153,3.869Zm.351-.366,6.8-3.6v7.8Zm.087-8.782,6.716-3.421v7.347Zm-8.337,3.691-7.308-4.51,7.084-3.609,7.526,4.4Zm-23.949,3.97,7.249,4.54-7.27,3.7-7.248-4.541Zm7.837,13.751v7.945l-7.615-4.742V674.94Zm.5.311,7.25,4.542v7.916l-7.25-4.515Zm7.746,4.852,7.526,4.716v7.887l-7.526-4.688Zm15.274,1v7.988l-7.015-4.394Zm.5.042,7.081,4.436-7.081,3.555Zm7.153,3.895-6.9-4.321,6.9-3.534Zm-6.918-13.5,6.918-3.741v8.1Zm6.577-21.816L1653.339,658l-7.526-4.4,7.137-3.636Zm-46.18,15.6,7.245,4.539v7.976l-7.245-4.512Zm31.621,27.694V689.9l7.251,4.543V702.3Zm7.748,4.293v-7.619l7.153-3.592v7.79Z" transform="translate(-1612.803 -648.636)"/></svg>