<svg xmlns="http://www.w3.org/2000/svg" width="316.674" height="169.46" viewBox="0 0 316.674 169.46"><defs><style>.a{fill:#f6b91b;}.b{fill:#00e88a;}</style></defs><g transform="translate(-1272.283 -4744)"><path class="a" d="M295.806-181.9v7.38a.627.627,0,0,1-.35.57.578.578,0,0,1-.641-.07l-5.209-4.24v3.9a.624.624,0,0,1-.611.63h-1.3a.617.617,0,0,1-.61-.63v-7.42a.626.626,0,0,1,.34-.56.58.58,0,0,1,.63.06l5.23,4.09v-3.71a.617.617,0,0,1,.61-.63h1.3a.623.623,0,0,1,.61.63Zm-10.931,0v7.52a.626.626,0,0,1-.609.64h-1.46a.625.625,0,0,1-.61-.64v-7.52a.616.616,0,0,1,.61-.63h1.46a.617.617,0,0,1,.609.63Zm-9.069,0v1.16a.617.617,0,0,1-.61.63h-4.381v.75H275.2a.617.617,0,0,1,.61.63v1.13a.623.623,0,0,1-.61.63h-4.381v.76H275.2a.617.617,0,0,1,.61.63v1.16a.617.617,0,0,1-.61.63h-6.44a.616.616,0,0,1-.61-.63v-7.48a.616.616,0,0,1,.61-.63h6.44a.617.617,0,0,1,.61.63Zm-11.64,3.86v-.16a1.673,1.673,0,0,0-.51-1.36,2.443,2.443,0,0,0-1.61-.43h-1.681v3.71h1.69a2.542,2.542,0,0,0,1.62-.41,1.649,1.649,0,0,0,.491-1.35Zm1.51-3.4a4.15,4.15,0,0,1,1.219,3.27v.09c0,2.88-1.629,4.35-4.84,4.35h-3.763a.627.627,0,0,1-.608-.64v-7.53a.627.627,0,0,1,.608-.64h3.763a5.278,5.278,0,0,1,3.621,1.1Zm-13.171,4.55-.745-1.57h-.081l-.747,1.57Zm3.822,2.2a.664.664,0,0,1-.006.63.613.613,0,0,1-.528.31H254.33a.6.6,0,0,1-.547-.35l-.321-.67h-3.489l-.318.67a.6.6,0,0,1-.547.35h-1.449a.612.612,0,0,1-.527-.31.661.661,0,0,1-.008-.63l4.007-7.54a.613.613,0,0,1,.535-.33h.108a.616.616,0,0,1,.535.33l4.018,7.54Zm-10.472-7.2v7.51a.618.618,0,0,1-.609.63h-1.42a.618.618,0,0,1-.608-.63v-3.78l-2.573,1.97a.591.591,0,0,1-.361.12h-.115a.591.591,0,0,1-.361-.12l-2.6-1.98v3.79a.618.618,0,0,1-.608.63H235.17a.617.617,0,0,1-.608-.63v-7.51a.617.617,0,0,1,.608-.63h.018a.586.586,0,0,1,.36.12l4.635,3.53,4.705-3.53a.577.577,0,0,1,.356-.12.62.62,0,0,1,.611.63Z" transform="translate(1037.721 4926.706)"/><path class="a" d="M544.666-176.936l-.75-1.59h-.09l-.761,1.59Zm3.88,2.88a.6.6,0,0,1-.531.32h-1.49a.625.625,0,0,1-.559-.36l-.32-.68h-3.551l-.319.68a.626.626,0,0,1-.56.36h-1.471a.617.617,0,0,1-.539-.32.683.683,0,0,1-.01-.64l4.08-7.67a.615.615,0,0,1,.539-.33h.111a.616.616,0,0,1,.54.33l4.089,7.67a.659.659,0,0,1-.009.64Zm-10.62-7.83v7.52a.617.617,0,0,1-.61.63h-1.461a.624.624,0,0,1-.61-.63v-7.52a.633.633,0,0,1,.61-.64h1.461a.626.626,0,0,1,.61.64Zm-4.791,3.78a2.122,2.122,0,0,1,.591,1.73l-.01.13a2.433,2.433,0,0,1-1.27,2.09,5.169,5.169,0,0,1-2.681.61c-.169,0-.339,0-.51-.01a5.1,5.1,0,0,1-3.1-.99,2.854,2.854,0,0,1-.46-.46.648.648,0,0,1-.13-.54.686.686,0,0,1,.34-.44l1.25-.59a.609.609,0,0,1,.689.12,1.351,1.351,0,0,0,.341.26,2.8,2.8,0,0,0,1.26.31c.11.01.22.01.319.01.291,0,1.211-.03,1.24-.45v-.07c.01-.23-.37-.37-.69-.44l-2.259-.5a3.938,3.938,0,0,1-1.99-.94,2.052,2.052,0,0,1-.58-1.67v-.13a2.429,2.429,0,0,1,1.21-2.03,4.751,4.751,0,0,1,2.54-.6c.149,0,.31.01.47.02a5.109,5.109,0,0,1,3.049.94l.25.23a.675.675,0,0,1,.171.56.662.662,0,0,1-.35.47l-1.24.59a.6.6,0,0,1-.64-.08l-.14-.1a2.914,2.914,0,0,0-1.21-.29c-.11-.01-.211-.01-.31-.01-.51,0-1.11.1-1.13.37v.07l.12.18a1.815,1.815,0,0,0,.55.18l2.27.5a3.931,3.931,0,0,1,2.039.97Zm-9.449,0a2.2,2.2,0,0,1,.59,1.73l-.011.13a2.427,2.427,0,0,1-1.27,2.09,5.157,5.157,0,0,1-2.679.61c-.17,0-.34,0-.51-.01a5.154,5.154,0,0,1-3.11-.99,2.741,2.741,0,0,1-.451-.46.658.658,0,0,1-.13-.54.639.639,0,0,1,.341-.44l1.25-.59a.593.593,0,0,1,.679.12,1.349,1.349,0,0,0,.341.26,2.876,2.876,0,0,0,1.26.31c.119.01.23.01.33.01.28,0,1.21-.03,1.239-.45v-.07c.011-.23-.369-.37-.7-.44l-2.259-.5a3.946,3.946,0,0,1-1.981-.94,2.065,2.065,0,0,1-.589-1.67l.01-.13a2.417,2.417,0,0,1,1.2-2.03,4.786,4.786,0,0,1,2.55-.6c.15,0,.31.01.469.02a5.142,5.142,0,0,1,3.051.94l.25.23a.681.681,0,0,1,.17.56.655.655,0,0,1-.351.47l-1.24.59a.6.6,0,0,1-.64-.08l-.149-.1a2.874,2.874,0,0,0-1.2-.29c-.111-.01-.22-.01-.31-.01-.51,0-1.11.1-1.13.37v.07l.119.18a1.836,1.836,0,0,0,.55.18l2.271.5a3.939,3.939,0,0,1,2.04.97Zm-9.08-3.77v3.9a4.789,4.789,0,0,1-.54,2.32,3.7,3.7,0,0,1-1.511,1.55,4.654,4.654,0,0,1-2.279.54,4.625,4.625,0,0,1-2.271-.54,3.771,3.771,0,0,1-1.51-1.55,4.971,4.971,0,0,1-.529-2.32v-3.9a.632.632,0,0,1,.61-.64h1.459a.627.627,0,0,1,.611.64v3.95c0,1.18.52,1.73,1.63,1.73a1.672,1.672,0,0,0,1.25-.42,1.835,1.835,0,0,0,.4-1.31v-3.95a.626.626,0,0,1,.609-.64h1.46a.633.633,0,0,1,.611.64Zm-12.91,2.36c0-.38-.21-.54-.691-.54h-2.62v1.22h2.62c.481,0,.691-.17.691-.55v-.13Zm1.83-2.21a2.8,2.8,0,0,1,.9,2.2v.13a2.564,2.564,0,0,1-.59,1.74,2.91,2.91,0,0,1-1.571.84l1.681,2.05a.648.648,0,0,1,.09.68.612.612,0,0,1-.55.36h-1.77a.584.584,0,0,1-.471-.23l-2.11-2.74h-.75v2.34a.623.623,0,0,1-.61.63h-1.469a.615.615,0,0,1-.6-.63v-7.54a.615.615,0,0,1,.6-.63h4.77a3.562,3.562,0,0,1,2.45.8Z" transform="translate(1037.721 4926.706)"/><path class="a" d="M452.456-107.826l94.84-34.52v12.29l-93.81,25.45c.18.63.37,1.25.529,1.89l93.281-25.31v12.69l-92.46,16.31c.12.64.239,1.28.34,1.93l92.12-16.24v11.28l-91.671,8.31c.071.65.111,1.3.161,1.96l91.51-8.3v12.07h-91.34c.01.33.03.65.03.98s-.02.65-.03.98H547.3v11.1l-91.48-7.72c-.041.65-.08,1.31-.15,1.96l91.63,7.73v12.26l-92.12-16.24c-.11.65-.22,1.29-.35,1.93l92.47,16.31v11.65l-93.191-24.66c-.159.64-.34,1.27-.519,1.9l93.71,24.8v13.32l-94.84-34.52c-.211.62-.441,1.23-.68,1.84l95.52,34.77v12.44h-1.48l-95.34-44.09c-.26.6-.53,1.2-.82,1.79l91.479,42.3H515.406l-67.5-38.97c-.331.57-.651,1.15-.98,1.71l64.54,37.26H494.6l-49.5-34.43c-.37.55-.75,1.08-1.14,1.61l47.2,32.82h-13.93l-35.56-29.84c-.421.51-.85,1-1.281,1.49l33.781,28.35H464.135L438.1-43.056c-.45.47-.92.93-1.39,1.39l24.64,24.48h-9l-18.42-21.96c-.5.43-1,.85-1.51,1.26l17.37,20.7H442.9l-13.16-18.66c-.53.38-1.06.77-1.6,1.14l12.351,17.52h-6.56l-8.97-15.53c-.571.33-1.13.66-1.711.98l8.4,14.55h-5.271l-6.11-13c-.589.28-1.19.54-1.789.81l5.73,12.19h-5.28l-3.921-10.77c-.609.23-1.23.44-1.859.65l3.69,10.12h-4.41l-2.48-9.13c-.63.18-1.26.35-1.9.51l2.339,8.62h-4.609l-1.391-7.84c-.64.11-1.28.24-1.929.34l1.32,7.5h-4l-.641-7.09c-.649.06-1.309.11-1.959.15l.63,6.94h-4.36v-6.8c-.181.01-.35.02-.53.02-.48,0-.96-.03-1.44-.04v6.82h-3.92l.59-6.98c-.66-.05-1.31-.1-1.96-.17l-.61,7.15h-4.441l1.351-7.66c-.64-.1-1.29-.21-1.93-.34l-1.41,8h-4.151l2.311-8.73c-.64-.17-1.27-.35-1.9-.53l-2.45,9.26h-4.87l3.779-10.4c-.62-.21-1.23-.45-1.839-.69l-4.04,11.09h-4.75l5.72-12.38c-.591-.27-1.191-.54-1.78-.83l-6.11,13.21h-5.8l8.631-14.94c-.57-.33-1.141-.65-1.7-.99l-9.2,15.93h-5.93l12.341-17.73c-.541-.37-1.07-.75-1.6-1.14l-13.129,18.87h-7.551l17.74-21.13c-.509-.42-1-.85-1.49-1.29l-18.809,22.42h-8.14l24.51-24.66c-.47-.46-.931-.93-1.381-1.4l-25.9,26.06H310.745l34.32-28.8q-.645-.735-1.26-1.5l-36.119,30.3h-12.62l46.73-32.94c-.38-.53-.771-1.05-1.14-1.6l-49.01,34.54h-18.21l65.25-37.66c-.34-.57-.671-1.14-.98-1.71l-68.2,39.37H246.181l89.995-42.3c-.291-.59-.551-1.19-.82-1.79l-93.8,44.09h-3.025v-12.78l95.4-34.72c-.23-.61-.45-1.23-.66-1.85l-94.744,34.48v-12.2L332.286-69.7c-.18-.63-.36-1.25-.521-1.89L238.532-46.3V-58.9l92.444-16.3c-.12-.64-.24-1.28-.351-1.93l-92.093,16.24V-72.1l91.664-8.31c-.071-.65-.11-1.3-.16-1.96l-91.5,8.29v-11.98h91.343c-.01-.33-.03-.65-.03-.98s.02-.65.03-.98H238.532v-11.02l91.473,7.72c.051-.66.091-1.31.151-1.96l-91.624-7.73v-12.17l92.093,16.24c.1-.65.231-1.29.351-1.93l-92.444-16.3v-11.58l93.144,24.65c.15-.64.319-1.27.5-1.9l-93.644-24.78v-13.23l94.744,34.48c.21-.62.43-1.24.66-1.85l-95.4-34.72v-12.79h.542l96.112,44.45c.27-.6.53-1.2.809-1.79l-92.236-42.66h25.727l68.21,39.38c.319-.58.65-1.15.98-1.71l-65.251-37.67h16.881l50.13,34.87c.369-.54.75-1.08,1.13-1.61l-47.821-33.26h13.931l36.12,30.31c.41-.51.839-1.01,1.26-1.51l-34.321-28.8h10.03l26.521,26.35c.45-.48.9-.95,1.37-1.41l-25.1-24.94h9l18.82,22.42c.49-.43.981-.87,1.49-1.28l-17.74-21.14h6.89l13.461,19.1c.529-.39,1.07-.77,1.61-1.14l-12.67-17.96h6.57l9.2,15.93c.559-.34,1.14-.66,1.71-.98l-8.631-14.95h5.271l6.29,13.39c.59-.3,1.179-.58,1.77-.85l-5.89-12.54h5.28l4.04,11.09c.609-.24,1.219-.47,1.839-.69l-3.789-10.4h4.41l2.54,9.37c.63-.18,1.26-.37,1.9-.54l-2.4-8.83h4.62l1.41,8c.64-.13,1.29-.24,1.93-.34l-1.351-7.66h4l.661,7.19c.64-.07,1.3-.13,1.949-.18l-.63-7.01h4.361v6.82c.48-.01.96-.04,1.44-.04.18,0,.349.01.52.02v-6.8h3.929l-.589,6.91c.66.04,1.31.09,1.96.15l.6-7.06h4.44l-1.32,7.5c.649.1,1.289.22,1.929.34l1.391-7.84h4.15l-2.26,8.53c.64.16,1.27.32,1.91.49l2.38-9.02h4.88l-3.68,10.12c.619.21,1.24.42,1.849.65l3.921-10.77h4.76l-5.571,12.03c.6.27,1.2.53,1.791.81l5.94-12.84h5.81l-8.4,14.55c.571.32,1.141.65,1.7.98l8.97-15.53h5.92L427.8-139.576c.541.37,1.08.75,1.611,1.13l12.829-18.44h7.541l-17.37,20.7c.51.41,1.01.83,1.51,1.26l18.43-21.96h8.139l-24.069,24.22c.47.45.949.9,1.41,1.37l25.429-25.59h10.911l-33.791,28.35c.431.5.87.99,1.281,1.49l35.57-29.84h12.62l-46.12,32.51c.389.52.759,1.06,1.139,1.6l48.39-34.11h18.221l-64.56,37.27c.339.56.66,1.13.98,1.7l67.51-38.97h23.32l-89.25,41.96c.289.58.56,1.18.83,1.78l93.049-43.74H547.3v12.45l-95.511,34.76c.23.61.46,1.23.671,1.85Zm-217.857-53v147.58H551.236v-147.58Z" transform="translate(1037.721 4926.706)"/><path class="b" d="M346.7-107.136v-26.12h26.12v-3.93h-30.05v30.05Z" transform="translate(1037.721 4926.706)"/><path class="b" d="M439.135-66.936v26.12h-26.12v3.93h30.05v-30.05Z" transform="translate(1037.721 4926.706)"/><path class="b" d="M413.016-133.256h26.12v26.12h3.93v-30.05h-30.05v3.93Z" transform="translate(1037.721 4926.706)"/><path class="b" d="M372.815-40.816H346.7v-26.12h-3.93v30.05h30.05v-3.93Z" transform="translate(1037.721 4926.706)"/><path class="b" d="M395.956-87.036a3.039,3.039,0,0,1-3.04,3.04,3.039,3.039,0,0,1-3.041-3.04,3.039,3.039,0,0,1,3.041-3.04,3.039,3.039,0,0,1,3.04,3.04Z" transform="translate(1037.721 4926.706)"/></g></svg>