<svg xmlns="http://www.w3.org/2000/svg" width="50" height="54" viewBox="0 0 50 54"><defs><style>.a{fill:#00e88a;}</style></defs><g transform="translate(7.315 0)"><path class="a" d="M1354.554,700.94a.413.413,0,0,1-.35-.189l-17.269-26.587a.41.41,0,0,1,0-.448l17.269-26.587a.417.417,0,0,1,.7,0l17.269,26.587a.411.411,0,0,1,0,.448L1354.9,700.751A.413.413,0,0,1,1354.554,700.94Zm-16.773-27,16.773,25.824,16.771-25.824-16.771-25.824Z" transform="translate(-1336.868 -646.94)"/><g transform="translate(2.65 0.035)"><path class="a" d="M1356.819,700.935a.38.38,0,0,1-.335-.2l-14.653-26.586a.38.38,0,0,1,0-.364l14.653-26.587a.383.383,0,0,1,.669,0l14.653,26.587a.38.38,0,0,1,0,.364l-14.653,26.586A.38.38,0,0,1,1356.819,700.935ZM1342.6,673.969l14.218,25.8,14.217-25.8-14.217-25.8Z" transform="translate(-1341.784 -647.004)"/></g><g transform="translate(5.3 0.069)"><path class="a" d="M1359.084,700.931a.346.346,0,0,1-.316-.2l-12.038-26.587a.344.344,0,0,1,0-.282l12.038-26.587a.347.347,0,0,1,.632,0l12.037,26.587a.339.339,0,0,1,0,.282L1359.4,700.727A.346.346,0,0,1,1359.084,700.931ZM1347.426,674l11.658,25.747L1370.741,674l-11.657-25.746Z" transform="translate(-1346.699 -647.068)"/></g><g transform="translate(7.949 0.104)"><path class="a" d="M1361.348,700.924a.311.311,0,0,1-.294-.207l-9.424-26.586a.3.3,0,0,1,0-.206l9.424-26.585a.312.312,0,0,1,.588,0l9.423,26.585a.3.3,0,0,1,0,.206l-9.423,26.586A.31.31,0,0,1,1361.348,700.924Zm-9.093-26.9,9.093,25.652,9.091-25.652-9.091-25.652Z" transform="translate(-1351.612 -647.132)"/></g><g transform="translate(10.599 0.138)"><path class="a" d="M1363.614,700.919a.28.28,0,0,1-.271-.208l-6.807-26.586a.274.274,0,0,1,0-.135l6.807-26.586a.28.28,0,0,1,.271-.208.276.276,0,0,1,.268.208l6.809,26.586a.274.274,0,0,1,0,.135l-6.809,26.586A.277.277,0,0,1,1363.614,700.919Zm-6.522-26.862,6.522,25.467,6.521-25.467-6.521-25.467Z" transform="translate(-1356.527 -647.196)"/></g><g transform="translate(13.248 0.174)"><path class="a" d="M1365.878,700.915a.242.242,0,0,1-.24-.2l-4.194-26.585a.215.215,0,0,1,0-.075l4.194-26.585a.243.243,0,0,1,.479,0l4.193,26.585a.249.249,0,0,1,0,.075l-4.193,26.585A.243.243,0,0,1,1365.878,700.915Zm-3.948-26.827,3.948,25.028,3.947-25.028-3.947-25.027Z" transform="translate(-1361.441 -647.262)"/></g><g transform="translate(15.898 0.208)"><path class="a" d="M1368.143,700.909a.209.209,0,0,1-.209-.194l-1.578-26.585a.208.208,0,0,1,0-.025l1.578-26.585a.208.208,0,0,1,.416,0l1.578,26.585a.093.093,0,0,1,0,.025l-1.578,26.585A.208.208,0,0,1,1368.143,700.909Zm-1.37-26.792,1.37,23.072,1.369-23.072-1.369-23.072Z" transform="translate(-1366.356 -647.325)"/></g></g><g transform="translate(7.732 26.688)"><rect class="a" width="34.536" height="0.624"/></g><g transform="translate(0 23.61)"><path class="a" d="M1347.471,698.63a124.335,124.335,0,0,1-17.391-1.075c-6.82-1.017-7.61-2.255-7.61-3.1,0-.553,0-2.235,9.8-3.386l.117,1.034c-8.509,1-8.891,2.34-8.891,2.352s.289,1.106,6.735,2.068a140.345,140.345,0,0,0,34.484,0c6.446-.961,6.735-2.057,6.735-2.068s-.381-1.352-8.89-2.352l.117-1.034c9.8,1.152,9.8,2.834,9.8,3.386,0,.843-.789,2.08-7.609,3.1A124.344,124.344,0,0,1,1347.471,698.63Z" transform="translate(-1322.47 -691.072)"/></g></svg>