<svg xmlns="http://www.w3.org/2000/svg" width="85.586" height="67.35" viewBox="0 0 85.586 67.35"><defs><style>.a{fill:#00e88a;}</style></defs><g transform="translate(-1474.467 -810.252)"><path class="a" d="M1482.191,828.518h70.137a43.114,43.114,0,0,0-6.164-7.028h-57.808A43.079,43.079,0,0,0,1482.191,828.518Z"/><path class="a" d="M1481.555,876.635c.214.326.433.647.658.967h70.094c.223-.32.443-.641.658-.967Z"/><path class="a" d="M1474.467,853.044v.016h85.586v-.016c0-1.342-.066-2.67-.186-3.981h-85.215C1474.531,850.374,1474.467,851.7,1474.467,853.044Z"/><path class="a" d="M1544.85,820.336a42.785,42.785,0,0,0-55.18,0Z"/><path class="a" d="M1476.535,839.873a42.7,42.7,0,0,0-1.287,5.007h84.023a42.5,42.5,0,0,0-1.287-5.007Z"/><path class="a" d="M1480.77,830.681a42.479,42.479,0,0,0-3.067,6.017h79.113a42.292,42.292,0,0,0-3.068-6.017Z"/><path class="a" d="M1476.952,867.445q.359,1,.763,1.977h79.09q.4-.977.761-1.977Z"/><path class="a" d="M1474.782,858.253q.185,1.514.472,2.987h84.012q.285-1.476.47-2.987Z"/></g></svg>