<svg xmlns="http://www.w3.org/2000/svg" width="92.324" height="72.785" viewBox="0 0 92.324 72.785"><defs><style>.a{fill:#00e88a;}</style></defs><g transform="translate(-1472.095 -658.977)"><path class="a" d="M1505.4,708.184l1.366-2.154h-18.349l-1.366,2.154Z"/><path class="a" d="M1507.864,704.292l1.365-2.153h-18.348l-1.365,2.153Z"/><path class="a" d="M1500.459,715.967l1.367-2.153h-18.349l-1.366,2.153Z"/><path class="a" d="M1534.688,713.813l1.365,2.153H1554.4l-1.366-2.153Z"/><path class="a" d="M1502.929,712.075l1.364-2.155h-18.348l-1.364,2.155Z"/><path class="a" d="M1510.332,700.4l1.366-2.153H1493.35l-1.366,2.153Z"/><path class="a" d="M1512.8,696.509l1.366-2.153h-18.348l-1.366,2.153Z"/><path class="a" d="M1478.541,721.6l-1.365,2.154h82.162l-1.367-2.154Z"/><path class="a" d="M1498.286,690.464l-1.366,2.154h18.35l1.364-2.154Z"/><path class="a" d="M1519.848,661.486l-1.591-2.51-1.592,2.51Z"/><path class="a" d="M1481.01,717.7l-1.367,2.155h77.227L1555.5,717.7Z"/><path class="a" d="M1561.8,727.642l-1.365-2.153h-84.365l-1.367,2.153Z"/><path class="a" d="M1532.22,709.92l1.365,2.155h18.348l-1.365-2.155Z"/><path class="a" d="M1505.69,678.789l-1.366,2.154h27.864l-1.365-2.154Z"/><path class="a" d="M1513.095,667.115l-1.366,2.154h13.055l-1.366-2.154Z"/><path class="a" d="M1508.159,674.9l-1.365,2.153h22.926l-1.366-2.153Z"/><path class="a" d="M1510.625,671.006l-1.364,2.153h17.992l-1.366-2.153Z"/><path class="a" d="M1515.563,663.223l-1.365,2.154h8.118l-1.366-2.154Z"/><path class="a" d="M1473.6,729.378l-1.51,2.384h92.324l-1.511-2.384Z"/><path class="a" d="M1529.751,706.029l1.366,2.154h18.348l-1.365-2.154Z"/><path class="a" d="M1503.222,682.682l-1.364,2.153h32.8l-1.366-2.153Z"/><path class="a" d="M1522.346,694.356l1.367,2.153h18.348l-1.366-2.153Z"/><path class="a" d="M1527.282,702.139l1.367,2.153H1547l-1.365-2.153Z"/><path class="a" d="M1524.814,698.247l1.366,2.153h18.349l-1.367-2.153Z"/><path class="a" d="M1519.879,690.464l1.365,2.154h18.35l-1.368-2.154Z"/><path class="a" d="M1500.755,686.573l-1.366,2.153h18.349l.52-.82.52.82h18.35l-1.368-2.153Z"/></g></svg>