<svg xmlns="http://www.w3.org/2000/svg" width="58" height="38" viewBox="0 0 58 38"><defs><style>.a{fill:#00e88a;}</style></defs><g transform="translate(0)"><g transform="translate(0)"><path class="a" d="M930.86,703.1H879.923a.639.639,0,0,1-.553-.323l-2.893-5.07a.651.651,0,0,1,0-.645l18.049-31.638a.635.635,0,0,1,.552-.323l15.035,0,5.593,0a.637.637,0,0,1,.552.323l18.048,31.636a.652.652,0,0,1,0,.645l-2.894,5.072A.635.635,0,0,1,930.86,703.1Zm-50.569-1.291h50.2l2.525-4.426L915.337,666.4l-5.224,0H895.446l-17.68,30.992Z" transform="translate(-876.392 -665.104)"/></g><g transform="translate(3.165 5.492)"><path class="a" d="M883.38,707.475l-1.118-.645,18.028-31.217a.644.644,0,0,1,.56-.323h15.434a.646.646,0,0,1,.561.325l11.8,20.574a.645.645,0,0,1-.56.966H895.546v-1.291h31.422L915.911,676.58H901.222Z" transform="translate(-882.262 -675.29)"/></g><g transform="translate(11.938 10.554)"><path class="a" d="M900.489,707.109a.645.645,0,0,1-.559-.968l12.161-21.078a.647.647,0,0,1,.56-.324h8.423a.642.642,0,0,1,.554.315l9.253,15.5-1.108.663-9.065-15.185h-7.684l-11.416,19.787c6.877,0,43.057,0,43.656,0l-.007,1.291C944.6,707.107,900.93,707.11,900.489,707.109Z" transform="translate(-899.844 -684.74)"/></g><g transform="translate(32.9 5.779)"><rect class="a" width="6.078" height="1.291" transform="matrix(0.545, -0.839, 0.839, 0.545, 0, 5.097)"/></g><g transform="translate(18.104 0.351)"><rect class="a" width="1.291" height="6.181" transform="matrix(0.888, -0.459, 0.459, 0.888, 0, 0.593)"/></g></g></svg>