<svg xmlns="http://www.w3.org/2000/svg" width="1465.394" height="695.492" viewBox="0 0 1465.394 695.492"><defs><style>.a{fill:#231f20;}</style></defs><g transform="translate(-267.228 -101.764)"><g transform="translate(267.228 101.764)"><path class="a" d="M1365.267,797.256c-59.732,0-120.074-15.653-178.888-30.9-54.326-14.076-105.644-27.38-153.487-27.734-51.334-.354-104.228,13-160.308,27.155-80.821,20.415-164.41,41.521-249.285,21.943C538.987,768.3,455.076,730.221,387.06,680.48c-78.36-57.27-119.8-119.656-119.833-180.4-.048-51.527,29.584-99.386,88.077-142.274,32.769-24.034,59.7-51.109,85.728-77.3,43.837-44.079,85.245-85.728,150.526-111.033,117.484-45.543,261.849-67.694,441.349-67.71h.305c117.018,0,254.739,8.816,389.436,74.049,18.275,8.832,44.786,19.337,75.481,31.5,96.828,38.368,229.417,90.892,228.614,144.124l-1.963-.032,1.963.032c-.37,24.227-5.953,43.515-11.342,62.176-9.3,32.142-18.082,62.5.579,114.411,25.1,69.85,28.394,101.091-37.161,152.425-67.309,52.685-167.515,95.766-261.528,112.416A297.567,297.567,0,0,1,1365.267,797.256Zm-334.515-62.579c.724,0,1.448,0,2.172.016,48.326.354,99.868,13.722,154.452,27.862C1262.9,782.15,1341.008,802.4,1416.6,789c93.418-16.553,192.965-59.329,259.79-111.644,63.817-49.966,60.809-78.682,35.89-148.017-19.079-53.1-10.135-84.055-.659-116.824,5.341-18.4,10.826-37.451,11.2-61.147h0c.772-50.513-130.37-102.475-226.12-140.408-30.774-12.194-57.35-22.715-75.754-31.627-133.973-64.863-271.163-73.646-387.731-73.646h-.305c-179,.016-322.9,22.087-439.933,67.437C528.482,198.142,487.363,239.5,443.815,283.29c-26.142,26.286-53.168,53.457-86.194,77.684-57.414,42.1-86.516,88.9-86.468,139.105.032,59.441,40.926,120.733,118.224,177.231,67.6,49.435,150.993,87.288,234.79,106.593,83.991,19.336,167.081-1.641,247.452-21.943C927.151,747.949,979.676,734.677,1030.752,734.677Z" transform="translate(-267.228 -101.764)"/><g transform="translate(41.974 8.43)"><path class="a" d="M678.928,759.493a297.693,297.693,0,0,1-45.752-3.378c-79.132-12.274-173.853-52.347-247.194-104.55C311.789,598.751,271.636,541.288,269.9,485.434c-1.5-47.586,24.34-93.241,76.768-135.743,27.155-22.023,50.079-45.478,72.247-68.161,43.709-44.722,84.972-86.951,152.248-112.593C688.5,124.2,826.607,102.4,993.333,102.288h1.351c134.745,0,247.661,12.709,360.27,74.178,20.463,11.164,52.186,24.484,85.776,38.593,87.191,36.63,195.7,82.2,205.544,129.372,4.987,23.889-1.978,44.352-9.363,66.005-8.88,26.061-18.065,52.991-9.459,90.538,1.85,8.043,3.7,15.524,5.438,22.538,13.368,54.053,20.077,81.191-32.544,127.715-133.587,118.111-300.491,94.206-447.735,73.132-56.209-8.044-109.3-15.637-159.085-15.878l-1.174-.016c-44.159,0-92.806,11.647-144.285,23.97C792.277,745.787,735.007,759.493,678.928,759.493Zm315.741-653.28h-1.336c-166.244.113-303.885,21.814-420.773,66.391-66.471,25.337-107.445,67.276-150.832,111.66-22.248,22.763-45.253,46.315-72.585,68.467-51.43,41.7-76.768,86.291-75.32,132.573,1.706,54.6,41.28,110.985,114.427,163.058,72.874,51.881,166.951,91.68,245.537,103.89,69.561,10.778,142.676-6.708,213.363-23.632,51.72-12.371,100.576-24.066,145.2-24.066h1.207c50.047.241,103.262,7.851,159.6,15.926,153.567,21.975,312.379,44.706,444.6-72.2,50.819-44.947,44.3-71.314,31.322-123.838-1.737-7.03-3.588-14.527-5.437-22.586-8.863-38.641.917-67.356,9.556-92.678,7.191-21.154,14.012-41.119,9.234-63.946-9.427-45.14-116.873-90.281-203.228-126.557-33.686-14.141-65.491-27.509-86.131-38.77C1241.2,118.842,1128.819,106.213,994.669,106.213Z" transform="translate(-269.837 -102.288)"/></g><g transform="translate(83.161 15.508)"><path class="a" d="M1248.875,714.5c-54.31,0-109.151-5.373-161.578-10.521-47.231-4.633-91.857-9.009-132.38-9.105-46.379-.064-93.128,3.314-138.59,6.644-142.789,10.457-290.42,21.267-431.681-76.832-70.783-49.162-108.459-100.544-111.982-152.715-2.96-43.821,18.742-87.3,64.493-129.227,20.382-18.693,38.287-37.419,55.581-55.533,44.465-46.524,86.452-90.458,157.718-117.789,116.712-44.754,248.754-66.584,403.657-66.7H955.5c126.67,0,226.377,12.757,331.3,75.641,25,14.977,59.892,30.147,96.828,46.186,74.773,32.48,159.52,69.287,180.8,114.717,9.169,19.562,2.992,49.725-3.539,81.658-5.083,24.871-10.328,50.578-8.156,71.6.789,7.657,1.722,14.865,2.59,21.7,5.566,43.821,9.251,72.762-30.935,110.148C1447.164,696.2,1348.985,714.5,1248.875,714.5ZM952.664,690.936l2.253.016c40.717.1,85.439,4.488,132.767,9.121,148.226,14.543,316.224,31.016,434.013-78.569,38.722-36.019,35.15-64.155,29.729-106.77-.885-6.869-1.8-14.108-2.606-21.8-2.236-21.621,3.089-47.634,8.22-72.778,6.4-31.289,12.436-60.825,3.829-79.229-20.656-44.079-104.678-80.564-178.808-112.77-37.064-16.1-72.07-31.305-97.278-46.427-104.147-62.4-203.292-75.078-329.286-75.078h-1.383c-154.42.113-286,21.846-402.257,66.44-70.445,27.01-112.127,70.638-156.286,116.84-17.341,18.146-35.279,36.92-55.773,55.71-44.819,41.07-66.086,83.492-63.222,126.058,3.442,50.932,40.555,101.316,110.325,149.771C526.984,718.766,673.956,708,816.053,697.612,860.823,694.33,907.105,690.936,952.664,690.936Z" transform="translate(-272.397 -102.728)"/></g><g transform="translate(122.616 21.315)"><path class="a" d="M1122.364,694.836c-38.062,0-75.5-1.593-110.839-3.089-33.156-1.4-64.477-2.735-93.611-2.751-27.863-.048-55.822.515-83.009,1.046-158.41,3.073-308.051,5.968-450.39-90.474-67.372-45.623-104.051-93.192-109.07-141.357-4.167-39.976,13.562-80.789,52.685-121.28,11.647-12.065,22.635-23.938,33.268-35.408,50.03-53.972,93.224-100.592,169.429-130.643,115.586-45.558,241.612-67.726,385.3-67.791h.563c111.886,0,206.285,13.352,303.274,78.248,30.1,20.141,68.53,38.046,105.676,55.372,60.793,28.345,123.661,57.64,157.009,99.032,17.053,21.171,10.521,63.946,4.762,101.686-2.284,14.929-4.44,29.021-4.794,40.057-.289,8.783-.257,16.956-.225,24.854.177,36.276.306,64.927-33.333,96.8C1364.105,679.585,1240.3,694.836,1122.364,694.836Zm-204.45-9.765c29.214.016,60.568,1.351,93.771,2.767,151.637,6.419,323.511,13.706,434.672-91.552,32.4-30.694,32.287-57.222,32.11-93.916-.032-7.947-.064-16.168.225-25.015.37-11.277,2.542-25.466,4.843-40.507,5.63-36.952,12.033-78.827-3.941-98.646-32.786-40.668-95.219-69.786-155.61-97.938-37.29-17.39-75.85-35.359-106.207-55.677-96.152-64.332-189.924-77.572-301.086-77.572h-.563c-143.191.064-268.734,22.136-383.854,67.517-75.384,29.713-118.288,76.027-168,129.662-10.649,11.486-21.653,23.375-33.332,35.456-38.271,39.623-55.629,79.374-51.591,118.16,4.874,46.958,41.006,93.562,107.349,138.509,141.325,95.75,290.355,92.887,448.121,89.8,27.187-.531,55.356-1.062,83.09-1.045Z" transform="translate(-274.85 -103.089)"/></g><g transform="translate(161.589 25.948)"><path class="a" d="M933.984,683.959q-14.141,0-27.734-.064c-8.495-.016-16.812-.032-24.887-.032-176.877,0-348.044-8.22-497.9-107.494-64.01-42.406-98.372-85.085-105.048-130.45-5.389-36.679,8.221-74.933,40.475-113.736C446.852,178.246,629.054,103.377,875.749,103.377h2.494c110.5.225,191.1,13.658,276.038,81.674,36.357,29.1,79.293,50.723,120.814,71.62,46.427,23.375,90.3,45.462,125.446,77.041,21.573,19.385,26.641,53.859,27.091,79.358,1.078,60.455-22.619,133.33-52.8,162.463C1268.418,678.216,1080.666,683.959,933.984,683.959ZM875.749,107.3c-245.488,0-426.661,74.387-553.846,227.391-31.5,37.9-44.819,75.127-39.606,110.647,6.419,43.6,41.2,86.581,103.343,127.764,148.934,98.662,319.473,106.834,495.723,106.834q12.137,0,24.9.032c149.288.45,353.722.917,465.833-107.269,29.5-28.458,52.669-100.045,51.607-159.567-.434-24.726-5.276-58.058-25.8-76.51-34.748-31.225-78.377-53.184-124.579-76.446-41.7-20.994-84.827-42.695-121.506-72.07-84.039-67.292-163.959-80.58-273.576-80.805Z" transform="translate(-277.272 -103.377)"/></g><g transform="translate(196.227 29.52)"><path class="a" d="M848.879,673.966c-92.115,0-479.716-52.621-556.532-201.651-22.635-43.934-15.508-92.34,21.186-143.883C452.494,133.36,701.554,103.6,840.3,103.6c1.271,0,2.542.016,3.8.016,105.354.4,176.378,14.157,249.944,85.471,41.826,40.539,88.141,65.04,137.191,90.972,30.018,15.878,61.066,32.3,91.02,52.75,33.461,22.844,42.148,58.042,43.548,83.524,2.767,50.449-20.447,107.22-56.417,138.059C1183.458,662.319,945.386,673.966,848.879,673.966ZM840.3,107.524c-137.979,0-385.606,29.536-523.57,223.192-35.778,50.24-42.807,97.279-20.9,139.813,39.96,77.524,167.418,126.364,267.287,153.68,115.585,31.611,236.688,45.832,285.754,45.832,96.072,0,333.019-11.551,457.95-118.626,35.119-30.1,57.753-85.551,55.051-134.858-1.351-24.613-9.7-58.557-41.843-80.5-29.761-20.334-60.712-36.695-90.634-52.524-49.307-26.077-95.863-50.706-138.076-91.632-72.633-70.4-142.917-83.958-247.242-84.361C842.847,107.524,841.559,107.524,840.3,107.524Z" transform="translate(-279.426 -103.599)"/></g><g transform="translate(233.059 32.206)"><path class="a" d="M814.336,654.973c-95.171,0-442.813-62.321-518.261-199.93-22.152-40.411-18.661-83.991,10.376-129.533C404.293,172.088,626,103.766,803.831,103.766c1.271,0,2.526.016,3.781.016,94.431.515,158.313,14.784,225.428,88.608,46.508,51.141,95.2,77.54,151.6,108.089,18.549,10.054,37.74,20.463,57.737,32.254,36.517,21.54,57.125,51.205,59.6,85.76,2.847,39.88-19.722,83.17-60.391,115.795C1137.67,617.651,952.122,654.973,814.336,654.973ZM803.831,107.707c-176.764,0-397.029,67.726-494.066,219.91-28.217,44.255-31.659,86.484-10.248,125.527,40.266,73.437,158.892,122,251.329,149.819,110.229,33.172,220.441,48.1,263.49,48.1,137.094,0,321.613-37.065,424.8-119.849,39.671-31.82,61.694-73.856,58.927-112.449-2.381-33.22-22.313-61.79-57.672-82.655h0c-19.932-11.76-39.091-22.136-57.624-32.174-56.707-30.726-105.676-57.27-152.618-108.909-66.52-73.148-127.136-86.806-222.549-87.32Z" transform="translate(-281.715 -103.766)"/></g><g transform="translate(267.812 34.185)"><path class="a" d="M781.743,630.387c-86.629,0-406.262-58.428-481.968-187.414-21.943-37.386-21.17-77.652,2.3-119.656,79.937-143.127,298.544-219.428,465.9-219.428,1.625,0,3.25,0,4.858.016,89.155.788,147.808,15.588,202.376,91.358,49.371,68.547,96.892,91.889,168.818,127.249,6.886,3.378,14,6.869,21.38,10.537,45.9,22.779,71.62,51.929,74.387,84.3,2.848,33.155-18.291,67.26-61.131,98.6C1063.38,600.32,898.037,630.387,781.743,630.387ZM767.957,107.814c-166.244,0-383.242,75.593-462.455,217.4-22.747,40.716-23.535,79.679-2.333,115.779C378.248,568.95,705.909,626.461,781.743,626.461c115.682,0,280.092-29.873,394.6-113.687,41.682-30.485,62.256-63.383,59.538-95.091-2.654-30.935-27.621-58.975-72.23-81.127q-11.052-5.478-21.348-10.521c-72.472-35.617-120.331-59.136-170.3-128.487C918.419,123.145,860.651,108.6,772.8,107.83,771.206,107.814,769.565,107.814,767.957,107.814Z" transform="translate(-283.875 -103.889)"/></g><g transform="translate(302.353 35.649)"><path class="a" d="M749.35,613.313c-68.29,0-367.8-55.468-445.306-178.856-22.249-35.44-23.905-73.373-4.923-112.77,68.948-143,294.908-217.706,434.559-217.706,1.464,0,2.928,0,4.376.016,89.331,1.03,133.538,23.6,181.912,92.871,53.49,76.639,81.787,95.428,170.3,136.579,62.74,29.182,90.731,61.2,83.219,95.2C1151.495,528.1,822.144,613.313,749.35,613.313Zm-15.7-505.407c-138.59,0-362.747,73.936-430.989,215.486-18.371,38.094-16.779,74.757,4.714,108.974C384.077,554.5,681.511,609.387,749.35,609.387c72.2,0,398.669-83.782,420.307-181.591,7.063-31.949-20.2-62.5-81.047-90.779-89.283-41.521-117.822-60.487-171.874-137.9-48.068-68.869-89.831-90.168-178.727-91.2C736.561,107.905,735.113,107.905,733.649,107.905Z" transform="translate(-286.023 -103.98)"/></g><g transform="translate(336.387 36.839)"><path class="a" d="M717.431,601.289c-73.792,0-336.9-62.418-410.462-176.025-21.8-33.67-24.694-68.965-8.574-104.9,63.85-142.419,270.938-216.307,399.683-216.307q2.8,0,5.55.048c82.109,1.383,120.476,23.085,164.217,92.871,48.534,77.427,63.286,97.2,149.931,136.547,61.743,28.04,89.332,59.458,81.98,93.385-11.776,54.439-111.017,99.965-169.107,122.262C845.613,581.792,755.461,601.289,717.431,601.289Zm-19.465-493.31c-67.019,0-148.805,19.932-220.135,53.8-60.294,28.635-139.748,79.663-175.864,160.2-15.524,34.652-12.724,68.676,8.3,101.155,71.572,110.534,336.2,174.239,407.164,174.239,78.779,0,358.95-80.966,378.5-171.279,6.885-31.885-19.948-61.823-79.776-88.994-87.4-39.687-103.585-61.372-151.636-138.043-42.872-68.4-80.468-89.669-160.952-91.021C701.714,108,699.832,107.979,697.966,107.979Z" transform="translate(-288.138 -104.054)"/></g><g transform="translate(373.118 38.104)"><path class="a" d="M682.984,591.577c-72.714,0-299.3-68.483-370.534-171.842C289.591,386.563,284.491,352.7,297.3,319.11c46.138-121.12,232.989-213.379,369.247-214.955,79.18-1.013,114.314,32.962,148.339,91.793l6.74,11.663c36.534,63.447,51.672,89.717,124.128,125.061,56.868,27.75,81.723,59.072,73.872,93.112C998.564,516.981,756.084,591.577,682.984,591.577Zm-13.4-483.513c-1,0-1.994.016-3.008.016-134.97,1.56-320,92.726-365.61,212.414-12.323,32.335-7.368,64.976,14.72,97.021,70.51,102.33,295.181,170.137,367.3,170.137,80.4,0,313.5-79.148,332.809-162.753,7.4-32.013-16.747-61.855-71.765-88.7h0c-73.55-35.874-89.926-64.316-125.817-126.621l-6.724-11.663C778.622,141.107,744.694,108.064,669.583,108.064Z" transform="translate(-290.421 -104.133)"/></g><g transform="translate(409.95 39.671)"><path class="a" d="M648.441,581.967c-71.265,0-253.854-61.324-326.423-157.46-26.962-35.7-35.375-72.247-25.016-108.62,37.5-131.689,224.9-214.6,332.5-211.577,66.729,1.85,101.815,25.353,134.07,89.846C797.054,261.079,816.921,292,879.709,328.9c51.7,30.4,73.051,63.769,63.415,99.145C919.8,513.71,719.691,581.967,648.441,581.967ZM623.748,108.155c-107.092,0-286.607,81.143-322.98,208.81-10.006,35.118-1.8,70.509,24.372,105.193,69.158,91.6,251.087,155.884,323.3,155.884,70.413,0,268.011-66.97,290.9-151.025,9.089-33.461-11.631-65.329-61.63-94.721-63.688-37.451-83.813-68.724-117.644-136.37-31.483-62.949-65.683-85.889-130.675-87.691C627.544,108.187,625.646,108.155,623.748,108.155Z" transform="translate(-292.711 -104.23)"/></g><g transform="translate(445.292 42.087)"><path class="a" d="M613.478,570.371c-78.054,0-213.089-59.088-279.046-139.346-32.914-40.057-45.365-80.548-37-120.347C322.19,192.888,473.489,107.449,593.788,104.425c75.4-1.931,110.534,58.686,144.655,117.275,22.49,38.609,45.752,78.537,80.274,100.9h0c48.808,31.627,68.193,66.279,57.592,102.957-23.326,80.677-187.639,143.9-260.981,144.8C614.717,570.355,614.09,570.371,613.478,570.371ZM597.295,108.3c-1.126,0-2.252.016-3.394.048-118.61,2.976-268.943,90.49-292.624,203.131-8.108,38.577,4.071,77.958,36.2,117.05,65.265,79.422,198.8,137.914,275.974,137.914.611,0,1.223-.016,1.818-.016,72.376-.885,234.4-62.868,257.264-141.952,10.071-34.845-8.751-68-55.934-98.581-35.328-22.876-58.814-63.206-81.545-102.217C700.509,164.382,667.853,108.3,597.295,108.3Z" transform="translate(-294.908 -104.38)"/></g><g transform="translate(479.518 45.583)"><path class="a" d="M579.385,555.284c-72.006,0-172.518-50.481-230.833-116.406-39.381-44.513-56.723-91.326-50.16-135.373C314.785,193.727,449.1,110.654,559.4,104.75c69.271-3.7,105.74,60.616,141.084,122.841,19.61,34.507,38.126,67.115,61.308,86.468,41.585,34.748,56.546,73.325,43.226,111.564-24.114,69.255-141.035,127.538-221.777,129.614Q581.339,555.284,579.385,555.284Zm-14.4-446.77c-1.769,0-3.555.048-5.373.145-108.8,5.824-241.226,87.514-257.329,195.426-8.092,54.149,22.3,101.767,49.21,132.187,58.67,66.343,160.2,116.857,231.654,115.039h0c79.5-2.043,194.54-59.136,218.157-126.975,12.918-37.1-1.223-73.18-42.035-107.253-23.729-19.819-42.406-52.717-62.193-87.562C663.262,170.015,628.338,108.514,564.987,108.514Z" transform="translate(-297.036 -104.598)"/></g><g transform="translate(513.112 50.944)"><path class="a" d="M548.941,534.893c-60.809,0-133.62-35.939-186.369-92.163-44.609-47.553-66.97-100.4-63-148.789,8.687-105.274,126.316-184.052,226.458-188.894,68.692-3.346,105.579,66.311,138.252,127.747,14.447,27.155,28.088,52.8,43.242,70.107,44.722,51.044,38.738,96.506,25.852,125.656-26.19,59.185-104.293,104.888-181.656,106.3C550.808,534.877,549.874,534.893,548.941,534.893ZM530.65,108.859c-1.464,0-2.927.032-4.424.113C427.709,113.734,311.995,191,303.5,294.263c-3.844,46.588,18.725,99.724,61.936,145.781,52.83,56.321,125.72,92.115,186.223,90.908,74.692-1.384,152.924-47.039,178.116-103.987,17.84-40.3,9.122-82.3-25.192-121.473-15.46-17.664-29.214-43.5-43.757-70.847C629.409,175.6,593.9,108.859,530.65,108.859Z" transform="translate(-299.124 -104.931)"/></g><g transform="translate(545.945 58.633)"><path class="a" d="M520.578,506.737c-49.58,0-108.282-28.957-153.229-75.577-43.837-45.478-67.919-99.933-66.086-149.384,3.684-98.919,104.47-172.292,192.627-176.282,68.419-2.96,104.711,71.764,133.909,131.9,9.427,19.433,18.339,37.788,27.364,51.607,28.249,43.242,30.806,91.117,7.175,134.794-26.817,49.6-83.782,82.929-141.711,82.945h-.048ZM497.9,109.339c-1.271,0-2.542.016-3.845.08-86.436,3.893-185.258,75.706-188.862,172.5-1.8,48.39,21.894,101.8,64.991,146.521,44.224,45.88,101.848,74.37,150.4,74.37h.048c56.531-.016,112.111-32.528,138.269-80.9,22.908-42.341,20.414-88.784-7.014-130.772-9.17-14.012-18.13-32.48-27.622-52.042C596.139,181.167,561.278,109.339,497.9,109.339Z" transform="translate(-301.165 -105.409)"/></g><g transform="translate(578.373 69.299)"><path class="a" d="M492.08,465.558c-1.191,0-2.365-.032-3.571-.064-42.438-1.223-90.2-25.9-127.731-66.038-37.628-40.218-59.136-89.879-57.511-132.847,1.593-42.293,23.809-88.238,57.978-119.881,29.729-27.541,65.8-42.019,101.686-40.555,69.078,2.686,100.9,75.85,126.493,134.633,4.858,11.2,9.475,21.782,14.092,31.321,20.737,42.9,17.133,95.042-9.427,136.064C570.392,444.789,533.36,465.542,492.08,465.558Zm-33.911-355.54c-33.268,0-66.568,13.947-94.254,39.59-33.445,30.968-55.179,75.867-56.723,117.146-1.593,41.955,19.514,90.554,56.45,130.032,36.84,39.381,83.572,63.592,124.98,64.783,41.312,1.206,78.554-19.047,102.169-55.516,25.82-39.88,29.343-90.538,9.186-132.22h0c-4.649-9.6-9.266-20.221-14.157-31.466C560.675,184.6,529.386,112.688,462.785,110.1,461.241,110.05,459.713,110.018,458.169,110.018Z" transform="translate(-303.18 -106.072)"/></g><g transform="translate(610.949 84.522)"><path class="a" d="M453.936,412.414c-30.292,0-62.466-15.122-90.763-42.711-35.359-34.475-57.575-81.336-57.962-122.31-.369-36.582,18.162-78.424,47.184-106.625,16.617-16.135,43.966-35.134,80.146-33.67,65.828,2.574,95.348,81.594,114.877,133.877,1.3,3.491,2.558,6.885,3.8,10.151,13.851,36.5,8.156,80.21-14.816,114.057-20.045,29.52-49.6,46.733-81.063,47.216l-.016-1.963.016,1.963ZM428.744,110.959c-32.946,0-58.107,17.567-73.615,32.625-28.281,27.477-46.347,68.209-45.993,103.778.386,39.96,22.135,85.76,56.787,119.527,27.959,27.284,59.522,42.116,89.363,41.585h0c30.164-.467,58.541-17.052,77.862-45.494,22.281-32.8,27.8-75.126,14.4-110.47-1.239-3.266-2.509-6.66-3.813-10.151C524.574,191.04,495.6,113.5,432.379,111.023,431.157,110.975,429.95,110.959,428.744,110.959Z" transform="translate(-305.206 -107.018)"/></g><g transform="translate(643.596 106.818)"><path class="a" d="M422.771,348.182c-.5,0-.981,0-1.479-.016-62.338-1.206-111.58-67.646-113.977-126.235-1.223-29.954,11.68-62.643,33.687-85.326,17.679-18.211,39.348-28.2,61.114-28.2h.789c60.5.676,87.755,88.736,94.672,115.714,8.478,33.123,1.062,70.815-18.934,96.056C464.131,338.529,444.827,348.182,422.771,348.182ZM402.115,112.329c-20.688,0-41.359,9.572-58.3,27.01-21.283,21.927-33.766,53.521-32.576,82.43,2.268,55.694,50.867,121.329,110.116,122.471,26.93.5,44.417-14.108,54.214-26.5,19.256-24.308,26.4-60.681,18.21-92.645-6.741-26.3-33.22-112.127-90.908-112.77Z" transform="translate(-307.235 -108.404)"/></g><g transform="translate(676.662 135.539)"><path class="a" d="M387.465,276.009l-.869-.016c-39.51-.547-74.853-39.446-77.185-84.924-2.2-43.274,26-78.778,64.2-80.805,39.928-2.156,61.468,42.727,67.791,81.771,4.2,25.981-1.351,50.835-14.88,66.488C416.647,269.977,403.15,276.009,387.465,276.009ZM376.3,114.109c-.82,0-1.641.032-2.477.081-36.019,1.914-62.579,35.585-60.488,76.687,2.22,43.483,35.81,80.661,73.308,81.191h0l.821.016c14.51,0,26.978-5.566,36.1-16.135,12.757-14.784,17.985-38.448,13.963-63.286C431.592,156.048,412.03,114.109,376.3,114.109Z" transform="translate(-309.29 -110.189)"/></g><g transform="translate(710.342 170.153)"><path class="a" d="M351.005,198.568c-20.238,0-37.917-19.176-39.51-42.936-.82-12.194,2.912-23.905,10.232-32.11a32.617,32.617,0,0,1,22.859-11.148c.451-.016.885-.032,1.319-.032,20.044,0,33.348,22.071,35.778,43.355h0c1.48,13.127-1.689,25.224-8.719,33.171a28.45,28.45,0,0,1-21.621,9.7Zm-5.1-82.3c-.386,0-.756,0-1.126.032a28.685,28.685,0,0,0-20.125,9.829c-6.628,7.432-9.99,18.082-9.25,29.246,1.464,21.83,17.632,39.285,35.89,39.269a24.653,24.653,0,0,0,18.725-8.365c6.291-7.126,9.121-18.114,7.754-30.131h0C375.554,136.584,363.682,116.266,345.906,116.266Z" transform="translate(-311.384 -112.341)"/></g></g></g></svg>