<svg xmlns="http://www.w3.org/2000/svg" width="549.867" height="163.924" viewBox="0 0 549.867 163.924"><defs><style>.a,.b{fill:#f6b91b;}.a{font-size:35px;font-family:RoyalRumble, Royal Rumble;}.c,.d{fill:none;stroke:#f6b91b;}.c{stroke-linejoin:round;stroke-width:4px;}.d{stroke-miterlimit:10;stroke-width:2px;}</style></defs><g transform="translate(-1153.627 -1354.5)"><text class="a" transform="translate(1629 1397)"><tspan x="0" y="0">2022</tspan></text><g transform="translate(1179.824 1439.84)"><path class="b" d="M705.433,2173.153H646.255A1.258,1.258,0,0,0,645,2174.41v49.564a1.255,1.255,0,0,0,1.257,1.255h59.178a1.255,1.255,0,0,0,1.257-1.255V2174.41A1.258,1.258,0,0,0,705.433,2173.153Zm-3.724,47.253a1.257,1.257,0,0,1-1.091.632H651.07a1.257,1.257,0,0,1-1.084-1.894l24.775-42.025a1.26,1.26,0,0,1,2.166,0l24.77,42.025A1.255,1.255,0,0,1,701.709,2220.406Z" transform="translate(-644.998 -2173.153)"/><g transform="translate(27.861 18.451)"><path class="b" d="M667.547,2208.022a.569.569,0,0,1-.645.644h-4.684a.568.568,0,0,1-.642-.644v-4.682a.569.569,0,0,1,.642-.646H666.9a.571.571,0,0,1,.645.646Zm-.645-8.454a.64.64,0,0,1-.185.462.631.631,0,0,1-.459.181h-3.393a.624.624,0,0,1-.459-.181.637.637,0,0,1-.188-.462l-.612-14.8a.54.54,0,0,1,.153-.459.63.63,0,0,1,.459-.183H666.9a.627.627,0,0,1,.459.183.526.526,0,0,1,.153.459Z" transform="translate(-661.575 -2184.131)"/></g></g><g transform="translate(1231.539 1378.176)"><path class="b" d="M686.565,2138.023v19.127h-2.276v-13.51h-.1l-1.768,13.51h-2.493l-1.768-13.605h-.1v13.605h-2.3v-19.127h3.9l1.452,12.858h.1l1.477-12.858Z" transform="translate(-675.768 -2137.782)"/><path class="b" d="M688.879,2157.247v-4.261h-2.346v4.261H683.82V2141.9a11.329,11.329,0,0,1,.156-2.118,2.26,2.26,0,0,1,.595-1.212,2.211,2.211,0,0,1,1.2-.556,11.631,11.631,0,0,1,1.95-.133,10.685,10.685,0,0,1,1.95.145,2.287,2.287,0,0,1,1.208.582,2.351,2.351,0,0,1,.619,1.222,10.239,10.239,0,0,1,.17,2.071v15.348Zm-1.185-16.875a2.487,2.487,0,0,0-.595.061.705.705,0,0,0-.361.219.856.856,0,0,0-.17.46,6.657,6.657,0,0,0-.035.787v8.812h2.346V2141.9a5.465,5.465,0,0,0-.047-.787,1.042,1.042,0,0,0-.17-.46.658.658,0,0,0-.365-.219A2.625,2.625,0,0,0,687.694,2140.373Z" transform="translate(-670.287 -2137.88)"/><path class="b" d="M695.489,2157.15l-2.881-11.935h-.1v11.935h-2.4v-19.127h3.074l2.761,12.276h.1v-12.276h2.422v19.127Z" transform="translate(-666.003 -2137.782)"/><path class="b" d="M700.686,2157.394a11.778,11.778,0,0,1-1.973-.135,2.217,2.217,0,0,1-1.2-.556,2.323,2.323,0,0,1-.6-1.224,10.558,10.558,0,0,1-.17-2.129v-15.327h2.783v15.327a5.117,5.117,0,0,0,.051.81.91.91,0,0,0,.18.46.672.672,0,0,0,.365.217,2.42,2.42,0,0,0,.617.062,2.307,2.307,0,0,0,.593-.062.618.618,0,0,0,.351-.217,1.013,1.013,0,0,0,.168-.46,5.12,5.12,0,0,0,.05-.81v-15.327h2.711v15.327a10.694,10.694,0,0,1-.17,2.129,2.323,2.323,0,0,1-.605,1.224,2.222,2.222,0,0,1-1.2.556A11.609,11.609,0,0,1,700.686,2157.394Z" transform="translate(-661.492 -2137.782)"/><path class="b" d="M703.063,2157.15v-19.127h5.57v2.3h-2.785v2.83h2.688v2.3h-2.687v11.693Z" transform="translate(-657.188 -2137.782)"/><path class="b" d="M712.615,2157.247v-4.261h-2.346v4.261h-2.711V2141.9a11.362,11.362,0,0,1,.155-2.118,2.26,2.26,0,0,1,.6-1.212,2.216,2.216,0,0,1,1.2-.556,11.6,11.6,0,0,1,1.948-.133,10.671,10.671,0,0,1,1.95.145,2.3,2.3,0,0,1,1.21.582,2.336,2.336,0,0,1,.617,1.222,10.212,10.212,0,0,1,.171,2.071v15.348Zm-1.185-16.875a2.482,2.482,0,0,0-.593.061.71.71,0,0,0-.363.219.858.858,0,0,0-.17.46,7.049,7.049,0,0,0-.035.787v8.812h2.346V2141.9a5.241,5.241,0,0,0-.047-.787,1.04,1.04,0,0,0-.17-.46.652.652,0,0,0-.363-.219A2.641,2.641,0,0,0,711.43,2140.373Z" transform="translate(-654.128 -2137.88)"/><path class="b" d="M718.869,2146.233V2141.9a6.6,6.6,0,0,0-.037-.787.857.857,0,0,0-.168-.46.716.716,0,0,0-.365-.219,2.466,2.466,0,0,0-.592-.061,2.612,2.612,0,0,0-.618.061.667.667,0,0,0-.361.23.935.935,0,0,0-.171.473,6.849,6.849,0,0,0-.035.763v11.548a7.327,7.327,0,0,0,.035.81.928.928,0,0,0,.171.472.638.638,0,0,0,.361.23,2.513,2.513,0,0,0,.618.061,2.37,2.37,0,0,0,.592-.061.653.653,0,0,0,.365-.23.926.926,0,0,0,.168-.472,6.837,6.837,0,0,0,.037-.81v-4.431h2.688v4.431a11.517,11.517,0,0,1-.158,2.129,2.269,2.269,0,0,1-.593,1.224,2.212,2.212,0,0,1-1.187.557,11.239,11.239,0,0,1-1.911.134,12.257,12.257,0,0,1-2.01-.134,2.23,2.23,0,0,1-1.21-.557,2.267,2.267,0,0,1-.593-1.224,11.506,11.506,0,0,1-.158-2.129V2141.9a10.422,10.422,0,0,1,.17-2.106,2.043,2.043,0,0,1,1.84-1.78,11.84,11.84,0,0,1,1.961-.133,11.2,11.2,0,0,1,1.911.133,2.209,2.209,0,0,1,1.187.556,2.26,2.26,0,0,1,.593,1.212,11.318,11.318,0,0,1,.158,2.118v4.334Z" transform="translate(-649.923 -2137.88)"/><path class="b" d="M726.37,2140.348H724.29v16.8H721.5v-16.8H719.4v-2.325h6.973Z" transform="translate(-646.069 -2137.782)"/><path class="b" d="M728.687,2157.394a11.778,11.778,0,0,1-1.973-.135,2.217,2.217,0,0,1-1.2-.556,2.324,2.324,0,0,1-.605-1.224,10.568,10.568,0,0,1-.17-2.129v-15.327h2.783v15.327a5.135,5.135,0,0,0,.05.81.911.911,0,0,0,.18.46.672.672,0,0,0,.365.217,2.42,2.42,0,0,0,.617.062,2.309,2.309,0,0,0,.593-.062.618.618,0,0,0,.351-.217,1.035,1.035,0,0,0,.168-.46,5.135,5.135,0,0,0,.05-.81v-15.327h2.711v15.327a10.7,10.7,0,0,1-.17,2.129,2.324,2.324,0,0,1-.605,1.224,2.222,2.222,0,0,1-1.2.556A11.613,11.613,0,0,1,728.687,2157.394Z" transform="translate(-642.431 -2137.782)"/><path class="b" d="M733.85,2157.15h-2.785v-19.127h3.972a12.218,12.218,0,0,1,2.008.136,2.291,2.291,0,0,1,1.224.557,2.2,2.2,0,0,1,.6,1.187,10.406,10.406,0,0,1,.158,2.02v2.009a3.97,3.97,0,0,1-.158,1.224,2.267,2.267,0,0,1-.412.763,1.607,1.607,0,0,1-.556.423,3.9,3.9,0,0,1-.593.205v.1a3.457,3.457,0,0,1,.7.256,1.457,1.457,0,0,1,.545.484,2.372,2.372,0,0,1,.351.835,5.8,5.8,0,0,1,.123,1.308v7.625h-2.808v-8.062a2.13,2.13,0,0,0-.195-1.076c-.129-.2-.435-.3-.919-.3H733.85Zm0-11.644h1.259a1.136,1.136,0,0,0,.9-.268,1.569,1.569,0,0,0,.218-.968v-2.348a6.112,6.112,0,0,0-.037-.739.971.971,0,0,0-.158-.447.612.612,0,0,0-.361-.23,2.8,2.8,0,0,0-.63-.06H733.85Z" transform="translate(-638.127 -2137.782)"/><path class="b" d="M742.889,2157.15h-5.472v-19.127h5.447v2.3H740.2v2.783h2.592v2.2H740.2v9.444h2.689Z" transform="translate(-633.803 -2137.782)"/><path class="b" d="M750.049,2153.227a10.651,10.651,0,0,1-.158,2.059,2.12,2.12,0,0,1-.6,1.187,2.352,2.352,0,0,1-1.222.544,12.237,12.237,0,0,1-2.01.133h-3.97v-19.127h3.97a12.245,12.245,0,0,1,2.01.136,2.344,2.344,0,0,1,1.222.543,2.12,2.12,0,0,1,.6,1.175,10.467,10.467,0,0,1,.158,2.045Zm-2.809-11.3a4.576,4.576,0,0,0-.049-.751,1.107,1.107,0,0,0-.17-.458.556.556,0,0,0-.351-.219,3.143,3.143,0,0,0-.617-.048h-1.187v14.31h1.187a2.407,2.407,0,0,0,.617-.062.625.625,0,0,0,.351-.217,1.039,1.039,0,0,0,.17-.46,4.988,4.988,0,0,0,.049-.788Z" transform="translate(-630.626 -2137.782)"/><path class="b" d="M757.564,2146.062a2.993,2.993,0,0,1,.7.268,1.49,1.49,0,0,1,.545.519,2.678,2.678,0,0,1,.351.909,6.881,6.881,0,0,1,.123,1.427v4.042a10.791,10.791,0,0,1-.158,2.059,2.131,2.131,0,0,1-.607,1.187,2.34,2.34,0,0,1-1.222.544,12.212,12.212,0,0,1-2.009.133h-3.971v-19.127h3.971a12.22,12.22,0,0,1,2.009.136,2.331,2.331,0,0,1,1.222.543,2.132,2.132,0,0,1,.607,1.175,10.6,10.6,0,0,1,.158,2.045v1.427a3.576,3.576,0,0,1-.183,1.237,2.508,2.508,0,0,1-.435.774,1.74,1.74,0,0,1-.558.434,1.616,1.616,0,0,1-.543.169Zm-3.462-1.113h1.259a1.137,1.137,0,0,0,.9-.267,1.57,1.57,0,0,0,.219-.968v-1.792a6.121,6.121,0,0,0-.037-.726.993.993,0,0,0-.158-.46.612.612,0,0,0-.361-.23,2.8,2.8,0,0,0-.63-.06H754.1Zm0,9.806h1.187a2.424,2.424,0,0,0,.617-.062.631.631,0,0,0,.351-.217,1.022,1.022,0,0,0,.168-.46,4.973,4.973,0,0,0,.05-.788v-4.671a2.2,2.2,0,0,0-.195-1.1c-.129-.2-.435-.3-.919-.3H754.1Z" transform="translate(-624.341 -2137.782)"/><path class="b" d="M765.323,2138.023l-2.857,12.374v6.753h-2.785V2150.4l-2.76-12.374h2.76l1.382,8.644h.1l1.454-8.644Z" transform="translate(-620.526 -2137.782)"/><path class="b" d="M773.917,2153.227a10.824,10.824,0,0,1-.156,2.059,2.134,2.134,0,0,1-.607,1.187,2.346,2.346,0,0,1-1.222.544,12.218,12.218,0,0,1-2.01.133h-3.97v-19.127h3.97a12.226,12.226,0,0,1,2.01.136,2.337,2.337,0,0,1,1.222.543,2.134,2.134,0,0,1,.607,1.175,10.637,10.637,0,0,1,.156,2.045Zm-2.808-11.3a4.589,4.589,0,0,0-.049-.751,1.111,1.111,0,0,0-.168-.458.566.566,0,0,0-.351-.219,3.173,3.173,0,0,0-.618-.048h-1.187v14.31h1.187a2.43,2.43,0,0,0,.618-.062.637.637,0,0,0,.351-.217,1.042,1.042,0,0,0,.168-.46,5,5,0,0,0,.049-.788Z" transform="translate(-614.379 -2137.782)"/><path class="b" d="M777.248,2157.247v-4.261H774.9v4.261h-2.713V2141.9a11.33,11.33,0,0,1,.156-2.118,2.26,2.26,0,0,1,.595-1.212,2.218,2.218,0,0,1,1.2-.556,11.6,11.6,0,0,1,1.948-.133,10.682,10.682,0,0,1,1.95.145,2.3,2.3,0,0,1,1.21.582,2.361,2.361,0,0,1,.617,1.222,10.228,10.228,0,0,1,.17,2.071v15.348Zm-1.185-16.875a2.47,2.47,0,0,0-.593.061.7.7,0,0,0-.363.219.858.858,0,0,0-.17.46,7.049,7.049,0,0,0-.035.787v8.812h2.346V2141.9a5.465,5.465,0,0,0-.047-.787,1.042,1.042,0,0,0-.17-.46.658.658,0,0,0-.365-.219A2.614,2.614,0,0,0,776.063,2140.373Z" transform="translate(-610.133 -2137.88)"/><path class="b" d="M781.268,2157.15h-2.785v-19.127h3.972a12.22,12.22,0,0,1,2.008.136,2.278,2.278,0,0,1,1.222.557,2.192,2.192,0,0,1,.607,1.187,10.414,10.414,0,0,1,.158,2.02v2.009a3.973,3.973,0,0,1-.158,1.224,2.265,2.265,0,0,1-.412.763,1.6,1.6,0,0,1-.556.423,3.9,3.9,0,0,1-.593.205v.1a3.458,3.458,0,0,1,.7.256,1.454,1.454,0,0,1,.544.484,2.4,2.4,0,0,1,.351.835,5.812,5.812,0,0,1,.123,1.308v7.625h-2.809v-8.062a2.13,2.13,0,0,0-.195-1.076c-.129-.2-.435-.3-.919-.3h-1.259Zm0-11.644h1.259a1.135,1.135,0,0,0,.9-.268,1.568,1.568,0,0,0,.219-.968v-2.348a6.112,6.112,0,0,0-.037-.739.971.971,0,0,0-.158-.447.612.612,0,0,0-.361-.23,2.8,2.8,0,0,0-.63-.06h-1.187Z" transform="translate(-605.849 -2137.782)"/><path class="b" d="M788.724,2157.394a11.776,11.776,0,0,1-1.973-.135,2.216,2.216,0,0,1-1.2-.556,2.322,2.322,0,0,1-.605-1.224,10.558,10.558,0,0,1-.17-2.129v-15.327h2.785v15.327a5.151,5.151,0,0,0,.049.81.91.91,0,0,0,.18.46.673.673,0,0,0,.365.217,2.419,2.419,0,0,0,.617.062,2.309,2.309,0,0,0,.593-.062.612.612,0,0,0,.351-.217,1.015,1.015,0,0,0,.168-.46,5.152,5.152,0,0,0,.05-.81v-15.327h2.711v15.327a10.685,10.685,0,0,1-.17,2.129,2.324,2.324,0,0,1-.6,1.224,2.223,2.223,0,0,1-1.2.556A11.612,11.612,0,0,1,788.724,2157.394Z" transform="translate(-601.564 -2137.782)"/><path class="b" d="M801.9,2138.023v19.127h-2.276v-13.51h-.1l-1.768,13.51h-2.493l-1.768-13.605h-.1v13.605h-2.3v-19.127H795l1.452,12.858h.1l1.477-12.858Z" transform="translate(-597.259 -2137.782)"/><path class="b" d="M807.09,2153.447a11.369,11.369,0,0,1-.158,2.129,2.208,2.208,0,0,1-.605,1.224,2.3,2.3,0,0,1-1.222.557,15.1,15.1,0,0,1-4.019,0,1.991,1.991,0,0,1-1.8-1.78,11.357,11.357,0,0,1-.158-2.129V2141.9a11.161,11.161,0,0,1,.158-2.118,1.992,1.992,0,0,1,1.8-1.768,15.21,15.21,0,0,1,4.019,0,2.3,2.3,0,0,1,1.222.556,2.2,2.2,0,0,1,.605,1.212,11.173,11.173,0,0,1,.158,2.118Zm-2.808-11.548a2.287,2.287,0,0,0-.219-1.247c-.145-.185-.467-.279-.968-.279a2.608,2.608,0,0,0-.617.061.672.672,0,0,0-.363.23.935.935,0,0,0-.17.473,6.8,6.8,0,0,0-.037.763v11.548a7.262,7.262,0,0,0,.037.81.928.928,0,0,0,.17.472.643.643,0,0,0,.363.23,3.172,3.172,0,0,0,1.234,0,.624.624,0,0,0,.363-.242,1.017,1.017,0,0,0,.172-.483,7.5,7.5,0,0,0,.035-.787Z" transform="translate(-591.797 -2137.88)"/></g><path class="b" d="M663.373,2131.069H643.688a1.026,1.026,0,0,0-1.025,1.025v35.485a1.025,1.025,0,0,0,1.025,1.025h19.684a1.025,1.025,0,0,0,1.025-1.025v-35.485A1.026,1.026,0,0,0,663.373,2131.069Zm-12.777,6.093a.634.634,0,0,1,.479-.2h4.916a.633.633,0,0,1,.477.2.54.54,0,0,1,.161.479l-.639,15.523a.662.662,0,0,1-.2.482.65.65,0,0,1-.481.193h-3.562a.649.649,0,0,1-.479-.193.66.66,0,0,1-.2-.482l-.642-15.523A.541.541,0,0,1,650.6,2137.162Zm6.069,24.869a.6.6,0,0,1-.674.677h-4.916a.6.6,0,0,1-.676-.677v-4.912a.6.6,0,0,1,.676-.674h4.916a.6.6,0,0,1,.674.674Z" transform="translate(533.236 -764.341)"/><g transform="translate(1585.704 1439.84)"><g transform="translate(7.925 7.34)"><g transform="translate(0 0.503)"><path class="b" d="M896.942,2178.086l6.131,23.7,4.95-23.7h2.958l-7.316,34.238h-4.212l-7.98-34.238Z" transform="translate(-891.025 -2177.638)"/><path class="b" d="M903.846,2212.952h-4.212a.45.45,0,0,1-.437-.346l-7.98-34.238a.45.45,0,0,1,.437-.55h5.469a.447.447,0,0,1,.432.336L903.21,2200l4.558-21.822a.449.449,0,0,1,.437-.356h2.958a.447.447,0,0,1,.437.543l-7.318,34.238A.443.443,0,0,1,903.846,2212.952Zm-3.857-.9h3.5l7.123-33.342h-2.039l-4.874,23.34a.449.449,0,0,1-.874.02l-6.047-23.36h-4.555Z" transform="translate(-891.206 -2177.819)"/></g><g transform="translate(25.938 0.503)"><path class="b" d="M912.669,2178.086v22.539h8.205v-22.539h5.689v34.238h-5.689v-9.957h-8.205v9.957H906.98l-.076-34.238Z" transform="translate(-906.459 -2177.638)"/><path class="b" d="M926.744,2212.952h-5.689a.447.447,0,0,1-.447-.447V2203H913.3v9.509a.445.445,0,0,1-.447.447H907.16a.451.451,0,0,1-.449-.447l-.072-34.238a.448.448,0,0,1,.445-.449h5.765a.447.447,0,0,1,.447.449v22.091h7.311v-22.091a.448.448,0,0,1,.447-.449h5.689a.449.449,0,0,1,.449.449v34.238A.447.447,0,0,1,926.744,2212.952Zm-5.244-.9h4.8v-33.342h-4.8v22.092a.445.445,0,0,1-.445.448h-8.205a.447.447,0,0,1-.447-.448v-22.092h-4.867l.072,33.342h4.8v-9.508a.447.447,0,0,1,.447-.447h8.205a.444.444,0,0,1,.445.447Z" transform="translate(-906.639 -2177.819)"/></g><g transform="translate(51.727)"><path class="b" d="M936.216,2183.013c0-2.613-1.108-3.577-4.284-3.577-3.034,0-4.14,1.1-4.14,3.577v4.487c0,1.605.368,2.294.662,2.523,2.439,1.924,4.14,3.3,7.318,5.683,6.723,4.951,6.059,4.721,6.059,11.734,0,4.4-4.14,5.5-9.755,5.5s-9.753-1.787-9.753-5.272v-5.36h5.541v5.269c0,3.256,1.7,3.667,4.212,3.667,2.808,0,4.21-.459,4.21-3.667v-5.314c0-2.064-9.161-7.518-11.6-9.765-1.182-1.1-2.435-1.42-2.435-6.049v-3.482c0-2.566,3.175-5.18,9.753-5.18,6.279,0,9.827,1.465,9.827,5.227v3.666h-5.615Z" transform="translate(-921.801 -2177.339)"/><path class="b" d="M932.259,2213.568c-6.291,0-10.2-2.19-10.2-5.72v-5.359a.449.449,0,0,1,.447-.449h5.541a.449.449,0,0,1,.449.449v5.269c0,2.754,1.16,3.22,3.763,3.22,2.825,0,3.765-.466,3.765-3.22v-5.314c0-1.143-4.4-4.259-7.311-6.319a50.76,50.76,0,0,1-4.146-3.116c-.153-.145-.311-.274-.462-.4-1.089-.908-2.121-1.765-2.121-5.977v-3.482c0-2.709,3.2-5.627,10.2-5.627,6.913,0,10.274,1.855,10.274,5.674v3.628l0,.037a.447.447,0,0,1-.447.447H936.4a.447.447,0,0,1-.447-.447v-3.665c0-2.37-.933-3.13-3.837-3.13-3.076,0-3.694,1.2-3.694,3.13v4.487c0,1.74.444,2.131.493,2.168l1.294,1.024c1.839,1.457,3.43,2.716,6.017,4.655,6.126,4.511,6.3,4.8,6.247,10.375,0,.521-.01,1.091-.01,1.718C942.461,2212.892,937.009,2213.568,932.259,2213.568Zm-9.3-10.632v4.912c0,3.558,4.807,4.824,9.3,4.824,6.525,0,9.306-1.511,9.306-5.051,0-.63.007-1.2.013-1.726.049-5.178.049-5.276-5.889-9.647-2.6-1.95-4.2-3.212-6.041-4.674l-1.287-1.019c-.377-.293-.837-1.033-.837-2.874v-4.487c0-2.785,1.415-4.025,4.59-4.025,3.4,0,4.73,1.129,4.73,4.025v3.217h4.721v-3.217c0-3.261-2.978-4.778-9.378-4.778s-9.306,2.452-9.306,4.731v3.482c0,3.793.83,4.486,1.8,5.289.168.14.334.279.5.434.79.728,2.38,1.851,4.057,3.041,4.645,3.288,7.688,5.557,7.688,7.051v5.314c0,3.8-2.111,4.114-4.661,4.114-2.358,0-4.659-.316-4.659-4.114v-4.822Z" transform="translate(-921.983 -2177.52)"/></g></g><path class="b" d="M975.723,2225.179H887.832a1.341,1.341,0,0,1-1.341-1.341V2174.5a1.343,1.343,0,0,1,1.341-1.342h87.891a1.344,1.344,0,0,1,1.343,1.342v49.343A1.343,1.343,0,0,1,975.723,2225.179Zm-86.548-2.684H974.38v-46.656H889.175Z" transform="translate(-886.491 -2173.153)"/></g><g transform="translate(1478.174 1439.84)"><path class="b" d="M911.746,2225.179H823.857a1.344,1.344,0,0,1-1.345-1.341V2174.5a1.346,1.346,0,0,1,1.345-1.342h87.889a1.344,1.344,0,0,1,1.343,1.342v49.343A1.343,1.343,0,0,1,911.746,2225.179ZM825.2,2222.5h85.2v-46.656H825.2Z" transform="translate(-822.512 -2173.153)"/><g transform="translate(10.637 8.388)"><path class="b" d="M828.841,2178.144h18.836v1.8h-6.726v32.75H835.5v-32.75h-6.657Z" transform="translate(-828.841 -2178.144)"/><path class="b" d="M861.694,2178.144V2212.7H859L845.548,2187.9V2212.7h-2.76v-34.552h2.76l13.384,24.562v-24.562Z" transform="translate(-819.347 -2178.144)"/><path class="b" d="M863.9,2195.721l-6.869-17.577h5.382l5.525,14.061,5.309-14.061h2.763l-6.8,17.252,6.869,17.3h-5.452l-5.454-13.831-5.382,13.831H857.1Z" transform="translate(-809.654 -2178.144)"/></g></g><g transform="translate(1370.647 1439.84)"><path class="b" d="M847.767,2225.179h-87.89a1.343,1.343,0,0,1-1.343-1.341V2174.5a1.344,1.344,0,0,1,1.343-1.342h87.89a1.344,1.344,0,0,1,1.343,1.342v49.343A1.343,1.343,0,0,1,847.767,2225.179Zm-86.547-2.684h85.2v-46.656h-85.2Z" transform="translate(-758.535 -2173.153)"/><g transform="translate(10.849 8.247)"><path class="b" d="M764.99,2178.06h5.382l5.734,22.99,5.809-22.9h5.452v34.693h-5.452v-23.683l-4.392,17.345h-5.452l-4.319-17.345V2212.8H764.99Z" transform="translate(-764.99 -2178.06)"/><path class="b" d="M799.453,2190.606c-.072,2.5-2.551,3.978-7.437,4.487,1.629,3.282,8.215,17.622,8.215,17.622h-5.382l-7.577-17.622H786.7v17.622h-5.45l.071-34.6h9.629c3.471,0,8.5.926,8.5,4.857Zm-12.677,2.682h4.249a2.755,2.755,0,0,0,3.046-2.682s.071-2.547.071-5.414c0-3.144.425-5.457-3.046-5.457h-4.319Z" transform="translate(-753.919 -2178.023)"/><path class="b" d="M801.713,2193.863l-.85,1.154v17.762H795.41v-34.69h5.452V2191.5l10.41-13.412h2.761l-8.709,11.194,8.993,23.5h-5.452Z" transform="translate(-744.283 -2178.04)"/></g></g><g transform="translate(1263.118 1439.84)"><path class="b" d="M783.789,2225.179H695.9a1.342,1.342,0,0,1-1.343-1.341V2174.5a1.343,1.343,0,0,1,1.343-1.342h87.889a1.344,1.344,0,0,1,1.343,1.342v49.343A1.343,1.343,0,0,1,783.789,2225.179Zm-86.547-2.684h85.205v-46.656H697.243Z" transform="translate(-694.557 -2173.153)"/><g transform="translate(10.636 8.34)"><path class="b" d="M700.885,2178.144h18.836v1.8h-6.726v32.75h-5.452v-32.75h-6.657Z" transform="translate(-700.885 -2178.095)"/><path class="b" d="M733.116,2190.606c-.071,2.5-2.55,3.978-7.437,4.487,1.63,3.282,8.215,17.622,8.215,17.622H728.51l-7.575-17.622h-.566v17.622h-5.454l.071-34.6h9.632c3.469,0,8.5.926,8.5,4.857Zm-12.676,2.682h4.249a2.754,2.754,0,0,0,3.044-2.682s.071-2.547.071-5.414c0-3.144.425-5.457-3.044-5.457H720.44Z" transform="translate(-691.335 -2178.115)"/><path class="b" d="M729.03,2212.809v-34.693h10.551c3.471,0,8.284,1.249,8.284,4.765V2206.8c0,5.6-6.869,6.012-9.417,6.012Zm5.452-33.073v31.454h4.037c2.266,0,4.037-1.2,4.037-3.516v-1.988c0-3.194.071-17.9.071-20.493,0-3.144.141-5.457-3.4-5.457Z" transform="translate(-681.726 -2178.115)"/></g></g><rect class="c" width="545.867" height="159.924" transform="translate(1155.627 1356.5)"/><line class="d" x2="546.373" transform="translate(1155.627 1415.522)"/><line class="d" y1="60.522" transform="translate(1215.522 1355)"/></g></svg>