<svg xmlns="http://www.w3.org/2000/svg" width="1920.223" height="147.922" viewBox="0 0 1920.223 147.922"><defs><style>.a{fill:none;stroke:#f6b91b;stroke-miterlimit:10;stroke-width:2px;}</style></defs><g transform="translate(-1044.866 -1186.861)"><line class="a" x2="1920" transform="translate(1044.947 1187.861)"/><path class="a" d="M1044.947,1197.791l531.824-4.874,221.224,5.03,137.6-3.142,732.916,3.041,76.174-3.606,220.259,3.5" transform="translate(0 6.124)"/><path class="a" d="M1044.947,1207.723l532.624-9.751,220.778,10.062,137.356-6.284,733.927,6.079,75.058-7.211,220.257,7" transform="translate(0 12.249)"/><path class="a" d="M1044.947,1217.655l533.419-14.627,220.336,15.094,137.109-9.427,734.941,9.116,73.94-10.815,220.254,10.506" transform="translate(0 18.374)"/><path class="a" d="M1044.947,1227.585l534.219-19.5,219.89,20.123,136.863-12.567,735.955,12.154,72.822-14.422,220.251,14.009" transform="translate(0 24.498)"/><path class="a" d="M1044.947,1237.517l535.017-24.378,219.446,25.155,136.613-15.711,736.972,15.195,71.706-18.026,220.246,17.51" transform="translate(0 30.623)"/><path class="a" d="M1044.947,1247.447l535.814-29.252,219,30.185,136.366-18.851,737.986,18.234,70.588-21.633,220.243,21.015" transform="translate(0 36.747)"/><path class="a" d="M1044.947,1257.379l536.614-34.128,218.558,35.217,136.117-21.993,739,21.272,69.472-25.239,220.241,24.518" transform="translate(0 42.872)"/><path class="a" d="M1044.947,1267.309l537.412-39,218.114,40.246,135.87-25.135,740.012,24.311,68.355-28.842,220.237,28.019" transform="translate(0 48.997)"/><path class="a" d="M1044.947,1277.241l538.209-43.879,217.67,45.278,135.624-28.278,741.025,27.349,67.236-32.448,220.235,31.522" transform="translate(0 55.121)"/></g></svg>