<svg xmlns="http://www.w3.org/2000/svg" width="42.793" height="33.675" viewBox="0 0 42.793 33.675"><defs><style>.a{fill:#00e88a;}</style></defs><g transform="translate(-109 -3463.232)"><path class="a" d="M1482.191,825h35.068a21.554,21.554,0,0,0-3.082-3.514h-28.9A21.545,21.545,0,0,0,1482.191,825Z" transform="translate(-1369.329 2647.361)"/><path class="a" d="M1481.555,876.635c.107.163.216.323.329.484h35.047c.111-.16.222-.321.329-.484Z" transform="translate(-1369.011 2619.789)"/><path class="a" d="M1474.467,851.053v.008h42.793v-.008c0-.671-.033-1.335-.093-1.99H1474.56Q1474.469,850.046,1474.467,851.053Z" transform="translate(-1365.467 2633.574)"/><path class="a" d="M1517.26,815.294a21.393,21.393,0,0,0-27.59,0Z" transform="translate(-1373.069 2652.98)"/><path class="a" d="M1475.892,839.873a21.349,21.349,0,0,0-.644,2.5h42.011a21.253,21.253,0,0,0-.644-2.5Z" transform="translate(-1365.858 2638.169)"/><path class="a" d="M1479.237,830.681a21.227,21.227,0,0,0-1.534,3.008h39.557a21.152,21.152,0,0,0-1.534-3.008Z" transform="translate(-1367.085 2642.765)"/><path class="a" d="M1476.952,867.445q.179.5.381.988h39.545q.2-.488.38-.988Z" transform="translate(-1366.709 2624.384)"/><path class="a" d="M1474.782,858.253q.092.757.236,1.493h42.006q.143-.738.235-1.493Z" transform="translate(-1365.625 2628.979)"/></g></svg>