<svg xmlns="http://www.w3.org/2000/svg" width="94.4" height="100.828" viewBox="0 0 94.4 100.828"><defs><style>.a{fill:#00e88a;}</style></defs><g transform="translate(-1322.47 -646.94)"><path class="a" d="M1369.671,747.768a.766.766,0,0,1-.649-.353l-32.03-49.643a.77.77,0,0,1,0-.837l32.03-49.642a.77.77,0,0,1,1.3,0l32.031,49.642a.774.774,0,0,1,0,.837l-32.031,49.643A.765.765,0,0,1,1369.671,747.768Zm-31.111-50.415,31.111,48.218,31.108-48.218-31.108-48.218Z"/><path class="a" d="M1369.671,747.7a.7.7,0,0,1-.622-.367l-27.179-49.642a.713.713,0,0,1,0-.68l27.179-49.643a.708.708,0,0,1,1.241,0l27.179,49.643a.713.713,0,0,1,0,.68l-27.179,49.642A.7.7,0,0,1,1369.671,747.7Zm-26.372-50.35,26.372,48.17,26.369-48.17-26.369-48.168Z"/><path class="a" d="M1369.671,747.641a.642.642,0,0,1-.587-.381l-22.329-49.643a.646.646,0,0,1,0-.527l22.329-49.643a.643.643,0,0,1,1.172,0l22.327,49.643a.637.637,0,0,1,0,.527l-22.327,49.643A.642.642,0,0,1,1369.671,747.641Zm-21.623-50.288,21.623,48.075,21.621-48.075-21.621-48.073Z"/><path class="a" d="M1369.671,747.575a.577.577,0,0,1-.546-.386l-17.479-49.643a.565.565,0,0,1,0-.385l17.479-49.641a.577.577,0,0,1,1.09,0l17.478,49.641a.565.565,0,0,1,0,.385l-17.478,49.643A.576.576,0,0,1,1369.671,747.575Zm-16.866-50.222,16.866,47.9,16.862-47.9-16.862-47.9Z"/><path class="a" d="M1369.671,747.511a.521.521,0,0,1-.5-.389l-12.626-49.642a.516.516,0,0,1,0-.253l12.626-49.643a.52.52,0,0,1,.5-.388.513.513,0,0,1,.5.388l12.629,49.643a.516.516,0,0,1,0,.253l-12.629,49.642A.514.514,0,0,1,1369.671,747.511Zm-12.1-50.158,12.1,47.553,12.095-47.553L1369.671,649.8Z"/><path class="a" d="M1369.671,747.447a.45.45,0,0,1-.445-.382l-7.779-49.641a.409.409,0,0,1,0-.14l7.779-49.641a.45.45,0,0,1,.889,0l7.778,49.641a.464.464,0,0,1,0,.14l-7.778,49.641A.451.451,0,0,1,1369.671,747.447Zm-7.322-50.094,7.322,46.733,7.321-46.733-7.321-46.732Z"/><path class="a" d="M1369.671,747.382a.388.388,0,0,1-.387-.363l-2.927-49.642a.322.322,0,0,1,0-.046l2.927-49.641a.386.386,0,0,1,.771,0l2.927,49.641a.181.181,0,0,1,0,.046l-2.927,49.642A.387.387,0,0,1,1369.671,747.382Zm-2.54-50.029,2.54,43.082,2.539-43.082-2.539-43.082Z"/><rect class="a" width="64.058" height="1.158" transform="translate(1337.641 696.774)"/><path class="a" d="M1369.671,705.091a238.889,238.889,0,0,1-32.834-1.993c-12.877-1.887-14.367-4.182-14.367-5.745,0-1.025,0-4.145,18.495-6.281l.222,1.918c-16.066,1.855-16.787,4.34-16.787,4.363s.546,2.052,12.717,3.835a269.675,269.675,0,0,0,65.106,0c12.17-1.783,12.716-3.815,12.716-3.835s-.72-2.508-16.785-4.363l.221-1.918c18.495,2.136,18.495,5.256,18.495,6.281,0,1.563-1.49,3.858-14.366,5.745A238.917,238.917,0,0,1,1369.671,705.091Z"/></g></svg>