<svg xmlns="http://www.w3.org/2000/svg" width="162.14" height="68.206" viewBox="0 0 162.14 68.206"><defs><style>.a{fill:#00e88a;}</style></defs><g transform="translate(-849.841 -808.512)"><path class="a" d="M965.178,830a36.37,36.37,0,0,1,1.664,6.193c13.9,1.649,22.852,4.23,22.852,7.131,0,4.977-26.317,9.009-58.782,9.009s-58.785-4.032-58.785-9.009c0-2.9,8.953-5.482,22.853-7.131A36.286,36.286,0,0,1,896.644,830c-27.645,2.341-46.8,7.427-46.8,13.324,0,8.118,36.3,14.7,81.071,14.7s81.069-6.58,81.069-14.7C1011.981,837.43,992.823,832.344,965.178,830ZM858.851,843.772c0-3.534,9.163-6.709,23.746-8.9-12.752,2.213-20.664,5.3-20.664,8.708,0,3.085,6.481,6.386,17.164,8.535C866.564,849.95,858.851,847.012,858.851,843.772Zm123.874,8.338c10.684-2.149,17.166-5.45,17.166-8.535,0-3.411-7.914-6.495-20.664-8.708,14.581,2.2,23.746,5.371,23.746,8.9C1002.973,847.012,995.258,849.95,982.725,852.11Z"/><path class="a" d="M930.912,850.735a324.276,324.276,0,0,0,33.477-1.6,34.1,34.1,0,1,0-66.956,0A323.966,323.966,0,0,0,930.912,850.735Z"/><path class="a" d="M930.912,856.426c-11.244,0-21.949-.417-31.682-1.166a34.117,34.117,0,0,0,63.363,0C952.859,856.009,942.154,856.426,930.912,856.426Z"/></g></svg>