<svg xmlns="http://www.w3.org/2000/svg" width="64.864" height="33.97" viewBox="0 0 64.864 33.97"><defs><style>.a{fill:#00e88a;fill-rule:evenodd;}</style></defs><path class="a" d="M1241.513,835.259c-.274,6.7-3.336,12.05-9.361,14.922-6.041,2.88-11.722,1.632-16.714-3.079-1.718-1.624-3.367-3.332-5.06-4.987-1.085-1.061-1.373-1.08-2.5-.012-1.638,1.554-3.24,3.149-4.857,4.728-4.709,4.6-10.081,5.992-16.1,3.779-6.321-2.319-10.653-9.523-10.246-16.826.5-9,7.275-16.055,15.514-16.029a14.191,14.191,0,0,1,9.965,4c1.877,1.768,3.713,3.587,5.556,5.4,1.253,1.229,1.422,1.254,2.7.029,1.744-1.676,3.471-3.372,5.2-5.062a14.439,14.439,0,0,1,19.19-1.338C1239.169,824.18,1241.417,828.853,1241.513,835.259ZM1192.161,819.6c-.869.1-1.749.158-2.61.324a11.225,11.225,0,0,0-2.088.614c-9.1,3.684-12.019,16.122-5.672,24.126a13.065,13.065,0,0,0,16.264,3.649c3.542-1.9,6.038-5.244,8.979-7.969a.957.957,0,0,0-.053-1.474q-.842-.876-1.719-1.707c-1.1-1.043-1.437-1.053-2.509-.016-1.352,1.309-2.687,2.638-4.021,3.97-2.7,2.7-5.754,3.951-9.378,2.572-3.4-1.3-5.357-4.017-5.811-7.835a9.187,9.187,0,0,1,4.282-9.4,7.666,7.666,0,0,1,9.343.467,42.126,42.126,0,0,1,3.893,3.6c5.272,5.146,10.475,10.382,15.814,15.446,4.121,3.909,8.932,4.933,14.035,2.767,5.4-2.294,8.479-6.85,8.849-13.125.344-5.825-1.893-10.552-6.519-13.676-4.679-3.157-9.578-3.332-14.2-.117-2.8,1.95-5.174,4.629-7.724,7a1.144,1.144,0,0,0,.057,1.86c.579.559,1.154,1.13,1.714,1.711a1.3,1.3,0,0,0,2.153-.024c1.591-1.605,3.242-3.14,4.857-4.719a8.178,8.178,0,0,1,10.091-1.333,9.84,9.84,0,0,1,4.477,9.661c-.541,3.672-2.416,6.372-5.643,7.646a7.922,7.922,0,0,1-8.953-1.93q-9.08-8.823-18.111-17.709C1199.166,821.232,1196,819.567,1192.161,819.6Zm-7.027,15.3a7.546,7.546,0,0,0,3.928,6.6,6.19,6.19,0,0,0,7.54-.89c1.74-1.5,3.358-3.166,5.008-4.784.885-.871.9-1.329.011-2.219-1.591-1.6-3.183-3.214-4.851-4.726-2.206-2-4.679-2.541-7.363-1.211C1186.637,829.051,1185.273,831.449,1185.133,834.9Zm47.92.372c0-6.42-6.032-10.313-10.232-7.3a63.53,63.53,0,0,0-6.59,6.074c-.55.529-.253,1.164.208,1.612,1.89,1.828,3.7,3.778,5.725,5.409a5.962,5.962,0,0,0,7.041.43A7.529,7.529,0,0,0,1233.054,835.275Z" transform="translate(-1176.649 -817.747)"/></svg>