<svg xmlns="http://www.w3.org/2000/svg" width="1090" height="1090" viewBox="0 0 1090 1090"><defs><style>.a{fill:#231f20;}</style></defs><path class="a" d="M823.354,1113.885c-59.574,0-108.745-50.5-156.29-99.34-20.75-21.306-40.356-41.428-60.091-56.562-19.347-14.82-43.443-22.913-66.726-30.748-26.775-9.018-54.474-18.331-73.858-37.918-22.008-22.248-32.78-54.068-43.184-84.816-9.646-28.494-19.624-57.966-38.508-80.88-10.939-13.267-24.263-25.906-37.142-38.139-34-32.263-69.146-65.635-69.146-116.6-.019-143.6,57.228-279.91,161.224-383.85C543.573,81.112,679.87,23.885,823.409,23.885c143.613,0,279.91,57.209,383.832,161.131,103.9,103.9,161.15,240.237,161.168,383.869,0,51.684-9.221,132.36-35.146,203.835-29.842,82.21-74.837,133.3-130.124,147.753-27.5,7.188-51.684,7.336-75.1,7.484-37.9.222-73.71.444-114.954,32.725-19.827,15.522-38.195,37.363-57.652,60.461-38.361,45.586-78.016,92.706-132.028,92.743Zm.056-1087.007c-142.727,0-278.284,56.932-381.652,160.281C338.334,290.527,281.4,426.1,281.4,568.885c.018,49.67,34.684,82.58,68.222,114.418,12.953,12.288,26.35,25,37.382,38.4,19.236,23.357,29.307,53.088,39.044,81.841,10.773,31.838,20.955,61.9,42.482,83.67,18.866,19.07,44.995,27.865,72.657,37.178,23.542,7.909,47.859,16.095,67.612,31.21,19.9,15.263,39.581,35.46,60.406,56.858,47.12,48.376,95.847,98.416,154.146,98.416h.056c52.608-.019,91.8-46.6,129.736-91.653,19.55-23.246,38.01-45.18,58.1-60.9,42.057-32.91,78.349-33.132,116.783-33.372,23.209-.129,47.23-.277,74.356-7.373,133.765-34.979,163.035-263.556,163.017-348.686C1365.36,275.079,1117.159,26.878,823.409,26.878Z" transform="translate(-278.409 -23.885)"/><g transform="translate(38.135 33.409)"><path class="a" d="M784.64,1042.279c-51.462,0-97.343-43.7-141.729-86-19.753-18.829-38.417-36.606-57.32-50.464-16.981-12.454-37.88-21.509-58.1-30.249-26.276-11.383-53.458-23.153-72.454-42.593-20.067-20.529-31.45-48.82-42.463-76.168-8.889-22.063-18.072-44.865-31.783-63.6-10.644-14.542-23.837-28.512-36.587-42C313.128,618.33,280.976,584.33,280.5,537.284c-1.312-130.568,53.458-261.542,150.284-359.348C527.958,79.761,654.589,25.693,787.338,25.693c130.18,0,260.378,55.232,357.2,151.5,96.974,96.438,152.539,226.286,152.464,356.225-.074,116.451-41.077,302.306-153.684,337.045-23.264,7.169-46.233,9.221-68.444,11.179-33.206,2.957-64.563,5.747-96.438,24.318-25.075,14.579-48.746,38.047-71.64,60.738-37.2,36.864-75.668,75-121,75.576Zm2.7-1013.592C655.4,28.686,529.528,82.44,432.9,180.043c-96.253,97.251-150.709,227.45-149.4,357.223.462,45.863,32.189,79.42,62.882,111.868,12.824,13.563,26.091,27.588,36.845,42.3,13.914,19.033,23.172,42.02,32.134,64.268,10.9,27.071,22.174,55.065,41.834,75.188,18.571,19,45.475,30.656,71.493,41.909,20.363,8.833,41.41,17.943,58.668,30.6,19.051,13.969,37.789,31.82,57.616,50.7,43.96,41.891,89.417,85.185,139.677,85.185l1.109-.018c44.107-.554,82.155-38.25,118.927-74.708,23.024-22.821,46.842-46.418,72.231-61.2,32.467-18.9,64.139-21.712,97.677-24.706,22.063-1.959,44.866-3.973,67.834-11.069,111.073-34.24,151.485-218.6,151.559-334.162.074-129.145-55.158-258.216-151.578-354.082C1046.146,83.6,916.723,28.686,787.338,28.686Z" transform="translate(-280.473 -25.693)"/></g><g transform="translate(81.59 64.379)"><path class="a" d="M739.526,964.738c-46.584,0-89.158-35.5-130.328-69.848-15.411-12.842-29.935-24.964-44.644-35.275-15.836-11.124-34.629-20.271-52.793-29.122-27-13.138-54.917-26.7-74.966-47.415-20.53-21.195-33.428-49.042-45.882-75.964-9.036-19.513-18.386-39.691-30.526-57.024-7.447-10.643-15.8-21.158-23.893-31.3-26.128-32.8-53.144-66.725-53.643-110.778-1.4-126.484,50.077-251.915,141.267-344.122C511.171,75.856,625.57,27.369,746.234,27.369c120.275,0,241.956,52.774,333.811,144.778C1169.11,261.342,1220.074,378.661,1219.889,494h0c-.148,93.981-29.787,284.215-140.935,331.575-25.481,10.865-52.367,15.374-78.385,19.753-29.6,4.971-60.221,10.108-88.862,24.669-20.567,10.44-40.893,25.722-60.535,40.5-35.146,26.424-71.475,53.753-110.519,54.234Zm6.708-934.376c-119.851,0-233.492,48.173-319.989,135.631-90.618,91.653-141.785,216.289-140.38,341.979.48,43.018,27.163,76.537,52.977,108.948,8.112,10.182,16.5,20.714,24,31.432,12.307,17.573,21.694,37.862,30.785,57.5,12.362,26.683,25.149,54.289,45.327,75.133,19.679,20.326,47.36,33.778,74.117,46.806,18.275,8.888,37.178,18.09,53.218,29.362,14.8,10.385,29.38,22.544,44.828,35.423,40.763,34,82.913,69.164,128.406,69.164l1.09-.019c38.065-.462,73.987-27.5,108.745-53.624,19.753-14.857,40.172-30.212,61-40.782,29.048-14.764,59.888-19.938,89.712-24.964,25.833-4.324,52.534-8.814,77.7-19.532C1187.478,776.074,1216.748,587.3,1216.9,494c.185-114.566-50.464-231.109-138.976-319.731C986.618,82.822,865.714,30.362,746.234,30.362Z" transform="translate(-282.825 -27.369)"/></g><g transform="translate(128.515 93.722)"><path class="a" d="M691.3,883.34h-.758c-46.6-.3-87.957-28.9-127.962-56.581-13.618-9.424-27.717-19.181-41.558-27.422-11.679-6.948-24.354-13.027-36.606-18.922-24.687-11.863-50.242-24.151-69.7-44.274-21.417-22.119-35.35-50.667-48.82-78.274-7.225-14.783-14.69-30.064-23.134-43.979-4.121-6.763-8.519-13.655-12.769-20.308-22.063-34.536-44.865-70.236-44.625-113.365.813-139.253,35.275-241.013,105.363-311.1,88.308-88.289,201.69-139.382,311.1-140.158h2.347c105.77,0,219.744,50.686,305.373,135.945,82.58,82.21,129.792,186.871,129.515,287.135-.24,94.24-27.422,269.968-127.629,330.725-27.274,16.538-58.189,20.751-88.086,24.835-18.368,2.513-37.363,5.1-55.4,10.514-22.876,6.855-45.734,18.312-67.853,29.38C764.9,865.12,728.513,883.34,691.3,883.34ZM704.177,31.95c-.776,0-1.552.018-2.328.018-108.616.776-221.241,51.536-308.995,139.271C322.4,241.7,289.19,339.892,288.377,480.235c-.24,42.242,22.321,77.572,44.145,111.72,4.25,6.671,8.667,13.563,12.806,20.382,8.519,14.025,16.021,29.38,23.264,44.219,13.378,27.385,27.2,55.712,48.284,77.5,19.088,19.753,44.385,31.894,68.832,43.646,12.325,5.932,25.057,12.048,36.846,19.051,13.933,8.315,28.068,18.09,41.742,27.551,39.618,27.4,80.584,55.749,126.281,56.045h.7c36.514,0,72.583-18.072,107.47-35.552,22.229-11.124,45.216-22.636,68.352-29.565,18.257-5.47,37.363-8.094,55.841-10.607,29.6-4.047,60.2-8.223,86.922-24.428,99.081-60.073,125.949-234.546,126.208-328.175h0c.258-99.45-46.621-203.336-128.646-284.991C922.351,82.341,809.152,31.95,704.177,31.95Z" transform="translate(-285.364 -28.957)"/></g><g transform="translate(176.96 122.327)"><path class="a" d="M637.731,800.109c-69.127,0-196.868-62.642-245.835-111.48C338.419,635.319,288.935,523.082,288.084,453.2c-1.2-98.656,7.539-209.84,81.527-286.414C452.5,80.988,556.889,31.318,656.007,30.505h2.329c95.662,0,201.007,48.118,282.293,129.071,74.043,73.765,116.321,164.6,115.97,249.254l-1.5-.018,1.5.018c-.37,90.987-24.872,262.836-114.344,329.746-29.2,21.823-65.3,24.354-100.227,26.775-13.822.961-28.105,1.959-41.65,4.158-20.16,3.271-40.689,8.426-60.516,13.434-33.187,8.352-67.483,17-101.576,17.166ZM658.335,33.5c-.776,0-1.534,0-2.31.018-98.3.795-201.913,50.132-284.252,135.372-73.229,75.78-81.877,186.225-80.694,284.271.868,69.257,49.91,180.478,102.942,233.344C442.6,734.955,569.251,797.1,637.713,797.1h.555c33.723-.148,67.853-8.759,100.854-17.074,19.9-5.008,40.486-10.2,60.775-13.489,13.674-2.217,28.032-3.215,41.928-4.176,34.48-2.4,70.144-4.878,98.637-26.184,88.512-66.208,112.755-236.929,113.125-327.362h0c.351-83.855-41.6-173.918-115.083-247.092C857.772,81.32,753.2,33.5,658.335,33.5Z" transform="translate(-287.986 -30.505)"/></g><g transform="translate(225.365 150.986)"><path class="a" d="M585.571,717.14c-75.1,0-150.783-32.6-207.751-89.49-56.3-56.248-87.273-127.833-87.2-201.58.019-5.156,0-10.366,0-15.6-.147-83.651-.332-178.464,58.521-246.316,53.143-61.274,152.058-132.1,257.292-132.1,1.275,0,2.55.018,3.825.037,76.057,1.238,168.671,41.318,241.715,104.569,78.755,68.185,123.288,151.707,122.216,229.15l-1.5-.018,1.5.018c-.536,39.784-8.057,242.177-102.444,321.153-30.434,25.482-68.924,25.075-106.177,24.706-8.8-.092-17.887-.185-26.646.074-19.384.573-39.6,1.515-59.167,2.4-31.561,1.441-64.194,2.92-93.63,2.993ZM606.434,35.068c-104.218,0-202.282,70.273-255.02,131.067-58.114,66.984-57.948,161.2-57.8,244.321q.029,7.872.019,15.614c-.074,72.952,30.582,143.78,86.312,199.455,56.4,56.322,131.325,88.6,205.626,88.6h.536c29.381-.056,61.976-1.552,93.519-2.994,19.569-.887,39.8-1.811,59.205-2.4,8.814-.259,17.942-.166,26.775-.074,36.605.37,74.616.758,104.218-24C942.222,624.065,969.681,475,971.2,365.775h0c1.053-76.556-43.11-159.246-121.181-226.84C777.469,76.127,685.577,36.343,610.222,35.1,608.965,35.086,607.69,35.068,606.434,35.068Z" transform="translate(-290.605 -32.056)"/></g><g transform="translate(270.084 180.64)"><path class="a" d="M703.055,652.486c-33.945,0-69.922-4.915-102.2-9.313-23.116-3.16-44.958-6.135-62.494-6.782C378.927,630.478,296.938,550.3,294.628,398.039c-.148-9.831-.425-19.846-.721-29.953-2.07-72.842-4.232-148.159,40.32-208.473,54.88-74.283,153.13-127.2,233.732-125.93,94.221,1.552,168.375,60.646,236.264,121.07,58.558,52.072,92.244,96.512,91.3,169.5l-1.5-.018,1.5.018c-.684,53.181-9.405,232.051-92.835,301.178C777.726,646.129,741.693,652.486,703.055,652.486ZM564.985,36.677c-79.105,0-174.658,52.053-228.355,124.729-43.923,59.463-41.78,134.264-39.71,206.588.277,10.126.573,20.16.721,29.99,2.273,150.377,83.3,229.556,240.829,235.4,17.684.647,39.6,3.64,62.789,6.819,68.444,9.331,153.61,20.954,199.529-17.093,82.432-68.3,91.062-246.039,91.745-298.887.924-71.844-32.411-115.711-90.3-167.229C731.974,94.477,661.165,38.211,567.923,36.7,566.943,36.677,565.964,36.677,564.985,36.677Z" transform="translate(-293.025 -33.661)"/></g><g transform="translate(311.451 212.094)"><path class="a" d="M654.834,580.474c-29.547,0-60.59-5.71-89.694-11.068-25.094-4.62-48.8-8.98-69.46-9.443-8.463-.2-17.518-.074-27.089.074-45.6.665-97.289,1.423-131.233-30.619-39.248-37.068-39.3-98.157-39.359-147.254,0-4.73,0-9.369-.037-13.9-.111-13.619-.721-27.847-1.312-41.613-2.568-60-5.21-122.031,28.143-175.082C367.127,84.22,452.885,35.363,528.72,35.363h.092c66.578.037,160.355,46.177,223,109.724,31.783,32.245,69.516,82.82,68.721,140.491-1.33,95.367-17.055,219.855-84.391,271.318C712.875,574.672,684.6,580.474,654.834,580.474ZM486.386,556.858c3.178,0,6.3.019,9.369.092,20.88.462,44.717,4.86,69.94,9.5C623.5,577.092,689,589.14,734.328,554.512c66.375-50.723,81.878-174.269,83.19-268.971l1.5.018-1.5-.018c.609-44.2-23.486-93.334-67.853-138.347-62.124-63.03-155.015-108.8-220.853-108.837h-.092c-74.874,0-159.561,48.284-201.377,114.806-32.873,52.257-30.23,113.827-27.7,173.364.591,13.785,1.2,28.05,1.312,41.724.037,4.527.056,9.184.056,13.914.037,48.506.11,108.893,38.416,145.073,33.058,31.21,84.077,30.452,129.127,29.787C474.708,556.932,480.658,556.858,486.386,556.858Z" transform="translate(-295.264 -35.363)"/></g><g transform="translate(347.689 245.984)"><path class="a" d="M599.955,507.083c-24.447,0-49.928-4.564-75-9.036-22.876-4.084-44.478-7.946-64.36-8.13-8.3-.074-17.7.407-27.625.943-35.441,1.885-79.512,4.232-105.641-19.957-29.048-26.923-27.958-75.059-27.089-113.734.167-7.5.333-14.561.259-21.121-.129-13.785-.868-28.179-1.589-42.094-2.754-52.774-5.581-107.322,21.786-154.848C355.3,78.995,426.333,37.2,493.686,37.2h.906c63.214.351,147.66,40.08,200.8,94.461,37.178,38.065,56.451,79.365,55.73,119.5-2.088,119.2-26.942,195.445-75.964,233.086C652.637,501.539,626.933,507.083,599.955,507.083Zm-141.211-20.2,1.885.019c20.123.2,41.854,4.084,64.859,8.186C577.6,504.4,631.46,514.012,673.333,481.86c48.247-37.049,72.712-112.533,74.8-230.757h0c.869-49.651-29.362-91.209-54.88-117.337-52.645-53.864-136.2-93.2-198.679-93.556h-.887c-66.337,0-136.3,41.17-170.389,100.393-26.923,46.75-24.114,100.873-21.4,153.185.721,13.951,1.479,28.383,1.608,42.241.074,6.6-.093,13.692-.259,21.195-.868,38.084-1.939,85.481,26.128,111.48,25.186,23.32,68.573,20.991,103.424,19.143C442.04,487.366,450.8,486.886,458.744,486.886Z" transform="translate(-297.225 -37.197)"/></g><g transform="translate(382.431 278.395)"><path class="a" d="M537.638,435.81c-19.4,0-39.3-2.384-58.946-4.749-16.723-2-32.522-3.9-47.545-4.25-105.2-2.458-129.976-14.376-131.879-126.041-1.275-75.817,3.843-169.557,55.435-221.851C380.868,52.4,417.03,38.951,462.247,38.951h.739c57.893.2,129.792,32.392,174.86,78.311,31.524,32.115,47.9,68.093,47.341,104.015-.813,53.273-10.791,149.028-68.48,191.9C593.036,430.747,565.873,435.81,537.638,435.81ZM462.247,41.963c-44.367,0-79.826,13.138-105.4,39.063-50.8,51.5-55.841,144.464-54.566,219.689,1.848,109.059,26.091,120.7,128.923,123.1,15.171.351,31.043,2.254,47.84,4.268,47.637,5.71,96.9,11.623,135.854-17.333C671.55,368.66,681.381,273.94,682.176,221.24h0c.554-35.109-15.522-70.347-46.473-101.871C591.151,73.986,520.121,42.148,462.986,41.963Z" transform="translate(-299.105 -38.951)"/></g><g transform="translate(410.58 307.96)"><path class="a" d="M478.306,371.941c-13.322,0-26.59-.795-39.358-1.534-9.517-.573-18.5-1.109-27.329-1.33-92.484-2.421-109.078-10.477-110.87-105.862-1.737-93.038,15.448-157.8,51.056-192.507,22.063-21.509,51.48-31.6,87.236-29.99,41.613,1.866,89.546,18.7,125.08,43.96,42.02,29.88,64.526,69.035,63.325,110.279-1.2,41.447-10.662,116.524-60.572,153.518C541.021,367.617,509.534,371.941,478.306,371.941ZM431.778,43.562c-31.728,0-57.911,9.83-77.887,29.288-34.979,34.111-51.85,98.12-50.131,190.308C305.5,356.493,320.3,363.681,411.692,366.065c8.888.24,17.905.776,27.44,1.33,44.237,2.624,89.971,5.34,125.949-21.342,48.894-36.236,58.188-110.279,59.371-151.19h0C627,106.481,518.108,47.258,438.91,43.71,436.508,43.618,434.125,43.562,431.778,43.562Z" transform="translate(-300.628 -40.551)"/></g><g transform="translate(436.544 336.104)"><path class="a" d="M402.451,314.406q-2.966,0-5.986-.055c-79.7-1.589-92.928-14.265-94.369-90.451-.61-32.744,2.568-113.42,45.2-155.551,18.478-18.275,42.2-27.052,70.643-26.221,74.708,2.31,155.236,52,155.07,128.3h0c-.093,41.244-12.9,74.615-38.047,99.229C505.357,298.607,458.459,314.406,402.451,314.406Zm11.7-269.322c-25.907,0-47.674,8.537-64.749,25.408-41.816,41.318-44.9,121-44.292,153.352,1.4,74.5,13.36,85.943,91.431,87.495,1.977.037,3.973.055,5.932.055,55.213,0,101.335-15.485,130.383-43.886,24.558-24.022,37.068-56.691,37.16-97.085.167-74.486-78.865-123.029-152.169-125.283C416.605,45.1,415.367,45.085,414.148,45.085Z" transform="translate(-302.034 -42.074)"/></g><g transform="translate(461.595 363.503)"><path class="a" d="M374.58,261.216c-23.578,0-40.8-5.525-52.5-16.834-13.064-12.639-19.181-32.393-18.664-60.387.592-32.559,9.166-138.92,94.554-140.417,34.7-.647,70.9,13.637,94.387,37.16,18.516,18.552,28.05,41.428,27.57,66.134C518.4,225.83,448.308,257.594,383.209,260.994,380.253,261.142,377.37,261.216,374.58,261.216ZM400.135,46.571c-.7,0-1.4,0-2.107.018C315.32,48.031,307,152.157,306.431,184.032c-.5,27.145,5.3,46.159,17.74,58.188C336.625,254.249,355.88,259.4,383.061,258c63.732-3.345,132.379-34.277,133.857-111.184h0c.462-23.874-8.759-45.993-26.683-63.954C467.766,60.375,433.415,46.571,400.135,46.571Z" transform="translate(-303.389 -43.557)"/></g><g transform="translate(486.875 391.205)"><path class="a" d="M362.217,207.314c-16.853,0-31.45-5.359-41.65-15.411-11.6-11.438-16.981-27.865-15.6-47.526,3.252-46.085,23.837-99.321,71.012-99.321.591,0,1.183,0,1.792.018,43.424,1.238,89.657,31.339,88.6,77.849-1.109,49.356-50.889,80.177-97.159,84.095C366.836,207.222,364.508,207.314,362.217,207.314ZM375.946,48.049c-59.408,0-67.28,86.589-67.981,96.549-1.331,18.737,3.751,34.351,14.708,45.161,10.958,10.791,27.385,15.873,46.288,14.265,44.976-3.825,93.353-33.557,94.425-81.175h0c1-44.662-43.7-73.581-85.7-74.763C377.11,48.068,376.519,48.049,375.946,48.049Z" transform="translate(-304.757 -45.056)"/></g></svg>