<svg xmlns="http://www.w3.org/2000/svg" width="94.969" height="49.737" viewBox="0 0 94.969 49.737"><defs><style>.a{fill:#00e88a;fill-rule:evenodd;}</style></defs><path class="a" d="M1271.618,843.387c-.4,9.811-4.885,17.643-13.705,21.847-8.844,4.216-17.162,2.39-24.472-4.508-2.516-2.377-4.93-4.878-7.408-7.3-1.588-1.554-2.01-1.581-3.658-.018-2.4,2.275-4.744,4.611-7.111,6.923-6.9,6.735-14.76,8.773-23.575,5.533-9.254-3.4-15.6-13.943-15-24.636.733-13.176,10.651-23.506,22.714-23.468a20.779,20.779,0,0,1,14.59,5.856c2.748,2.589,5.436,5.252,8.135,7.9,1.834,1.8,2.082,1.836,3.949.042,2.554-2.454,5.082-4.937,7.619-7.411,7.9-7.7,19.592-8.579,28.1-1.959C1268.185,827.166,1271.477,834.008,1271.618,843.387Zm-72.258-22.926c-1.273.15-2.561.232-3.822.474a16.44,16.44,0,0,0-3.057.9c-13.325,5.394-17.6,23.605-8.3,35.323,5.782,7.287,15.9,9.593,23.812,5.343,5.186-2.787,8.84-7.678,13.147-11.668a1.4,1.4,0,0,0-.077-2.158q-1.233-1.283-2.516-2.5c-1.609-1.527-2.1-1.542-3.673-.024-1.979,1.917-3.935,3.863-5.888,5.813-3.958,3.96-8.424,5.785-13.73,3.765-4.976-1.9-7.844-5.881-8.508-11.472-.707-5.975,1.506-10.735,6.27-13.761,4.6-2.922,9.308-2.607,13.679.684a61.693,61.693,0,0,1,5.7,5.277c7.719,7.535,15.336,15.2,23.153,22.615,6.034,5.723,13.078,7.222,20.549,4.052,7.905-3.358,12.415-10.029,12.956-19.217.5-8.528-2.772-15.45-9.544-20.023-6.85-4.622-14.023-4.878-20.786-.171-4.1,2.855-7.576,6.778-11.309,10.249a1.674,1.674,0,0,0,.083,2.723c.848.819,1.689,1.654,2.509,2.505,1.072,1.115,2.044,1.086,3.153-.035,2.33-2.35,4.747-4.6,7.111-6.909a11.974,11.974,0,0,1,14.775-1.951c4.495,2.55,7.378,8.55,6.555,14.145-.792,5.377-3.538,9.329-8.262,11.194-4.788,1.891-9.276.9-13.108-2.826q-13.295-12.918-26.517-25.928C1209.617,822.85,1204.985,820.412,1199.36,820.461Zm-10.289,22.405c.273,4.207,1.989,7.627,5.751,9.67,3.946,2.143,7.666,1.6,11.039-1.3,2.547-2.192,4.916-4.635,7.332-7,1.3-1.276,1.312-1.946.016-3.249-2.329-2.348-4.661-4.706-7.1-6.919-3.23-2.927-6.851-3.72-10.781-1.773C1191.273,834.3,1189.275,837.809,1189.071,842.866Zm70.161.544c0-9.4-8.832-15.1-14.981-10.688-3.494,2.506-6.488,5.854-9.649,8.893-.805.774-.37,1.705.3,2.36,2.767,2.677,5.417,5.532,8.382,7.919,3.18,2.56,6.8,2.567,10.309.629A11.024,11.024,0,0,0,1259.232,843.41Z" transform="translate(-1176.649 -817.747)"/></svg>