<svg xmlns="http://www.w3.org/2000/svg" width="108.888" height="70.543" viewBox="0 0 108.888 70.543"><defs><style>.a{fill:#00e88a;}</style></defs><g transform="translate(-876.391 -665.104)"><path class="a" d="M978.649,735.647H883.022a1.2,1.2,0,0,1-1.039-.6l-5.431-9.413a1.2,1.2,0,0,1,0-1.2l33.884-58.732a1.2,1.2,0,0,1,1.036-.6l28.227,0,10.5,0a1.2,1.2,0,0,1,1.037.6l33.883,58.728a1.2,1.2,0,0,1,0,1.2l-5.433,9.415A1.2,1.2,0,0,1,978.649,735.647Zm-94.937-2.4h94.246l4.741-8.216L949.507,667.5l-9.808,0-27.534,0-33.192,57.534Z"/><path class="a" d="M884.336,735.048l-2.074-1.2L915.7,675.89a1.194,1.194,0,0,1,1.038-.6h28.628a1.2,1.2,0,0,1,1.04.6l21.88,38.2a1.2,1.2,0,0,1-1.039,1.793H906.9v-2.4h58.282l-20.51-35.8H917.43Z"/><path class="a" d="M901.041,726.231a1.2,1.2,0,0,1-1.037-1.8L922.56,685.34a1.2,1.2,0,0,1,1.039-.6h15.623a1.192,1.192,0,0,1,1.027.584l17.162,28.748-2.056,1.229-16.813-28.166H924.289l-21.175,36.7c12.755,0,79.863,0,80.974,0l-.012,2.4C982.861,726.227,901.858,726.232,901.041,726.231Z"/><rect class="a" width="11.274" height="2.395" transform="matrix(0.545, -0.839, 0.839, 0.545, 938.219, 685.286)"/><rect class="a" width="2.395" height="11.465" transform="matrix(0.888, -0.459, 0.459, 0.888, 910.409, 666.854)"/></g></svg>