<svg xmlns="http://www.w3.org/2000/svg" width="57.792" height="41.707" viewBox="0 0 57.792 41.707"><defs><style>.a{fill:#00e88a;}</style></defs><g transform="translate(-505.259 -387.243)"><path class="a" d="M548.977,395.338a7.621,7.621,0,0,1-12.436,5.42,14.239,14.239,0,0,0-9.052-3.11h-.769a15.119,15.119,0,0,0-9.2,3.258,7.62,7.62,0,1,1,.191-11.936,14.221,14.221,0,0,0,9.044,3.108h.77a15.1,15.1,0,0,0,9.2-3.256,7.623,7.623,0,0,1,12.254,6.516Z"/><path class="a" d="M548.977,421.8a7.621,7.621,0,0,1-12.436,5.42,14.238,14.238,0,0,0-9.052-3.109h-.769a15.118,15.118,0,0,0-9.2,3.257,7.619,7.619,0,0,1-12.246-6.534,7.621,7.621,0,0,1,12.437-5.4,14.221,14.221,0,0,0,9.044,3.108h.77a15.1,15.1,0,0,0,9.2-3.255,7.622,7.622,0,0,1,12.254,6.515Z"/><path class="a" d="M563.036,408.369a7.62,7.62,0,0,1-12.435,5.42,14.238,14.238,0,0,0-9.052-3.109h-.769a15.113,15.113,0,0,0-9.2,3.258A7.62,7.62,0,1,1,531.771,402a14.218,14.218,0,0,0,9.043,3.108h.771a15.1,15.1,0,0,0,9.2-3.255,7.622,7.622,0,0,1,12.254,6.515Z"/></g></svg>