<svg xmlns="http://www.w3.org/2000/svg" xmlns:xlink="http://www.w3.org/1999/xlink" width="234.033" height="163.924" viewBox="0 0 234.033 163.924"><defs><style>.a{fill:#f6b91b;fill-rule:evenodd;}.b{fill:url(#a);}.c{fill:none;stroke:#f6b91b;stroke-linejoin:round;stroke-width:4px;}</style><linearGradient id="a" x1="0.5" y1="1" x2="0.5" gradientUnits="objectBoundingBox"><stop offset="0" stop-color="#f6b91b"/><stop offset="0.095" stop-color="#70550e"/><stop offset="0.385" stop-color="#40310a"/><stop offset="0.89" stop-color="#f6b91b"/><stop offset="1" stop-color="#f6b91b"/></linearGradient></defs><g transform="translate(-200 -1354.223)"><g transform="translate(7 87)"><g transform="translate(228.386 1287.397)"><path class="a" d="M234.817,2223.281l-.684-.546c-.64.423-1.249.828-1.84,1.219-.329-.274-.506-.417-.689-.57-.087.139-.166.262-.276.43-.714-.385-1.4-.76-2.272-1.23,1.005-.546,1.862-1.017,2.819-1.538.138.662.252,1.216.365,1.768l.252,0c.049-.639.1-1.279.146-1.97-.017.015.027-.052.064-.047,1.768.237,2.968-.865,4.4-1.634a43.464,43.464,0,0,1,7.765-3.271c6.526-2,12.015-5.694,17.2-9.962,2.667-2.195,5.318-4.406,7.982-6.6.486-.4,1.008-.758,1.565-1.173.054-.188.044-.518.2-.674,2.383-2.331,2.261-5.555,2.724-8.447.328-2.052-.25-4.294-.657-6.405a25.92,25.92,0,0,0-4.281-9.856c-3.388-4.931-7.679-4.289-11.205-.615a42.553,42.553,0,0,0-5.536,8.115c-2.094,3.56-3.74,7.4-5.946,10.884a89.545,89.545,0,0,1-6.683,8.762c-1.645,2-3.516,3.82-5.488,5.936-.005-.093.01.193.034.644.346-.23.6-.378.832-.558,5.18-4.049,9-9.238,12.276-14.841,2.822-4.824,5.476-9.741,8.257-14.589a12.613,12.613,0,0,1,4.461-4.726c2.667-1.578,3.958-1.412,6.489.321a11.733,11.733,0,0,1,3.891,5.13,23.738,23.738,0,0,1,2.56,10.721c-.1,3.792-.783,7.36-3.592,10.165-.829.827-1.8,1.516-2.657,2.292a14.543,14.543,0,0,1-1.444,1.5c-2.471,1.931-4.867,3.978-7.489,5.681-3,1.95-6.209,3.578-9.33,5.344-.113.064-.267.074-.358.156a9.6,9.6,0,0,1-4.7,2.021,29.08,29.08,0,0,0-8.3,3.654,6.741,6.741,0,0,1-1.82.926,2.936,2.936,0,0,1-1.869-.156c-1.114-.574-1.04-1.726.059-2.341a75.945,75.945,0,0,0,16.925-12.885c2.141-2.162,3.708-4.889,5.57-7.333a37.8,37.8,0,0,1,3-3.657,9.86,9.86,0,0,0,2.946-6.9,22.538,22.538,0,0,1,1.639-6.192c.192-.558,1.045-.889,1.6-1.321a5.824,5.824,0,0,1,1.166,1.608,10.209,10.209,0,0,1-.667,7.762c-.373.7-1.222,1.141-1.852,1.7a5.046,5.046,0,0,0-.573.5c-1.329,1.555-2.719,3.071-3.956,4.7a49.209,49.209,0,0,0-4.143,6.007,13.87,13.87,0,0,1-3.17,4.168c-2.358,1.99-4.662,4.044-7.083,5.953a47.941,47.941,0,0,1-4.182,2.674c-1.928,1.22-3.866,2.428-5.77,3.689a2.462,2.462,0,0,0-.94,1.382q2.531-1.6,5.061-3.21c.106-.067.18-.2.291-.242,4.624-1.646,8.162-4.931,11.7-8.083,4.23-3.761,8.13-7.891,12.205-11.824,1.536-1.484,3.151-2.879,4.755-4.287a7.287,7.287,0,0,0,2.647-6.23c-.062-1-.054-2-.193-3a6.879,6.879,0,0,0-.612-1.891c-.484-1.039-1.076-2.027-1.577-3.061-.511-1.055-1.106-2.1-2.39-2.158-1.655-.069-3.363.13-4.3,1.756a49.207,49.207,0,0,0-2.14,4.494c-2.629,5.9-5.165,11.848-9.027,17.076-4.533,6.136-10.5,10.7-16.785,14.868-1.4.928-2.713,1.765-2.966,3.639-.055.406-.815.714-1.25,1.069-.079-.089-.156-.177-.234-.262-.529.44-1.056.882-1.566,1.309-.978-.479-1.008-1.244-.035-2.139,1.787-1.642,3.563-3.3,5.437-4.835,3.116-2.556,6.427-4.884,9.436-7.56,4.99-4.437,8.545-10,11.668-15.839,1.84-3.439,3.5-6.975,5.3-10.436a9.324,9.324,0,0,1,4.444-4.654,3.1,3.1,0,0,1,4.108.894,21.369,21.369,0,0,1,3.951,7.852,7.254,7.254,0,0,1,.02,1.825,5.737,5.737,0,0,1-1.419,6.878c-2.39,2.309-4.893,4.508-7.281,6.825-1.9,1.842-3.691,3.8-5.546,5.684-1,1.018-2.039,1.986-3.029,3.007a10.338,10.338,0,0,0-.884,1.338l-8.256,5.676c.057.1.114.2.17.3a4.544,4.544,0,0,0,.971-.353c2.635-1.691,5.393-3.23,7.835-5.167,1.706-1.351,2.872-3.362,4.459-4.887,3.551-3.415,7.217-6.7,10.817-10.059.6-.558,1.106-1.208,1.681-1.787a12.663,12.663,0,0,1,1.183-.9A4.826,4.826,0,0,1,271.1,2192a18.048,18.048,0,0,1-5.486,6.192c0,.015-.008.192,0,.092-1.225,1.182-2.3,2.224-3.38,3.262l-.029-.037-7.289,6.365c.1.141.207.284.308.427a7.123,7.123,0,0,0,1.366-.753c3.551-3.181,7.067-6.4,10.612-9.585.76-.684,1.6-1.279,2.373-1.943a5.5,5.5,0,0,0,2.15-5.533c-.2-1.139.356-2.4.314-3.592a20.937,20.937,0,0,0-4.913-13.345c-1.971-2.284-5.466-2.007-7.612.576a21.256,21.256,0,0,0-2.9,4.683c-1.393,3.014-3.326,5.775-4.736,8.785a48.328,48.328,0,0,1-9.212,13.608c-2.471,2.511-5.2,4.767-7.846,7.106a2.714,2.714,0,0,1-.965.395c-2.1,1.77-4.062,3.434-6.037,5.091-.625.524-1.254,1.049-1.919,1.518a.735.735,0,0,1-.842-.155l.669-.172c-.331-.376-.632-.723-1.027-1.178h.541c1.193-1.1,2.207-2.041,3.235-2.97,8.363-7.587,14.617-16.783,20.254-26.458,2.133-3.664,4.234-7.36,6.6-10.876a11.231,11.231,0,0,1,8.508-5.3,6.408,6.408,0,0,1,6.214,2.971c3.513,5.042,5.267,10.755,6.644,16.634a17.518,17.518,0,0,0,.849,3.205c.909,2.022.141,3.81-.514,5.647a3.141,3.141,0,0,0-.279.734c-.185,2.921-1.914,4.8-4.291,6.138a103.048,103.048,0,0,1-9.488,5.023c-3.62,1.56-6.783,3.834-10.18,5.737a30.35,30.35,0,0,1-4.237,1.936c-2.635.969-5.387,1.656-7.953,2.777a21.5,21.5,0,0,0-3.918,2.877Q235.752,2222.581,234.817,2223.281Zm26.155-15.153c.289,0,.375.027.432,0a55.124,55.124,0,0,0,11-6.872c4.568-3.939,4.245-8.951,3.308-14.133a3.088,3.088,0,0,0-.23,1.676,13.551,13.551,0,0,1-.77,7.16,10.84,10.84,0,0,1-5.072,6.123c-2.679,1.558-5.237,3.329-7.829,5.041A5.051,5.051,0,0,0,260.972,2208.128Zm2.613-28.729a4.712,4.712,0,0,0-.718,1.155c-.37,1.642-.689,3.291-.988,4.944-.207,1.161-.351,2.333-.548,3.686C262.876,2188.04,264.293,2181.832,263.585,2179.4Z" transform="translate(-220.61 -2113.483)"/><path class="a" d="M278.548,2187.677c-.079.16-.18.373-.306.63,1.321,3.735,2.748,7.468,3.953,11.271a15.144,15.144,0,0,0,5.419,7.538,14.188,14.188,0,0,0,1.257.82c.054.032.145,0,.376,0-.7-.874-1.34-1.674-1.98-2.472l.05-.049c-.864-1.051-1.729-2.1-2.771-3.365h-.326c-1.815-5.644-3.649-11.283-5.43-16.938-.366-1.167-.388-2.452-.819-3.585-1.871-4.916-3.442-10.027-8.086-13.269a12.179,12.179,0,0,1-1.756-1.677c-1.773-1.874-4.03-1.913-6.323-1.6a10.968,10.968,0,0,0-6.271,3.113c-.407.4-.909.691-1.3,1.128q-.834.645-1.671,1.294a2.213,2.213,0,0,0-.467.4c-2.032,2.97-4.126,5.9-6.047,8.94-1.114,1.767-1.9,3.739-2.918,5.572-.852,1.531-1.84,2.988-2.755,4.484a9.58,9.58,0,0,0-.452.929c-2.555,3.219-4.521,6.831-7.652,9.479-.576.731-1.151,1.465-1.877,2.385-.049-.152.012.039.1.327l-6.6,6.031a9.8,9.8,0,0,1,.148-2.294c.146-.45.7-.768,1.23-1.309.168.546.234.753.3.958.071,0,.143.01.215.015v-1.1c1.7-1.923,3.472-3.866,5.17-5.877,4.8-5.683,8.467-12.133,12.362-18.429a63.094,63.094,0,0,1,10.884-13.594c6.7-6.14,12.684-3.575,17.214.55a25.522,25.522,0,0,1,7.111,11.242c.995,3.1,1.592,6.318,2.523,9.437,2.081,6.975,4.126,13.987,9.615,19.271a6.019,6.019,0,0,1,.476.61,6.842,6.842,0,0,1-4.782-.973,15.305,15.305,0,0,1-3.456-3.407c-.906-1.291-1.366-2.892-2.306-4.287.306,1.418.613,2.834.913,4.227-.958.422-1.35.005-1.479-1.149-.358-3.165-.706-6.33-1.224-9.471-.25-1.518-.933-2.961-1.309-4.469-.43-1.712-.613-3.5-1.136-5.178a36.722,36.722,0,0,0-1.96-4.607c-.872-1.863-1.74-3.732-2.741-5.521-2.321-4.148-6.523-5.276-10.735-3.012-4,2.148-6.642,5.5-8.716,9.431-1.615,3.062-3.281,6.108-5.077,9.064a109.926,109.926,0,0,1-6.894,10.617c-2.859,3.666-6.219,6.936-9.345,10.4-.568.63-1.062,1.33-1.4,1.753-.743.6-1.21.978-1.94,1.565a1.385,1.385,0,0,1-1.76,1.071c-.328-.1-.466-.845-.691-1.3.155-.1.311-.21.466-.312.139.309.274.622.413.933l.281-.178c-.049-.39-.1-.782-.131-1.03,4.1-4.4,8.155-8.71,12.148-13.076a22.038,22.038,0,0,0,2.24-3.151c4.578-7.222,9.115-14.473,13.718-21.678a18.842,18.842,0,0,1,2.521-2.931c3.229-3.3,7.215-3.81,11.405-2.63a8.113,8.113,0,0,1,3.666,2.688,29.924,29.924,0,0,1,5.763,12.109C277.894,2185.234,278.222,2186.429,278.548,2187.677Z" transform="translate(-221.151 -2116.48)"/><path class="a" d="M254.157,2162.795c-.819.948-1.7,1.847-2.44,2.847-1.612,2.171-3.2,4.358-4.7,6.6-.787,1.187-1.36,2.513-2.03,3.777.1.059.2.119.3.18,1.37-1.854,2.719-3.719,4.113-5.551a68.181,68.181,0,0,1,4.44-5.649,10.535,10.535,0,0,1,11.674-1.951c.062.028.1.1.415.435-5.22-1.055-9.706-.317-13.226,3.61a2.594,2.594,0,0,0-.323.869l.274.233a10.863,10.863,0,0,0,2.691-1.906,5.431,5.431,0,0,1,3.432-1.892c4.9-1.12,9.113.5,12.873,3.509,3.578,2.865,5.909,6.716,7.889,10.761,3.825,7.809,7.56,15.665,11.321,23.507.308.638.529,1.316.766,1.917.333.151.651.3.966.442-.02.116-.042.23-.06.341-.341-.015-.77.094-1-.072a4.278,4.278,0,0,1-1.19-1.423,5.609,5.609,0,0,1-.958-1.091,77.041,77.041,0,0,1-3.943-8.126,96.52,96.52,0,0,0-11.7-22.486,12.728,12.728,0,0,0-3.6-3.829,25.44,25.44,0,0,0-6.469-2.386c-3.1-.8-5.8.2-8.469,1.969a36.128,36.128,0,0,0-8.424,8.25c-1.716,2.2-3.113,4.657-4.607,7.027-.657,1.042-1.145,2.195-1.81,3.23-2,3.13-4.047,6.222-6.227,9.25-1.874,2.563-3.746,5.126-5.694,7.795-.422-.317-.738-.555-1.18-.889.1.461.173.8.259,1.2-.069.276-.158.629-.247.981q-.161.171-.328.345-.313-.65-.62-1.3c-.094.042-.188.081-.282.125-.06.63-.121,1.262-.182,1.886l-.929.815c-.114-.019-.23-.041-.346-.061a8.083,8.083,0,0,1,.577-2.489,17.737,17.737,0,0,1,2.422-2.893,77.385,77.385,0,0,0,10.5-14.709c2.242-3.837,4.469-7.684,6.748-11.6-.057-.134-.145-.341-.247-.588.2-.257.42-.518.61-.8,1.425-2.121,2.987-4.165,4.237-6.382,3.6-6.394,10.773-8.3,17.271-4.9,5.545,2.9,9.439,7.308,12.846,12.332.842,1.244,1.849,2.381,2.645,3.647a8.864,8.864,0,0,1,.751,2.012c1.084,2.054,2.1,3.841,2.977,5.686,1,2.093,1.891,4.235,2.8,6.37a11.186,11.186,0,0,1,.382,1.565,8.1,8.1,0,0,1,2.893,6.014c.257.145.482.269.708.4-.062.113-.123.227-.183.34a5.193,5.193,0,0,1-1.39-1.056,28.054,28.054,0,0,1-2-3.586c-.995-2.15-1.857-4.364-2.842-6.518-.461-1.008-1.114-1.928-1.608-2.923-.785-1.573-1.479-3.188-2.261-4.76a69.691,69.691,0,0,0-8.914-13.775c-.792-.946-2.111-1.44-3.148-2.191-1.523-1.1-2.99-2.274-4.523-3.355a3.923,3.923,0,0,0-1.582-.639c-1.454-.25-2.921-.415-4.387-.588a1.867,1.867,0,0,0-.763.131c-1.267.442-2.536.879-3.788,1.365a4.442,4.442,0,0,0-.908.641Z" transform="translate(-220.681 -2118.997)"/><path class="a" d="M267.092,2154.638a3.111,3.111,0,0,0,2.852,2.184c6.472.368,11.16,4.38,16.15,7.76,1.469,1,2.819,2.168,4.222,3.26-.059.123-.121.244-.182.367a5.24,5.24,0,0,1-1.161-.449c-1.889-1.3-3.81-2.563-5.615-3.973a29.6,29.6,0,0,0-13.2-6.281c-1.415-.247-2.7-1.236-4.049-1.857a2.993,2.993,0,0,0-1.1-.291,21.32,21.32,0,0,0-11.625,2.666,18.685,18.685,0,0,1-4.037,1.22,1.547,1.547,0,0,0-.686.336c-3.642,3.906-7.293,7.805-10.881,11.765a21.967,21.967,0,0,0-1.516,2.488,21.553,21.553,0,0,1-1.38,1.7c-.679,1.24-1.255,2.289-1.829,3.339l-.329-.176c-.072.353-.145.706-.224,1.089h-.355c-1.634,2.335-3.163,4.521-4.741,6.775-1.78.935-1.733,4.325-4.973,3.678l.982-.83c-.037-.229-.092-.562-.091-.548,2.914-3.965,5.684-7.7,8.425-11.471,2.294-3.153,4.319-6.533,6.881-9.447a117.431,117.431,0,0,1,11.284-11.387c1.938-1.673,4.75-2.393,7.234-3.364,3.951-1.548,8.084-1.56,12.247-1.165a10.1,10.1,0,0,0,2.758-.031,5.854,5.854,0,0,1,4,.778c2.187,1.165,4.494,2.121,6.607,3.4,1.968,1.193,3.753,2.691,5.614,4.059.489.362.97.736,1.454,1.108-.082.107-.165.218-.247.328-.334-.22-.664-.452-1.007-.657-3.9-2.3-7.787-4.622-11.708-6.882-2.328-1.34-4.94-1.288-7.526-1.44a30.2,30.2,0,0,0-18.5,4.493c-.266.171-.519.363-.768.558a4.155,4.155,0,0,0-.373.571,26.728,26.728,0,0,0,2.914-.891c2.6-1.155,5.15-2.429,8.034-2.772,5.187-.615,10.437-1.2,15.363.938a65.4,65.4,0,0,1,8.772,5.125c1.886,1.2,3.629,2.618,5.434,3.942-.057.1-.116.2-.173.306.16-.045.319-.094.526-.154.042.2.084.39.145.668-.252-.034-.46,0-.587-.089-1.872-1.274-3.729-2.571-5.6-3.851-1.111-.758-2.2-1.57-3.366-2.219-2.207-1.222-4.445-2.393-6.725-3.474a6.145,6.145,0,0,0-1.98-.115,19.927,19.927,0,0,1-2.44-.286C269.024,2155.23,268.063,2154.911,267.092,2154.638Z" transform="translate(-222.153 -2124.623)"/><path class="a" d="M224.262,2185.092c1.41-2.121,2.8-4.252,4.234-6.355,2.615-3.83,4.985-7.865,7.95-11.405,3.528-4.21,7.551-8.014,11.419-11.935a9,9,0,0,1,2.456-1.541c1.321-.657,2.755-1.1,4.029-1.835,2.951-1.693,6.192-1.724,9.38-1.541a119.285,119.285,0,0,1,12.631,1.394,25.9,25.9,0,0,1,5.751,2.217c1.353.587,2.652,1.306,3.958,2,.348.183.635.482.98.677q1.124.756,2.245,1.514c-.091.156-.182.307-.274.464a6.341,6.341,0,0,1-1.632-.77c-2.614-2.306-5.884-3.361-8.992-4.656-1.642-.686-3.57-.682-5.367-1a29.891,29.891,0,0,0-4.489-.785c-3.368-.063-6.741.074-10.113.183a4.859,4.859,0,0,0-1.565.489c-4.069,1.672-7.872,3.707-10.852,7.093-1.649,1.879-3.6,3.487-5.316,5.306-1.082,1.138-1.973,2.456-2.985,3.659-.561.671-1.195,1.271-1.563,1.659-3.131,4.605-6.089,8.963-9.049,13.316-.1-.067-.193-.133-.291-.2-.472,1.933-1.583,3.139-2.992,3.229.025-.292.047-.583.074-.936-.471.2-.845.348-1.219.5-.134-.055-.271-.109-.405-.166a6.106,6.106,0,0,1,.432-1.629c1.689-2.83,3.434-5.624,5.165-8.427.83-1.344,1.669-2.684,2.511-4.037l-.257-.725a4.127,4.127,0,0,1,.277-.516,68.115,68.115,0,0,1,14.325-14.859,3.918,3.918,0,0,1,1.111-.4l.242.385a9.557,9.557,0,0,1-.805,1.054c-2.97,2.918-6.012,5.767-8.9,8.76a29.016,29.016,0,0,0-3.14,4.355c-.363.428-.729.855-1.089,1.286a9.075,9.075,0,0,0-.78.966c-1.454,2.314-2.879,4.646-4.336,6.958-.968,1.533-2.017,3.02-2.936,4.58a4.444,4.444,0,0,0-.24,1.583C223.983,2185.028,224.121,2185.058,224.262,2185.092Z" transform="translate(-222.265 -2125.576)"/><path class="a" d="M254.33,2203.992c-2.933,1.014-5.948,2.052-8.96,3.092.044.155.087.311.133.466,1.392-.282,2.8-.516,4.172-.855,4.83-1.19,9.641-2.467,14.481-3.612A52.4,52.4,0,0,1,278,2201.547c.281.012.56.029,1.314.067-.635.733-1.039,1.191-1.439,1.655-.114-.087-.224-.174-.336-.259V2202c-1.279,1.713-2.859,1.4-4.459,1.165-.422-.061-.9.267-1.664.522-.067-.013-.474-.105-.882-.193,0,.079.008.156.012.235-.75.086-1.5.129-2.244.266-3.106.568-6.227,1.079-9.3,1.778-3.518.8-6.988,1.816-10.493,2.675a16.528,16.528,0,0,1-2.314.119c-1.222.123-2.447.242-3.656.456-3.313.59-6.619,1.229-9.926,1.846l-.035-.348c-.328-.185-.657-.368-.941-.526-.3.126-.528.223-.761.324-.062-.1-.123-.21-.183-.314a6.237,6.237,0,0,1,1.358-.644c3.148-.652,6.336-1.136,9.449-1.916a26.876,26.876,0,0,0,5-2.035,48.189,48.189,0,0,1,12.061-3.936c2.024-.382,4-1.051,5.988-1.6,1.165-.317,2.326-.644,3.548-.978.03.3.047.455.066.627.121-.014.2-.02.276-.032,2.163-.333,4.326-.657,6.488-1.007.936-.149,1.862-.353,2.8-.531.282-.054.605-.2.849-.126a19.153,19.153,0,0,1,1.785.756c-.366.513-.733,1.029-1.1,1.543-.118-.079-.237-.156-.355-.233.05-.163.1-.328.193-.635-.4.125-.731.227-1.2.368-.071-.113-.182-.285-.081-.13-2.933.36-5.647.874-8.41,1.239a78.711,78.711,0,0,0-7.75,1.851c-2.025.482-4.062.91-6.1,1.341A7.944,7.944,0,0,1,254.33,2203.992Z" transform="translate(-216.533 -2093.307)"/><path class="a" d="M234.838,2186.7c.055.063.187.2.208.227-1.329,2.252-2.607,4.418-3.983,6.748-.109-.173-.03-.049.114.185-1.355,1.434-2.728,2.889-4.316,4.568-.018.916-3.14,3.736-4.13,3.173a12.075,12.075,0,0,1,.761-1.254c1.492-1.908,3.082-3.745,4.5-5.706,1.276-1.771,2.375-3.667,3.538-5.518,4.1-6.511,8.131-13.069,12.345-19.506a20.7,20.7,0,0,1,4.254-4.471,38.275,38.275,0,0,1,12.068-6.624,10.666,10.666,0,0,1,8.1.195c4.967,2.257,10,4.424,14.113,8.14,1.067.965,1.94,2.143,2.965,3.155,1.081,1.065,2.262,2.025,3.345,3.085a2.708,2.708,0,0,1,.524,1.212c3.693,4.217,5.272,7.061,5.486,10.162-.3-.034-.571-.065-.464-.052-.608-1.333-1.039-2.43-1.6-3.454-.576-1.064-1.281-2.058-1.971-3.143.054-.123.131-.3.207-.472-.111.072-.224.144-.336.22-1.871-2.292-3.716-4.6-5.617-6.873-4.177-4.977-9.587-8.2-15.513-10.6a41.675,41.675,0,0,0-5.509-1.555,2.335,2.335,0,0,0-1.235.187c-2.134.751-4.266,1.511-6.385,2.309a7.975,7.975,0,0,0-3.987,3.086,3.286,3.286,0,0,1-2.064.973,4.784,4.784,0,0,0-2.9,2.237,73.684,73.684,0,0,0-4.435,6.635c-1.814,2.98-3.454,6.066-5.272,9.044A44.964,44.964,0,0,1,234.838,2186.7Z" transform="translate(-221.947 -2120.528)"/><path class="a" d="M258.579,2192.433a11.194,11.194,0,0,0-1.383,1.161c-1.355,1.557-2.647,3.165-4,4.721a3.321,3.321,0,0,1-.976.545c-.1-.092-.2-.182-.3-.271a5.547,5.547,0,0,1,.7-1.552c3.289-3.617,6.6-7.225,9.975-10.765a4.884,4.884,0,0,0,1.528-2.923c.1-.908.605-1.84.476-2.693-.371-2.413-.671-4.919-2.931-6.752-.42.322-1.017.568-1.274,1.01-.877,1.5-1.664,3.064-2.434,4.627-.664,1.348-1.242,2.741-1.892,4.1a30.526,30.526,0,0,0-1.751,3.529,32.919,32.919,0,0,1-11.225,16.189c-1.019.79-1.953,1.689-2.95,2.513a8.274,8.274,0,0,1-1.109.637c-2.886,3.1-7,4.721-10.429,7.338-.316-.242-.534-.411-.938-.726a13.592,13.592,0,0,1,1.476-1.242c8.113-5.005,15.372-10.917,20.577-19.073a113.058,113.058,0,0,0,7.583-15.084,18.92,18.92,0,0,1,1.76-3.344c1.456-2.039,3.513-1.941,4.857.136a13.865,13.865,0,0,1,2.173,9.05c-.2,2.162-1.829,3.33-3.239,4.676-1.447,1.382-2.79,2.869-4.177,4.313Z" transform="translate(-218.591 -2110.264)"/><path class="a" d="M252.512,2158.146c2.961-2.994,6.667-3.214,10.478-3.009,7.607.41,14.123,3.593,20.1,8.059,2.279,1.7,4.461,3.535,6.694,5.3a5.631,5.631,0,0,0,.666.4c-.084.131-.165.26-.245.39a2.9,2.9,0,0,1-.985-.287c-2.98-2.263-5.926-4.568-8.913-6.824a20.691,20.691,0,0,0-1.872-1c-1.035-.624-2.045-1.291-2.968-1.874-.576-.188-1.074-.308-1.54-.509-4.464-1.928-9.025-3.306-13.96-2.308a28.942,28.942,0,0,0-3.257,1.057c.022-.2.045-.394.079-.7a4.238,4.238,0,0,0-.755.3c-1.519.981-3,2.021-4.551,2.95-.635.383-1.5.41-2.1.832-5.733,4.052-9.706,9.577-12.987,15.678-.318.6-.857,1.077-1.18,1.689-1.23,1.8-2.462,3.6-3.94,5.763-1.582,1-2.045,3.241-3.262,5.051-.432.487-.919,1.035-1.407,1.582l.21.217c-.373.178-.748.361-1.163.564.139.219.264.409.494.765-.526.333-1.03.648-1.649,1.04-.513.911-1.108,1.975-1.7,3.039a5.1,5.1,0,0,1,.56-4.341c1.007-1.708,2.18-3.323,3.316-4.953.166-.237.528-.34.709-.447.479-.719.916-1.393,1.366-2.057,3.143-4.62,6.114-9.37,9.483-13.819a130.179,130.179,0,0,1,8.943-10.182A7.578,7.578,0,0,1,252.512,2158.146Z" transform="translate(-222.076 -2122.393)"/><path class="a" d="M287.339,2168.754q1.326,1.452,2.654,2.909c-.054.042-.106.081-.156.124a5.516,5.516,0,0,1,.908.719c.812.973,1.627,1.948,2.348,2.985a2.191,2.191,0,0,1,.232,1.6c-2.622-2.983-5.245-5.97-7.646-8.7a22.415,22.415,0,0,1-2.61-1.844c-3.25-3.118-7.2-5.012-11.175-7.024-7.051-3.578-13.34-1.855-19.629,1.792a30.574,30.574,0,0,0-11.827,12.318c-1.279,2.392-2.709,4.706-4.109,7.12l-.3.042-6.978,10.841c.02.019.039.041.061.057l-1.276,1.634c-.281.723-.449,1.16-.617,1.595-.1-.035-.2-.072-.292-.109-.062.25-.124.5-.192.767-.387.031-.746.062-1.089.092-.324,1.807-.467,1.923-1.612,1.269q-.464.847-.926,1.691l-.348-.118a10.824,10.824,0,0,1,.783-2.217c.919-1.49,2-2.879,2.973-4.336,5.116-7.641,10.194-15.311,15.335-22.933,4.314-6.4,10.55-10.11,17.846-11.963,4.689-1.194,9.267.059,13.61,2,4.884,2.188,9.056,5.47,13.214,8.76a3.57,3.57,0,0,1,.622,1.029C287.208,2168.825,287.272,2168.79,287.339,2168.754Z" transform="translate(-221.927 -2121.357)"/><path class="a" d="M279.391,2144.256c.318-.205.595-.385.94-.612.1.317.16.531.242.807.2-.079.4-.155.642-.249,1.239,1.024,2.486,2.047,3.729,3.077l-.176.255-3.624-2.083-3.871-1.272a1.612,1.612,0,0,0-.376-.116c-3.294-.24-6.587-.648-9.883-.673a31.668,31.668,0,0,0-16.557,4.6c-.129.076-.249.171-.6.422a5.239,5.239,0,0,0,1.039-.009c2.219-.563,4.479-1.012,6.637-1.758a29.329,29.329,0,0,1,17.121-.778c.918.229,1.876.3,2.792.541a7.135,7.135,0,0,1,1.358.706c-.224.383-.34.578-.5.857-1.089-.284-2.146-.573-3.212-.835a29.923,29.923,0,0,0-13.389-.671,8.184,8.184,0,0,0-2.333.893,12.044,12.044,0,0,1-5.237,1.588c-.558.127-1.119.239-1.671.386a29.413,29.413,0,0,0-4.561,1.3,49.055,49.055,0,0,0-5.264,3.029c-.876.54-1.647,1.249-2.518,1.8a14.756,14.756,0,0,1-1.842.872c-.753.577-1.407,1.052-2.042,1.557a25.231,25.231,0,0,0-3.027,2.491c-2.58,2.815-5.04,5.741-7.588,8.59a8.713,8.713,0,0,1-1.54,1.1l-.291-.328c.4-.592.788-1.2,1.208-1.775a65.652,65.652,0,0,1,18.683-17.18c4.118-2.556,8.158-5.25,12.849-6.73a36.962,36.962,0,0,1,21.957-.159C278.788,2143.994,279.073,2144.133,279.391,2144.256Z" transform="translate(-221.228 -2131.083)"/><path class="a" d="M266.562,2167.121c-.387-.262-.619-.422-.775-.524-.948-.057-1.819-.069-2.681-.162a7.051,7.051,0,0,0-5.382,1.963c-.827.688-1.543,1.508-2.329,2.249-2.929,2.76-4.889,6.243-7,9.594-2.086,3.317-3.923,6.793-5.918,10.168a24.923,24.923,0,0,1-1.649,2.085,3.843,3.843,0,0,0-.787,1.73l-.592.333c.082.069.16.136.24.2-.467.572-.933,1.14-1.4,1.709a4.409,4.409,0,0,1-2.778,3.12c-2.415,3.634-5.758,6.094-8.246,9.346-.081-.075-.158-.151-.235-.225-.225.356-.45.713-.708,1.116-.323-.227-.529-.368-.763-.531l-1.029.781c-.094-.077-.193-.154-.289-.23a11.028,11.028,0,0,1,1.24-1.743,111.047,111.047,0,0,0,21.616-29.132,39.588,39.588,0,0,1,9.3-11.3c2.708-2.36,5.916-2.86,9.341-2.3.444.072.842.586,1.187.966C267,2166.414,266.716,2166.809,266.562,2167.121Z" transform="translate(-220.915 -2115.528)"/><path class="a" d="M234.822,2206.994c.1.163.2.328.328.531-.407.162-.807.318-1.244.489-.232-.324-.454-.633-.825-1.15.082.558.128.868.193,1.314l-.983-.729c.05.365.087.606.129.9-.706.608-1.343,1.552-2.461.893-.324-.192-.382-.842-.56-1.281.126-.047.252-.094.376-.143.161.336.321.672.482,1,.229-.138.427-.259.718-.432-.252-.3-.514-.612-.78-.926.422-.8,3.926-1.708,4.894-1.054,2.95-1.071,6.066-2.128,9.123-3.33,4.4-1.729,8.75-3.575,13.563-3.793a.778.778,0,0,0,.308-.065c3.642-1.913,7.909-1.65,11.624-3.334a8.125,8.125,0,0,1,2-.281c1.724-.913,3.689-2.332,6.109-1.445,1.914-.61,3.506.139,5.345.867l-1.561.9c-.244-.116-.45-.211-.655-.308-.007.074-.013.145-.02.219q-2.309-.131-4.622-.261c-.013.047-.029.094-.04.14a10.373,10.373,0,0,0-1.513.21c-1.785.529-3.553,1.1-5.353,1.535a4.578,4.578,0,0,1-.955.546c-5.335,1.479-10.7,2.837-16.007,4.425-4.832,1.445-9.6,3.119-14.382,4.731-1.113.373-2.15.59-3.106-.546C234.908,2206.747,234.864,2206.871,234.822,2206.994Z" transform="translate(-217.408 -2095.977)"/><path class="a" d="M286.306,2153.8a9.468,9.468,0,0,1-1.516-.5c-5.509-2.88-11.56-3.689-17.579-4.613a38.1,38.1,0,0,0-7.193-.884c-4.378.185-8.451,1.809-12.306,3.785-2.78,1.423-5.356,3.242-8.039,4.855-.65.39-1.373.661-2.062.986-.061-.092-.118-.183-.176-.272-2.982,3.247-5.965,6.5-8.992,9.79.024.06.084.213.161.4-1.76,1.146-2.4,3.614-4.856,4,.413-1.75,2-3.709,2.78-3.642a9.769,9.769,0,0,1,.7-1.412c5.447-7.673,12.784-12.957,21.249-16.836a30.537,30.537,0,0,1,19.819-1.874c4.805,1.059,9.73,1.672,14.281,3.706,1.1.492,2.151,1.107,3.212,1.694a3.858,3.858,0,0,1,.647.585C286.39,2153.64,286.348,2153.718,286.306,2153.8Z" transform="translate(-221.256 -2128.07)"/><path class="a" d="M230.547,2209.026a5.69,5.69,0,0,1,.805-.423c13.567-4.582,27.249-8.764,41.164-12.17a23,23,0,0,1,8.33-.267c.8.1,1.435.445,1.472,1.392l-8.331.6c-3.8.832-8.308,1.818-12.81,2.8a.647.647,0,0,0,.04.057c-.743.2-1.486.405-2.229.6-.013-.072-.03-.146-.045-.222a7.322,7.322,0,0,1-1.415.648,78.342,78.342,0,0,0-13.97,4.77,22.545,22.545,0,0,1-8.049,1.846,20.726,20.726,0,0,0-3.634,1.028,3.949,3.949,0,0,1-1.356-.17C230.528,2209.354,230.538,2209.191,230.547,2209.026Z" transform="translate(-216.647 -2094.597)"/><path class="a" d="M278.277,2187.461c-1.654-.847-1.792-2.264-2.417-3.361-.373-.652-.864-1.24-1.225-1.9-.34-.625-.577-1.3-.919-2.091.1-.017-.106.019-.424.077a6.394,6.394,0,0,1-.7-.843c-.345-.572-.566-1.222-.95-1.762q-2.839-4-5.762-7.95a2.116,2.116,0,0,0-1.287-.669c-.2-.363-.4-.728-.617-1.133-.2-.092-.434-.2-.719-.338-.2-.958-.718-1.4-1.887-.832a98.854,98.854,0,0,1,15.479,23.471c-.17.288-.3.508-.449.763,1.813.94,1.5,2.873,2.175,4.346-.1.064-.205.126-.306.19l-3.183-4.7c.141-.09.281-.179.424-.268q-3.192-5.9-6.385-11.8a50.765,50.765,0,0,0-7.694-10.37c-1.2-1.348-2.077-2.339-2.956-3.333A8.783,8.783,0,0,0,254,2162.35a4.178,4.178,0,0,1-1.274-.771,9.036,9.036,0,0,0-5.763-1.828,4.174,4.174,0,0,1-1.138-.3c.01-.145.02-.289.03-.43a3.011,3.011,0,0,1,1.1-.18,22.269,22.269,0,0,1,5.23,1.4c4.109,2.135,8.167,4.4,12.044,6.919a17.614,17.614,0,0,1,5.156,5.536c.919,1.462,2.244,2.669,3.177,4.125,1.935,3.01,3.74,6.1,5.558,9.184A4.374,4.374,0,0,1,278.277,2187.461Z" transform="translate(-206.228 -2119.847)"/><path class="a" d="M235.741,2183.576c.336-.57.659-1.146,1.008-1.7q2.667-4.255,5.346-8.5c1.943-3.089,3.845-6.207,5.861-9.254.729-1.106,1.5-1.262,2.3-.788-.509.669-1.022,1.324-1.514,1.993a42.261,42.261,0,0,0-5.41,9.323c-.936,2.336-2.782,4.3-4.21,6.448-.171.254-.255.563-.408.83a31,31,0,0,1-2.817,4.355c-.044.23-.089.456-.133.686-.116-.035-.232-.066-.346-.1a12.993,12.993,0,0,1-.662,1.987,3.032,3.032,0,0,1-1.329,1.264c-.215.712-.429,1.427-.642,2.138l-.161-.135c-1.388,1.6-2.721,3.249-4.175,4.789-1.434,1.519-2.393,3.568-5.086,4.42.292-.735.429-1.18.639-1.585,2.086-4.017,6.385-6.229,8.42-10.293q1.046-2.083,2.18-4.118c.34-.608.788-1.153,1.187-1.726A.26.26,0,0,0,235.741,2183.576Z" transform="translate(-221.519 -2116.949)"/><path class="a" d="M229.244,2171c-.15-.1-.289-.2-.392-.272-.61.41-1.192.8-1.582,1.055-.887,1.184-1.662,2.215-2.437,3.248a.579.579,0,0,1,.067.033l-1.918,1.916c-.629-.486-.291-1.02.126-1.521,3.042-3.656,6.071-7.321,9.141-10.953,3.054-3.608,6.362-6.941,10.6-9.185,2.578-1.361,5.138-2.773,7.788-3.981a41.486,41.486,0,0,1,9.962-2.993,8.558,8.558,0,0,1,1.543-.014c.037.155.072.307.109.46a19.879,19.879,0,0,1-3.6,1.333,30.476,30.476,0,0,0-8.215,3.063,14.808,14.808,0,0,0-2.148,1.323,7.719,7.719,0,0,1-3.649,1.428,7.236,7.236,0,0,0-3.733,2.007c-3.072,3.014-6,6.188-8.906,9.365A45.317,45.317,0,0,0,229.244,2171Z" transform="translate(-222.012 -2127.008)"/><path class="a" d="M225.341,2161.7a3.208,3.208,0,0,1,.449-.6c6.319-5.308,12.565-10.721,20.007-14.472,1.691-.852,3.449-1.575,5.178-2.358.24-.107.553-.154.706-.337,2.583-3.138,6.3-2.9,9.777-3.153a81.222,81.222,0,0,1,8.343.105c.343.01.672.37,1.01.566-.052.125-.1.247-.15.372-.849,0-1.7-.037-2.55.007-3.782.2-7.58.291-11.336.726-1.306.15-2.516,1.17-3.76,1.814-.734.379-1.442.818-2.175,1.208-1.089.58-2.182,1.154-3.284,1.709a40.255,40.255,0,0,0-4.274,2.16c-3.382,2.254-6.676,4.639-9.992,6.99a7.65,7.65,0,0,0-1.486,1.292c-1.047,1.266-2.057,2.41-3.9,2.642-.844.107-1.592,1-2.382,1.528C225.464,2161.832,225.4,2161.763,225.341,2161.7Z" transform="translate(-220.171 -2132.184)"/><path class="a" d="M274.813,2202.012c-.037.163-.074.324-.123.535.217.062.43.123.644.181,0,.072-.005.139-.008.212H272.67l.039.091c-3.788.642-7.575,1.291-11.362,1.919-2.99.5-6,.919-8.967,1.5a4.091,4.091,0,0,0-1.491.98L240.5,2209.8c-.022-.074-.042-.148-.062-.222-.193.168-.383.334-.6.523-.215-.113-.415-.213-.64-.333-.235.2-.471.4-.748.637-.143-.217-.264-.4-.385-.588-.013.121-.025.24-.037.365a22.42,22.42,0,0,1-2.738-.172c-.85-.155-1.935.466-2.506-.719.173.077.348.151.383.168.531-.212.955-.383,1.378-.553.035.074.069.149.1.225-.187.129-.375.26-.881.6.583-.1.815-.119,1.039-.176,3.087-.785,6.161-1.623,9.264-2.343,2.156-.5,4.387-.7,6.518-1.279,6.314-1.7,12.627-3.339,19.19-3.792,1.353-.094,2.657-.548,4.01.01C274.05,2202.262,274.434,2202.075,274.813,2202.012Z" transform="translate(-215.105 -2090.534)"/><path class="a" d="M230.953,2155.022c-.363,1.27-3.491,3.583-4.323,3.156.077-.9,4.849-5.015,5.479-5.1a44.9,44.9,0,0,1,3.654-3.226c3.9-2.721,7.908-5.225,12.58-6.5a9.459,9.459,0,0,0,2.908-1.82c.97-.733,1.889-1.469,2.58-1.294,5.97-1.311,11.338-2.062,16.9-.721-.111.2-.138.316-.208.375a3.327,3.327,0,0,1-.44.262c-.192-.116-.388-.23-.582-.346,0,.069-.005.142-.007.212h-2.748c0-.078,0-.151-.005-.229-.595-.058-1.188-.111-1.782-.167.01.079.02.155.03.234-1.121.121-2.242.244-3.365.361-2.061.222-4.136.35-6.178.689a12.806,12.806,0,0,0-4.938,2.269c-2.5,1.659-5.459,2.622-8.061,4.158-1.77,1.044-3.894,1.587-5.2,3.4-.345.477-1.042.692-1.553,1.06-1.365.98-2.714,1.987-4.079,2.972A3.1,3.1,0,0,1,230.953,2155.022Z" transform="translate(-219.294 -2133.471)"/><path class="a" d="M266.132,2184.368c0,.946,0,1.891,0,2.837,0,.1-.1.215-.074.3.877,2.59-1.718,3.827-2.309,5.852-.111.371-.745.635-1.185.86-1.745.9-3.54,1.7-5.256,2.654-2.608,1.443-5.133,3.042-7.758,4.452a44.957,44.957,0,0,1-5.061,2.224c-.4.155-.963-.09-1.452-.158-.005-.135-.012-.272-.018-.41a7.149,7.149,0,0,1,.861-.627c3.935-2.015,7.92-3.938,11.8-6.059a34.394,34.394,0,0,0,7.182-4.665c1.393-1.306,2.876-3.17,2.3-5.617-.121-.519.25-1.154.395-1.736C265.745,2184.307,265.938,2184.339,266.132,2184.368Z" transform="translate(-208.14 -2102.52)"/><path class="a" d="M268.246,2204.28a24.542,24.542,0,0,1,2.721-.819c.334-.065.755.331,1.185.54-.229.383-.38.629-.521.866-.437.165-.874.328-1.383.518-.094-.114-.229-.277-.392-.472-1.215.865-2.521.77-3.935.661a20.009,20.009,0,0,0-4.9.341c-2.5.437-4.968,1.064-7.444,1.624-1.775.4-3.553.781-5.306,1.261a10.881,10.881,0,0,0-1.578.9,7.737,7.737,0,0,0-1.121.446c-2.494.472-4.99.948-7.666,1.456.057.067-.069-.081-.185-.226l-2.694-.153c-.024-.163-.05-.328-.076-.494a5.687,5.687,0,0,1,1.062-.244,18.53,18.53,0,0,0,2.314-.029c2.506-.456,4.993-1,7.488-1.516.207-.042.407-.11.608-.17,4.405-1.314,8.81-2.641,13.222-3.937a3.239,3.239,0,0,1,.992-.013A12.827,12.827,0,0,1,268.246,2204.28Z" transform="translate(-213.627 -2089.465)"/><path class="a" d="M250.193,2199.862c-1.291.507-3.054,1.252-4.864,1.859-.313.1-.82-.383-1.237-.6.271-.346.466-.839.819-1.015q8.768-4.419,17.579-8.748a24.991,24.991,0,0,1,3.635-1.345,2.006,2.006,0,0,1,2.477.882c.175.292.027.782.027,1.21l-2.963-.655c-.173.444-.274.706-.375.966l-.151-.215a25.48,25.48,0,0,1-2.566,1.345c-1.136.45-2.331.748-3.372,1.07-1.576.731-3.118,1.319-4.526,2.133S251.993,2198.6,250.193,2199.862Z" transform="translate(-207.407 -2098.696)"/><path class="a" d="M253.166,2195.945a9.783,9.783,0,0,1,1.531-.892c2.889-1.057,5.761-2.187,8.716-3.034a9.314,9.314,0,0,1,3.809.059c.612.089,1.151.694,1.859,1.153-.424.264-.612.385-.819.513.1.151.185.291.272.43l-.129.151c-.361-.251-.723-.5-1.126-.78-.094.109-.245.276-.21.24H264.9c-.892-.681-1.871-.007-2.946.469-1.306.582-2.7.973-4.054,1.439-1.807.612-3.617,1.212-5.424,1.823-.97.33-1.935.667-3.264,1.128.1-.61.04-1.218.24-1.319,1.176-.609,2.412-1.1,3.627-1.625Z" transform="translate(-203.925 -2097.372)"/><path class="a" d="M251.2,2197.483l-.891-.38c.035.093.069.185.1.277-1.039.444-2.069.908-3.118,1.325q-6.038,2.377-12.086,4.728a5.7,5.7,0,0,1-1.461.562,6.737,6.737,0,0,1-1.79-.414,8.094,8.094,0,0,1,1.508-1.256c2.353-.951,4.741-1.814,7.1-2.739,2.076-.812,4.124-1.7,6.209-2.494a25.776,25.776,0,0,1,3.454-1.053c.3-.068.753.266,1.027.528C251.384,2196.687,251.238,2197.083,251.2,2197.483Z" transform="translate(-215.665 -2094.518)"/><path class="a" d="M272.481,2156.244l.988-.516c.195.269.4.553.645.893a1.964,1.964,0,0,1-2.566-.176,42,42,0,0,0-3.993-2.628c-.7-.3-1.427-.547-2.092-.91a7.129,7.129,0,0,0-4.76-1.064,3.26,3.26,0,0,1-1.109.113c-4.6-1.765-9.288-2.839-14.226-1.281-.047-.279-.081-.348-.061-.378a5.874,5.874,0,0,1,4.118-1.644c.955.169,1.946.167,2.891.373,2.106.462,4.193,1.012,6.291,1.514a4.62,4.62,0,0,0,1.15.2c3.7-.087,6.877,1.56,10.093,3.062a8.976,8.976,0,0,1,1.9,1.324A5.253,5.253,0,0,1,272.481,2156.244Z" transform="translate(-206.584 -2126.786)"/><path class="a" d="M267.661,2196.739c1.061.327,1.454,1.195.519,2.217a24.544,24.544,0,0,1-1.555-1.954c-1.415-2.2-2.894-4.372-4.109-6.683a15.448,15.448,0,0,1-.872-3.694,7.539,7.539,0,0,0-.333-.961q-1.969-5.027-3.945-10.054a6.831,6.831,0,0,1-.417-1.013,3.3,3.3,0,0,1,.054-.893c.182-.037.365-.077.546-.116q1.286,3.126,2.568,6.251c1.731,3.5,2.42,7.368,4.079,10.843.356.733.716,1.464,1.072,2.195l.15-.094C266.1,2193.994,266.792,2195.206,267.661,2196.739Z" transform="translate(-198.668 -2109.796)"/><path class="a" d="M249.032,2139.862c-.156.242-.266.641-.477.706-2.245.728-4.508,1.4-6.763,2.1a4.83,4.83,0,0,0-1.22.5c-.859.562-1.654,1.222-2.518,1.773-1.474.941-3.045,1.74-4.457,2.767-1.284.93-2.4,2.1-3.614,3.126a4.783,4.783,0,0,1-1,.514c-.108-.128-.217-.259-.326-.387q.673-.787,1.348-1.578c-.013-.045-.024-.092-.034-.136,1.38-1.021,2.77-2.027,4.136-3.067.456-.347.81-.833,1.279-1.153,1.819-1.259,3.645-2.507,5.518-3.682a3.35,3.35,0,0,1,1.5-.249,11.4,11.4,0,0,0,2.072-.075c1.461-.39,2.884-.924,4.319-1.4C248.874,2139.7,248.953,2139.783,249.032,2139.862Z" transform="translate(-217.915 -2132.919)"/><path class="a" d="M268.947,2149.448q1.613.9,3.232,1.807c-.091.2-.18.393-.271.588-1.069-.36-2.153-.684-3.208-1.084-1.708-.647-3.356-1.477-5.1-1.983-2.65-.766-5.351-1.376-8.056-1.936-.934-.192-1.941-.03-2.924-.187l-7.175-.425c.02-.2.04-.395.059-.592C253.607,2144.8,261.315,2146.64,268.947,2149.448Z" transform="translate(-206.488 -2128.959)"/><path class="a" d="M233.176,2145.119c-.005.037-.034.239-.066.44q-.623.388-1.247.773c-.126-.046-.25-.091-.378-.136.151-.378.187-.938.464-1.11,4.251-2.628,8.289-5.721,13.227-6.979,3.279-.837,6.644-1.338,9.975-1.955a1.24,1.24,0,0,1,1.057.479c-.234.05-.467.094-.7.151-4.513,1.12-9.029,2.222-13.531,3.382a3.793,3.793,0,0,0-1.469.9,5.817,5.817,0,0,1-3.037,1.6c-1.084.185-2.007,1.274-3.025,1.928A8.061,8.061,0,0,1,233.176,2145.119Z" transform="translate(-215.989 -2135.287)"/><path class="a" d="M262.549,2192.855a2.074,2.074,0,0,1-1.985-2.062c-.459-.551-.85-1.023-1.36-1.639a15.744,15.744,0,0,1-1.743,1.5,4.6,4.6,0,0,1-1.444.37c.1-.487.052-1.111.341-1.443,1.565-1.789,2.687-2.281,4.467-.29a17.031,17.031,0,0,0,7.3,4.773,4.977,4.977,0,0,1,.687.479c-.575.217-.977.533-1.274.454-1.425-.368-2.83-.816-4.219-1.306C263.037,2193.6,262.857,2193.2,262.549,2192.855Z" transform="translate(-199.289 -2099.979)"/><path class="a" d="M262.541,2205.771a3.172,3.172,0,0,1-.973.551c-1.383.2-2.793.23-4.16.492a24.846,24.846,0,0,0-3.1,1.012,10.27,10.27,0,0,1-2.2.555h-2.652c-.074.108-.229.334-.427.627-.284-.128-.538-.241-.792-.35.01.09.02.183.029.277-1.45.123-2.9.249-4.383.375-.005-.009.049.126.239.612-.716-.355-1.178-.583-1.64-.814.034-.167.069-.337.1-.506l4.481-.293c-.017-.083-.034-.165-.049-.248,2.19-.363,4.38-.728,6.689-1.112a19.539,19.539,0,0,0,4.175-1.34c1.563-.894,2.98.073,4.44-.195C262.394,2205.534,262.467,2205.653,262.541,2205.771Z" transform="translate(-208.506 -2088.262)"/><path class="a" d="M237.144,2140.9c7.106-1.984,14.209-3.967,21.748-3.409.01.118.018.233.027.351l-4.6.208-4.007.536c0,.04,0,.08.005.123a6.367,6.367,0,0,0-1.985.307c-2.039,1.064-4.232,1.125-6.439,1.34a16.677,16.677,0,0,0-3.269,1.126,8.857,8.857,0,0,1-1.375.23C237.218,2141.437,237.179,2141.167,237.144,2140.9Z" transform="translate(-212.137 -2134.435)"/><path class="a" d="M229.261,2162.816a5.132,5.132,0,0,1-.456,1.212c-.5.731-1.119,1.388-1.639,2.111-.18.252-.2.615-.4.781-.252.4-.5.81-.755,1.214.039.015.076.027.113.04l-3.356,4.768c-.1-.019-.212-.033-.318-.052a4.416,4.416,0,0,1,.222-1.444c.815-1.531,1.679-3.042,2.612-4.5.761-1.19,1.632-2.313,2.487-3.439a8.1,8.1,0,0,1,1-.928Z" transform="translate(-222.138 -2117.291)"/><path class="a" d="M243.319,2185.591q1.6-3.257,3.193-6.519c.136.023.276.043.415.064.029.467.229,1.008.06,1.386q-1.114,2.517-2.43,4.937c-.161.3-.734.371-1.118.548C243.4,2185.867,243.359,2185.731,243.319,2185.591Z" transform="translate(-207.933 -2106.062)"/><path class="a" d="M230.795,2199.459l-.9,1.023c-.733.1-1.39.185-2.077.276h-1.775c-.02-.015-.249-.2-.66-.535l1.024-.1c-.039-.093-.077-.184-.114-.277.6-.259,1.205-.516,2.116-.908C229.425,2197.478,229.7,2197.491,230.795,2199.459Z" transform="translate(-220.146 -2093.242)"/><path class="a" d="M245.526,2135.921q-5.685,2.355-11.367,4.713l-.124-.113,2.2-1.518c3.039-1.118,6.106-2.244,9.177-3.371C245.449,2135.728,245.484,2135.825,245.526,2135.921Z" transform="translate(-214.253 -2135.632)"/><path class="a" d="M230.141,2152.814l-5.95,6.355c.387-.935.691-1.664,1-2.405l.81-.138v-.679C227.917,2153.486,229.062,2152.577,230.141,2152.814Z" transform="translate(-220.954 -2123.961)"/><path class="a" d="M254.27,2140.783a7.367,7.367,0,0,0,1.456.543,5.115,5.115,0,0,0,1.22-.165c.171.271.291.467.294.471,1.118.189,2.091.358,3.066.524-.018.094-.039.189-.057.287l-7.531-.69c-.027-.076-.054-.15-.082-.225C253.262,2141.242,253.891,2140.958,254.27,2140.783Z" transform="translate(-201.592 -2132.126)"/><path class="a" d="M261.369,2147.7q-2.342-.858-4.681-1.711c.077-.212.153-.425.23-.639l4.706,1.664C261.539,2147.24,261.455,2147.469,261.369,2147.7Z" transform="translate(-198.833 -2129.018)"/><path class="a" d="M250.1,2206.919h4.16c-.229.182-.519.605-.84.632-1.1.087-2.207.034-3.313.034C250.1,2207.363,250.1,2207.141,250.1,2206.919Z" transform="translate(-203.318 -2087.106)"/><path class="a" d="M263.346,2194.555l-.455-.825c-.136.264-.234.454-.318.615-.373-.215-.75-.428-1.326-.756-.037-.2-.109-.615-.2-1.1,1.129.449,2.14.847,3.393,1.341C263.954,2194.154,263.667,2194.345,263.346,2194.555Z" transform="translate(-195.864 -2096.927)"/><path class="a" d="M226.942,2202.441c-.081-.531-.141-.911-.212-1.365.131-.116.3-.26.222-.193.345.452.642.837.936,1.224q.255-.242.5-.484c-.1-.186-.2-.373-.3-.561.044-.043.091-.087.138-.131.378.35.756.7,1.277,1.18C228.49,2202.243,227.718,2202.342,226.942,2202.441Z" transform="translate(-219.226 -2091.227)"/></g><path class="b" d="M333.076,2244.031a21.57,21.57,0,0,0-3.919-2.877c-2.565-1.121-5.316-1.808-7.953-2.777a30.3,30.3,0,0,1-4.235-1.936c-3.4-1.9-6.562-4.177-10.18-5.737a102.71,102.71,0,0,1-9.488-5.023c-2.377-1.338-4.106-3.217-4.293-6.138a3.058,3.058,0,0,0-.277-.734c-.655-1.837-1.425-3.625-.514-5.647a17.512,17.512,0,0,0,.847-3.205c1.378-5.879,3.133-11.592,6.644-16.634a6.41,6.41,0,0,1,6.214-2.971,11.228,11.228,0,0,1,8.508,5.3c2.363,3.516,4.462,7.212,6.6,10.876,5.635,9.674,11.889,18.871,20.254,26.458,1.029.93,2.042,1.874,3.235,2.97h.541c-.4.455-.7.8-1.027,1.178l.669.172a.735.735,0,0,1-.842.154c-.666-.469-1.294-.993-1.921-1.518-1.973-1.657-3.938-3.321-6.035-5.091a2.726,2.726,0,0,1-.966-.4c-2.642-2.339-5.373-4.6-7.846-7.106a48.326,48.326,0,0,1-9.21-13.608c-1.41-3.01-3.345-5.772-4.738-8.786a21.136,21.136,0,0,0-2.9-4.683c-2.146-2.583-5.64-2.86-7.612-.576a20.927,20.927,0,0,0-4.911,13.345c-.042,1.195.518,2.452.314,3.591a5.5,5.5,0,0,0,2.148,5.533c.78.664,1.615,1.259,2.373,1.943,3.545,3.187,7.061,6.4,10.614,9.585a7.111,7.111,0,0,0,1.365.753q.154-.215.308-.427-3.643-3.185-7.289-6.365l-.027.037c-1.079-1.039-2.156-2.081-3.38-3.262,0,.1,0-.077-.005-.092a18.062,18.062,0,0,1-5.484-6.192,4.807,4.807,0,0,1-.091-1.323,13,13,0,0,1,1.185.9c.575.578,1.082,1.229,1.679,1.787,3.6,3.355,7.267,6.644,10.817,10.059,1.588,1.526,2.755,3.536,4.461,4.888,2.442,1.936,5.2,3.476,7.834,5.167a4.565,4.565,0,0,0,.971.353l.17-.3c-2.849-1.96-5.7-3.919-8.256-5.676a10.186,10.186,0,0,0-.882-1.338c-.99-1.021-2.034-1.988-3.03-3.007-1.854-1.889-3.647-3.842-5.545-5.684-2.388-2.318-4.891-4.516-7.283-6.826a5.739,5.739,0,0,1-1.419-6.877,7.339,7.339,0,0,1,.02-1.825,21.37,21.37,0,0,1,3.951-7.852,3.1,3.1,0,0,1,4.109-.894,9.33,9.33,0,0,1,4.444,4.653c1.8,3.461,3.454,7,5.3,10.436,3.121,5.835,6.677,11.4,11.668,15.839,3.007,2.676,6.319,5,9.435,7.56,1.874,1.54,3.651,3.193,5.435,4.835.973.9.945,1.661-.034,2.14-.511-.427-1.037-.869-1.566-1.309-.077.086-.156.173-.234.262-.437-.355-1.2-.662-1.25-1.069-.255-1.874-1.568-2.711-2.966-3.639-6.289-4.167-12.252-8.731-16.785-14.868-3.864-5.228-6.4-11.18-9.029-17.076a48.756,48.756,0,0,0-2.14-4.495c-.933-1.626-2.639-1.825-4.294-1.756-1.286.059-1.879,1.1-2.392,2.158-.5,1.034-1.092,2.022-1.577,3.061a6.934,6.934,0,0,0-.61,1.891c-.139.99-.133,2-.195,3a7.292,7.292,0,0,0,2.647,6.23c1.6,1.408,3.22,2.8,4.755,4.287,4.077,3.933,7.975,8.063,12.205,11.824,3.545,3.151,7.081,6.438,11.706,8.083.111.039.185.175.291.242q2.526,1.611,5.061,3.21a2.47,2.47,0,0,0-.939-1.382c-1.906-1.261-3.842-2.469-5.77-3.689a47.682,47.682,0,0,1-4.182-2.674c-2.422-1.91-4.726-3.963-7.084-5.953a13.9,13.9,0,0,1-3.17-4.168,49.228,49.228,0,0,0-4.143-6.007c-1.235-1.628-2.625-3.145-3.956-4.7a4.867,4.867,0,0,0-.571-.5c-.632-.558-1.479-1-1.854-1.7a10.217,10.217,0,0,1-.667-7.762,5.824,5.824,0,0,1,1.166-1.608c.553.432,1.408.763,1.6,1.321a22.591,22.591,0,0,1,1.639,6.192,9.853,9.853,0,0,0,2.946,6.9,38.014,38.014,0,0,1,3,3.657c1.861,2.444,3.429,5.171,5.568,7.333a75.981,75.981,0,0,0,16.925,12.884c1.1.615,1.175,1.767.06,2.341a2.939,2.939,0,0,1-1.871.156,6.73,6.73,0,0,1-1.819-.926,29.1,29.1,0,0,0-8.3-3.654,9.6,9.6,0,0,1-4.7-2.021c-.092-.082-.245-.092-.358-.156-3.121-1.766-6.33-3.395-9.331-5.344-2.622-1.7-5.019-3.75-7.489-5.681a14.782,14.782,0,0,1-1.444-1.5c-.861-.776-1.827-1.466-2.656-2.292-2.808-2.805-3.5-6.374-3.592-10.166a23.736,23.736,0,0,1,2.558-10.721,11.733,11.733,0,0,1,3.891-5.13c2.531-1.733,3.824-1.9,6.489-.321a12.617,12.617,0,0,1,4.462,4.726c2.782,4.847,5.434,9.765,8.257,14.589,3.277,5.6,7.094,10.792,12.276,14.841.23.18.486.327.83.558.024-.45.04-.736.035-.644-1.973-2.116-3.842-3.937-5.487-5.937a89.5,89.5,0,0,1-6.684-8.762c-2.207-3.487-3.852-7.324-5.945-10.884a42.541,42.541,0,0,0-5.536-8.115c-3.526-3.674-7.817-4.316-11.207.615a25.944,25.944,0,0,0-4.281,9.855c-.407,2.111-.985,4.354-.657,6.405.464,2.893.341,6.116,2.724,8.447.161.156.151.486.205.674.556.416,1.077.773,1.563,1.173,2.664,2.2,5.316,4.41,7.983,6.6,5.18,4.268,10.669,7.963,17.194,9.962a43.426,43.426,0,0,1,7.767,3.271c1.427.768,2.627,1.871,4.4,1.634.037-.005.079.062.062.047.052.691.1,1.331.148,1.97l.252,0c.113-.553.227-1.106.365-1.769.956.521,1.812.992,2.819,1.538-.871.471-1.56.846-2.272,1.23-.109-.168-.188-.291-.277-.43-.182.153-.358.3-.687.57-.593-.39-1.2-.8-1.84-1.219-.089.069-.271.215-.686.546Q334,2244.729,333.076,2244.031Zm-25.135-14.765c-2.592-1.711-5.15-3.482-7.83-5.041a10.829,10.829,0,0,1-5.071-6.123,13.55,13.55,0,0,1-.77-7.16,3.087,3.087,0,0,0-.23-1.675c-.938,5.182-1.262,10.193,3.308,14.133a55.1,55.1,0,0,0,11,6.873c.057.03.143,0,.432,0A4.994,4.994,0,0,0,307.941,2229.266Zm.479-17.933c-.2-1.353-.34-2.524-.548-3.686-.3-1.653-.618-3.3-.988-4.944a4.652,4.652,0,0,0-.716-1.155C305.46,2203.98,306.877,2210.188,308.42,2211.333Zm-16.673-4.5c.077.16.178.374.3.63-1.319,3.735-2.748,7.468-3.953,11.271a15.14,15.14,0,0,1-5.417,7.538,14.221,14.221,0,0,1-1.259.82c-.052.032-.143,0-.376,0,.7-.874,1.34-1.674,1.98-2.472l-.05-.049c.864-1.051,1.731-2.1,2.773-3.365h.324c1.815-5.645,3.651-11.283,5.432-16.938.365-1.167.387-2.452.819-3.585,1.871-4.916,3.442-10.026,8.086-13.269a12.352,12.352,0,0,0,1.756-1.677c1.773-1.874,4.03-1.913,6.321-1.6a10.964,10.964,0,0,1,6.271,3.113c.407.4.909.691,1.3,1.128q.834.645,1.671,1.293a2.264,2.264,0,0,1,.467.4c2.03,2.97,4.126,5.9,6.047,8.94,1.114,1.767,1.9,3.739,2.916,5.572.854,1.531,1.842,2.988,2.756,4.484a10.032,10.032,0,0,1,.452.929c2.555,3.219,4.521,6.831,7.652,9.479.576.731,1.151,1.465,1.877,2.385.049-.152-.012.039-.1.327l6.6,6.031a9.791,9.791,0,0,0-.15-2.294c-.145-.45-.694-.768-1.229-1.309-.17.546-.235.753-.3.958-.071,0-.141.01-.213.015v-1.1c-1.7-1.923-3.472-3.866-5.17-5.877-4.8-5.683-8.469-12.133-12.362-18.429a63.047,63.047,0,0,0-10.886-13.594c-6.7-6.14-12.684-3.575-17.214.55a25.536,25.536,0,0,0-7.111,11.242c-.993,3.1-1.59,6.318-2.523,9.437-2.081,6.975-4.126,13.987-9.615,19.271a6.528,6.528,0,0,0-.476.61,6.85,6.85,0,0,0,4.783-.973,15.346,15.346,0,0,0,3.456-3.407c.9-1.291,1.365-2.893,2.3-4.288-.306,1.418-.612,2.834-.913,4.227.958.421,1.351,0,1.481-1.149.358-3.165.706-6.33,1.224-9.471.249-1.518.931-2.961,1.309-4.469.429-1.712.613-3.5,1.134-5.178a37,37,0,0,1,1.96-4.607c.872-1.862,1.74-3.731,2.741-5.521,2.323-4.148,6.525-5.275,10.736-3.012,4,2.148,6.641,5.5,8.716,9.431,1.615,3.063,3.279,6.108,5.077,9.064a109.643,109.643,0,0,0,6.894,10.617c2.857,3.666,6.217,6.936,9.345,10.4.568.63,1.062,1.33,1.4,1.753.743.6,1.21.978,1.938,1.564a1.387,1.387,0,0,0,1.76,1.071c.328-.1.466-.846.692-1.3-.156-.1-.311-.21-.466-.312-.139.309-.274.622-.413.933l-.281-.178c.049-.391.1-.782.129-1.03-4.1-4.4-8.153-8.71-12.148-13.076a22.172,22.172,0,0,1-2.239-3.151c-4.578-7.222-9.115-14.473-13.718-21.678a18.943,18.943,0,0,0-2.521-2.932c-3.229-3.3-7.217-3.81-11.405-2.63a8.1,8.1,0,0,0-3.666,2.688,29.924,29.924,0,0,0-5.763,12.109C292.4,2204.387,292.074,2205.582,291.748,2206.83Zm23.918-27.4c.819.948,1.7,1.847,2.442,2.847,1.61,2.171,3.2,4.358,4.7,6.6.788,1.187,1.361,2.513,2.032,3.777-.1.059-.2.119-.3.18-1.368-1.854-2.718-3.719-4.111-5.551a68.532,68.532,0,0,0-4.44-5.649,10.537,10.537,0,0,0-11.676-1.951c-.061.028-.1.1-.415.435,5.22-1.055,9.706-.317,13.227,3.61a2.669,2.669,0,0,1,.323.869c-.092.077-.182.154-.274.233a10.8,10.8,0,0,1-2.691-1.906,5.438,5.438,0,0,0-3.434-1.892c-4.9-1.12-9.113.5-12.871,3.509-3.58,2.865-5.909,6.716-7.891,10.761-3.824,7.809-7.558,15.665-11.321,23.507-.306.638-.528,1.316-.765,1.917-.334.151-.65.3-.966.442.018.116.04.23.06.341.34-.015.768.094,1-.072a4.281,4.281,0,0,0,1.192-1.423,5.722,5.722,0,0,0,.958-1.091,77.022,77.022,0,0,0,3.941-8.126,96.463,96.463,0,0,1,11.7-22.486,12.728,12.728,0,0,1,3.6-3.829,25.44,25.44,0,0,1,6.469-2.386c3.1-.8,5.793.2,8.469,1.969a36.129,36.129,0,0,1,8.424,8.25c1.714,2.2,3.113,4.657,4.605,7.027.659,1.042,1.146,2.195,1.812,3.23,2,3.13,4.047,6.222,6.227,9.25,1.872,2.563,3.745,5.126,5.693,7.795l1.181-.889c-.1.461-.173.8-.259,1.2.069.276.158.629.247.981q.161.171.328.345.313-.65.62-1.3c.094.042.188.081.282.125.061.63.121,1.262.182,1.886l.929.815c.114-.019.23-.041.346-.061a8.083,8.083,0,0,0-.576-2.489,17.738,17.738,0,0,0-2.422-2.893,77.387,77.387,0,0,1-10.5-14.709c-2.242-3.837-4.471-7.684-6.748-11.6.055-.134.143-.341.247-.588-.2-.257-.42-.518-.612-.8-1.425-2.121-2.985-4.165-4.235-6.382-3.6-6.394-10.775-8.3-17.273-4.9-5.545,2.9-9.437,7.308-12.846,12.332-.842,1.244-1.847,2.381-2.645,3.647a8.946,8.946,0,0,0-.751,2.012c-1.082,2.054-2.1,3.841-2.977,5.686-1,2.093-1.891,4.235-2.8,6.37a11.181,11.181,0,0,0-.382,1.565,8.108,8.108,0,0,0-2.894,6.014c-.257.145-.481.269-.706.4.062.113.123.227.183.34a5.2,5.2,0,0,0,1.39-1.056,28.248,28.248,0,0,0,2-3.586c1-2.15,1.857-4.364,2.842-6.518.462-1.008,1.116-1.928,1.61-2.923.785-1.573,1.477-3.188,2.261-4.76a69.685,69.685,0,0,1,8.913-13.775c.792-.946,2.111-1.44,3.148-2.191,1.523-1.1,2.992-2.274,4.525-3.355a3.9,3.9,0,0,1,1.582-.639c1.452-.25,2.921-.415,4.387-.588a1.854,1.854,0,0,1,.761.131c1.269.442,2.538.879,3.788,1.365a4.452,4.452,0,0,1,.909.641ZM304.2,2165.648a3.11,3.11,0,0,1-2.852,2.183c-6.471.368-11.158,4.38-16.148,7.76-1.471,1-2.82,2.168-4.224,3.261.059.123.123.244.182.366a5.176,5.176,0,0,0,1.161-.448c1.891-1.3,3.81-2.563,5.617-3.974a29.59,29.59,0,0,1,13.2-6.281c1.413-.247,2.7-1.235,4.049-1.857a2.957,2.957,0,0,1,1.1-.291,21.308,21.308,0,0,1,11.625,2.666,18.769,18.769,0,0,0,4.037,1.22,1.529,1.529,0,0,1,.686.336c3.644,3.906,7.293,7.805,10.883,11.765a22.171,22.171,0,0,1,1.516,2.487,21.565,21.565,0,0,0,1.38,1.7c.679,1.24,1.254,2.289,1.829,3.339.111-.059.217-.118.328-.177.072.353.145.707.225,1.089h.355c1.632,2.334,3.163,4.521,4.741,6.775,1.78.935,1.731,4.324,4.972,3.677-.334-.284-.629-.533-.982-.83.039-.229.094-.562.092-.548-2.914-3.965-5.686-7.7-8.427-11.471-2.293-3.153-4.318-6.533-6.881-9.447a117.117,117.117,0,0,0-11.283-11.387c-1.94-1.674-4.75-2.393-7.234-3.365-3.951-1.548-8.084-1.56-12.247-1.165a10.1,10.1,0,0,1-2.758-.03,5.863,5.863,0,0,0-4,.778c-2.187,1.165-4.494,2.122-6.607,3.4-1.966,1.193-3.751,2.69-5.614,4.059-.489.361-.97.736-1.454,1.108.084.107.166.218.247.327.336-.22.664-.452,1.008-.657,3.9-2.3,7.785-4.622,11.706-6.882,2.328-1.34,4.941-1.288,7.526-1.441a30.214,30.214,0,0,1,18.506,4.493c.266.172.518.363.766.558a3.84,3.84,0,0,1,.373.572,26.958,26.958,0,0,1-2.914-.891c-2.6-1.154-5.148-2.429-8.034-2.771-5.187-.615-10.436-1.2-15.363.938a65.453,65.453,0,0,0-8.772,5.125c-1.886,1.2-3.627,2.618-5.434,3.943.059.1.116.2.175.306-.161-.045-.319-.094-.528-.154-.042.2-.082.39-.143.669.25-.034.459,0,.587-.089,1.871-1.274,3.73-2.572,5.6-3.851,1.111-.758,2.2-1.57,3.366-2.219,2.207-1.222,4.445-2.394,6.723-3.474a6.148,6.148,0,0,1,1.98-.114,20.08,20.08,0,0,0,2.44-.286C302.271,2166.239,303.232,2165.92,304.2,2165.648Zm42.944,29.5c-1.41-2.121-2.8-4.252-4.235-6.354-2.614-3.831-4.983-7.866-7.948-11.405-3.528-4.21-7.552-8.014-11.419-11.935a9.053,9.053,0,0,0-2.456-1.541c-1.321-.657-2.756-1.1-4.029-1.835-2.953-1.692-6.193-1.724-9.38-1.541a119.106,119.106,0,0,0-12.631,1.394,25.849,25.849,0,0,0-5.751,2.216c-1.353.587-2.654,1.306-3.96,2-.346.183-.634.482-.978.677-.75.5-1.5,1.01-2.247,1.514.091.157.183.308.274.464a6.349,6.349,0,0,0,1.632-.77c2.613-2.306,5.886-3.361,8.993-4.655,1.642-.686,3.57-.683,5.365-1a29.964,29.964,0,0,1,4.489-.785c3.37-.063,6.743.074,10.113.183a4.874,4.874,0,0,1,1.566.489c4.069,1.672,7.872,3.708,10.852,7.093,1.649,1.879,3.6,3.487,5.316,5.306,1.082,1.138,1.971,2.456,2.985,3.659.56.67,1.195,1.271,1.563,1.659l9.047,13.316c.1-.067.2-.133.291-.2.474,1.933,1.583,3.14,2.993,3.229-.025-.292-.047-.583-.076-.936.472.2.847.348,1.218.5.136-.055.272-.109.407-.166a6.1,6.1,0,0,0-.432-1.629c-1.691-2.83-3.435-5.624-5.165-8.427-.832-1.344-1.669-2.684-2.511-4.037.084-.237.16-.454.257-.725a4.381,4.381,0,0,0-.277-.516,68.154,68.154,0,0,0-14.325-14.859,3.92,3.92,0,0,0-1.113-.4c-.079.128-.16.257-.242.385a9.73,9.73,0,0,0,.807,1.054c2.968,2.918,6.012,5.767,8.9,8.76a29.019,29.019,0,0,1,3.141,4.355c.363.428.728.855,1.089,1.286a9.057,9.057,0,0,1,.78.966c1.454,2.314,2.879,4.646,4.336,6.958.968,1.533,2.017,3.02,2.936,4.58a4.48,4.48,0,0,1,.24,1.583C347.426,2195.083,347.287,2195.114,347.147,2195.147Zm-35.8,51.169c2.933,1.014,5.946,2.052,8.96,3.092-.045.155-.089.311-.133.466-1.392-.282-2.8-.516-4.173-.855-4.829-1.19-9.639-2.467-14.479-3.612a52.409,52.409,0,0,0-13.841-1.536c-.281.012-.561.029-1.314.067.634.733,1.037,1.191,1.437,1.655.114-.087.224-.174.336-.259v-1.012c1.279,1.713,2.859,1.4,4.459,1.165.422-.061.9.267,1.666.522.067-.013.472-.105.881-.193,0,.079-.008.156-.012.235.75.086,1.506.129,2.244.266,3.108.568,6.227,1.079,9.3,1.778,3.518.8,6.988,1.816,10.491,2.675a16.541,16.541,0,0,0,2.314.119c1.222.123,2.447.242,3.656.456,3.314.59,6.619,1.229,9.928,1.846.012-.116.022-.232.034-.348.329-.185.659-.368.943-.526.3.126.528.223.76.324.062-.1.123-.21.185-.314a6.239,6.239,0,0,0-1.358-.644c-3.15-.652-6.336-1.136-9.449-1.916a26.845,26.845,0,0,1-5-2.035,48.2,48.2,0,0,0-12.059-3.936c-2.024-.382-4-1.051-5.988-1.6-1.165-.317-2.328-.644-3.55-.978-.029.3-.047.455-.066.627-.121-.014-.2-.02-.274-.032-2.163-.333-4.328-.657-6.489-1.007-.934-.149-1.862-.353-2.8-.531-.282-.054-.605-.2-.849-.126a18.934,18.934,0,0,0-1.783.756c.366.513.733,1.029,1.1,1.543l.355-.233c-.049-.163-.1-.328-.193-.635.4.125.731.227,1.2.368.071-.113.182-.285.081-.13,2.935.36,5.647.874,8.412,1.239a78.563,78.563,0,0,1,7.748,1.851c2.025.482,4.062.91,6.1,1.341A7.92,7.92,0,0,0,311.346,2246.317Zm24.906-44.514c-.057.063-.188.2-.208.227,1.329,2.252,2.605,4.418,3.982,6.748.111-.173.032-.049-.114.185,1.355,1.434,2.728,2.889,4.316,4.568.018.916,3.141,3.736,4.13,3.173a12.057,12.057,0,0,0-.76-1.254c-1.492-1.908-3.082-3.745-4.5-5.706-1.276-1.771-2.375-3.667-3.54-5.518-4.1-6.511-8.13-13.069-12.343-19.506a20.745,20.745,0,0,0-4.254-4.471,38.265,38.265,0,0,0-12.069-6.624,10.666,10.666,0,0,0-8.1.195c-4.967,2.257-10,4.424-14.111,8.14-1.067.965-1.94,2.143-2.966,3.155-1.079,1.065-2.261,2.025-3.345,3.085a2.725,2.725,0,0,0-.523,1.212c-3.694,4.217-5.274,7.061-5.488,10.162l.464-.052c.61-1.333,1.039-2.43,1.6-3.454.578-1.064,1.281-2.058,1.973-3.143-.054-.123-.133-.3-.207-.472.111.072.224.144.336.22,1.871-2.292,3.714-4.6,5.615-6.873,4.178-4.977,9.588-8.2,15.515-10.6a41.53,41.53,0,0,1,5.509-1.555,2.326,2.326,0,0,1,1.234.187c2.135.751,4.266,1.511,6.385,2.309a7.979,7.979,0,0,1,3.988,3.086,3.286,3.286,0,0,0,2.064.973,4.776,4.776,0,0,1,2.9,2.237,72.966,72.966,0,0,1,4.435,6.635c1.815,2.98,3.456,6.066,5.274,9.044A44.221,44.221,0,0,0,336.253,2201.8Zm-27.1,16a11.069,11.069,0,0,1,1.383,1.161c1.355,1.557,2.649,3.165,4,4.721a3.365,3.365,0,0,0,.977.545l.3-.271a5.5,5.5,0,0,0-.7-1.552c-3.291-3.617-6.6-7.225-9.975-10.765a4.884,4.884,0,0,1-1.528-2.923c-.1-.908-.605-1.84-.476-2.693.371-2.413.671-4.919,2.931-6.752.42.322,1.015.568,1.274,1.01.876,1.5,1.662,3.064,2.434,4.627.664,1.348,1.24,2.741,1.891,4.1a30.535,30.535,0,0,1,1.753,3.529,32.927,32.927,0,0,0,11.224,16.189c1.018.79,1.953,1.689,2.951,2.513a8.17,8.17,0,0,0,1.109.637c2.886,3.1,7,4.721,10.427,7.338.316-.242.534-.411.94-.726a13.592,13.592,0,0,0-1.476-1.242c-8.115-5.005-15.374-10.917-20.579-19.073a112.847,112.847,0,0,1-7.582-15.084,19.143,19.143,0,0,0-1.76-3.344c-1.455-2.039-3.513-1.941-4.857.136a13.876,13.876,0,0,0-2.175,9.05c.2,2.162,1.829,3.33,3.239,4.676,1.447,1.382,2.79,2.869,4.178,4.313C309.093,2217.877,309.124,2217.84,309.155,2217.8Zm9.553-46.415c-2.961-2.993-6.667-3.213-10.479-3.008-7.607.41-14.123,3.593-20.1,8.059-2.281,1.7-4.462,3.535-6.694,5.3a5.63,5.63,0,0,1-.666.4c.082.131.163.261.245.39a2.876,2.876,0,0,0,.983-.287c2.98-2.262,5.928-4.568,8.913-6.824a20.948,20.948,0,0,1,1.872-1c1.035-.624,2.047-1.291,2.968-1.874.578-.188,1.076-.308,1.54-.509,4.466-1.928,9.027-3.306,13.96-2.308a29.165,29.165,0,0,1,3.259,1.057c-.024-.2-.045-.393-.081-.7a4.274,4.274,0,0,1,.756.3c1.519.981,3,2.021,4.55,2.95.637.383,1.5.41,2.1.832,5.733,4.053,9.706,9.577,12.985,15.678.319.6.859,1.077,1.182,1.689l3.94,5.763c1.582,1,2.044,3.241,3.261,5.051.434.488.921,1.036,1.408,1.582l-.212.217c.373.178.75.361,1.165.564-.14.218-.264.408-.5.765.528.333,1.032.649,1.65,1.041.511.911,1.106,1.975,1.7,3.039a5.1,5.1,0,0,0-.558-4.341c-1.008-1.708-2.18-3.323-3.318-4.953-.165-.237-.526-.339-.708-.447-.479-.719-.916-1.393-1.368-2.057-3.141-4.621-6.113-9.371-9.483-13.819a129.914,129.914,0,0,0-8.943-10.182A7.576,7.576,0,0,0,318.708,2171.386Zm-34.976,11.644q-1.329,1.452-2.654,2.909c.054.042.1.081.156.125a5.489,5.489,0,0,0-.908.719c-.813.973-1.627,1.948-2.35,2.985a2.184,2.184,0,0,0-.23,1.6c2.622-2.983,5.246-5.97,7.646-8.7A22.414,22.414,0,0,0,288,2180.83c3.25-3.118,7.2-5.012,11.175-7.023,7.051-3.578,13.341-1.855,19.629,1.792a30.567,30.567,0,0,1,11.829,12.318c1.277,2.392,2.709,4.706,4.109,7.12.175.025.42.059.3.042,2.425,3.765,4.7,7.3,6.98,10.84-.022.019-.04.041-.061.058.5.644,1,1.284,1.276,1.633.279.723.447,1.16.617,1.6.1-.035.195-.072.292-.109.062.25.124.5.192.767.387.032.746.062,1.089.092.323,1.807.466,1.923,1.612,1.269q.464.847.926,1.691l.346-.118a10.718,10.718,0,0,0-.782-2.216c-.921-1.49-2-2.879-2.975-4.336-5.114-7.641-10.192-15.312-15.335-22.934-4.313-6.4-10.55-10.109-17.844-11.963-4.689-1.194-9.267.059-13.612,2-4.882,2.188-9.056,5.471-13.212,8.76a3.532,3.532,0,0,0-.622,1.029C283.863,2183.1,283.8,2183.065,283.732,2183.03Zm7.247-34.225c-.316-.205-.593-.385-.939-.612-.094.318-.158.532-.242.807-.2-.079-.4-.155-.64-.249q-1.861,1.536-3.731,3.078c.059.084.119.17.176.255,1.234-.708,2.467-1.418,3.625-2.083,1.309-.432,2.59-.852,3.871-1.272a1.564,1.564,0,0,1,.376-.116c3.294-.24,6.587-.649,9.881-.674a31.673,31.673,0,0,1,16.557,4.6c.129.076.249.172.6.422a5.249,5.249,0,0,1-1.039-.008c-2.217-.563-4.477-1.012-6.637-1.758a29.327,29.327,0,0,0-17.12-.778c-.919.229-1.876.3-2.792.542a7.032,7.032,0,0,0-1.358.706l.5.857c1.087-.284,2.146-.573,3.212-.835a29.915,29.915,0,0,1,13.387-.671,8.178,8.178,0,0,1,2.333.892,12.044,12.044,0,0,0,5.239,1.588c.556.128,1.118.239,1.669.387a29.306,29.306,0,0,1,4.561,1.3,48.913,48.913,0,0,1,5.266,3.029c.876.54,1.647,1.249,2.518,1.8a14.725,14.725,0,0,0,1.842.873c.753.577,1.407,1.052,2.04,1.556a25.343,25.343,0,0,1,3.029,2.491c2.58,2.815,5.04,5.742,7.588,8.59a8.789,8.789,0,0,0,1.538,1.1c.1-.108.2-.219.292-.328-.4-.592-.788-1.195-1.21-1.774a65.646,65.646,0,0,0-18.681-17.18c-4.119-2.557-8.158-5.251-12.849-6.73a36.958,36.958,0,0,0-21.957-.16C291.585,2148.543,291.3,2148.683,290.979,2148.805Zm12.518,38.42c.387-.262.618-.422.773-.524.95-.058,1.819-.069,2.681-.162a7.053,7.053,0,0,1,5.383,1.963c.825.687,1.543,1.507,2.328,2.249,2.93,2.76,4.889,6.242,7,9.594,2.084,3.317,3.921,6.793,5.916,10.168a25.565,25.565,0,0,0,1.649,2.086,3.826,3.826,0,0,1,.788,1.729l.59.333-.24.2,1.4,1.709a4.408,4.408,0,0,0,2.778,3.119c2.414,3.634,5.758,6.094,8.246,9.347.081-.076.158-.151.234-.226.227.357.452.713.708,1.116.324-.227.531-.368.763-.531.34.257.684.518,1.029.781.1-.077.193-.155.291-.23a11.181,11.181,0,0,0-1.24-1.743,111.036,111.036,0,0,1-21.617-29.132,39.569,39.569,0,0,0-9.3-11.3c-2.708-2.36-5.918-2.86-9.343-2.3-.442.072-.842.586-1.185.966C303.06,2186.517,303.343,2186.912,303.5,2187.225Zm28.233,59.423c-.1.163-.2.327-.329.531l1.245.489.824-1.15c-.081.558-.126.867-.192,1.314l.982-.729c-.05.365-.086.606-.129.9.708.608,1.345,1.551,2.462.892.324-.191.381-.842.56-1.28-.126-.047-.252-.094-.377-.143l-.482,1c-.229-.137-.427-.258-.718-.432.252-.3.513-.612.78-.926-.422-.8-3.926-1.708-4.9-1.054-2.948-1.07-6.064-2.128-9.123-3.329-4.4-1.729-8.748-3.575-13.563-3.793a.785.785,0,0,1-.308-.066c-3.642-1.913-7.909-1.65-11.624-3.334a8.1,8.1,0,0,0-2-.281c-1.723-.913-3.687-2.332-6.108-1.446-1.916-.61-3.508.14-5.345.868l1.561.9c.244-.116.449-.212.654-.308.008.074.015.145.02.219q2.312-.131,4.622-.261c.015.047.029.094.04.14a10.34,10.34,0,0,1,1.513.21c1.785.529,3.555,1.1,5.353,1.535a4.522,4.522,0,0,0,.956.546c5.335,1.479,10.7,2.837,16.005,4.426,4.834,1.445,9.6,3.119,14.383,4.731,1.113.373,2.15.59,3.1-.546C331.643,2246.4,331.686,2246.525,331.73,2246.648Zm-47.638-85.292a9.381,9.381,0,0,0,1.516-.5c5.509-2.88,11.562-3.689,17.579-4.613a38.074,38.074,0,0,1,7.2-.884c4.377.185,8.451,1.809,12.3,3.785,2.782,1.423,5.356,3.242,8.039,4.855.652.39,1.375.661,2.064.986.059-.092.118-.183.176-.272,2.982,3.247,5.963,6.5,8.992,9.79-.025.061-.086.213-.163.4,1.76,1.146,2.4,3.613,4.857,4-.415-1.75-2-3.709-2.782-3.642a9.75,9.75,0,0,0-.694-1.412c-5.449-7.673-12.784-12.957-21.249-16.836a30.539,30.539,0,0,0-19.819-1.874c-4.805,1.059-9.73,1.672-14.281,3.706-1.1.493-2.153,1.107-3.212,1.694a3.794,3.794,0,0,0-.647.585C284.008,2161.2,284.052,2161.28,284.092,2161.357Zm51.151,88.7a5.6,5.6,0,0,0-.805-.423c-13.567-4.582-27.249-8.763-41.164-12.17a23,23,0,0,0-8.328-.267c-.8.1-1.437.446-1.474,1.392l8.331.595,12.812,2.805c-.013.019-.027.04-.042.057.743.2,1.487.4,2.229.6.013-.073.032-.146.045-.222a7.312,7.312,0,0,0,1.417.649,78.348,78.348,0,0,1,13.97,4.77,22.528,22.528,0,0,0,8.049,1.846,20.67,20.67,0,0,1,3.632,1.029,3.987,3.987,0,0,0,1.358-.17C335.263,2250.389,335.253,2250.226,335.243,2250.062Zm-58.149-46.814c1.655-.847,1.793-2.264,2.417-3.361.373-.652.864-1.24,1.225-1.9.341-.625.578-1.3.921-2.091-.1-.017.1.019.424.077a6.386,6.386,0,0,0,.7-.843c.345-.572.565-1.222.948-1.762q2.841-4,5.761-7.95a2.121,2.121,0,0,1,1.287-.669c.2-.363.4-.728.619-1.133.2-.092.434-.2.718-.338.2-.958.718-1.4,1.887-.832a98.848,98.848,0,0,0-15.478,23.471c.17.288.3.508.447.763-1.813.94-1.5,2.873-2.175,4.346l.308.19q1.591-2.347,3.182-4.7-.209-.135-.424-.268,3.194-5.9,6.387-11.8a50.644,50.644,0,0,1,7.694-10.37c1.2-1.348,2.076-2.339,2.956-3.333a8.782,8.782,0,0,1,4.471-2.612,4.17,4.17,0,0,0,1.272-.771,9.039,9.039,0,0,1,5.763-1.828,4.185,4.185,0,0,0,1.14-.3c-.01-.145-.02-.289-.032-.43a3,3,0,0,0-1.1-.18,22.281,22.281,0,0,0-5.232,1.4c-4.108,2.135-8.167,4.4-12.044,6.919a17.633,17.633,0,0,0-5.156,5.536c-.919,1.462-2.242,2.669-3.177,4.125-1.933,3.01-3.74,6.1-5.558,9.184A4.374,4.374,0,0,0,277.093,2203.247Zm57.828-.988c-.336-.57-.661-1.146-1.01-1.7q-2.667-4.255-5.345-8.5c-1.943-3.089-3.847-6.207-5.862-9.254-.729-1.106-1.5-1.262-2.3-.788.509.668,1.022,1.324,1.516,1.993a42.19,42.19,0,0,1,5.409,9.323c.938,2.336,2.782,4.3,4.212,6.447.17.254.255.563.407.831a31,31,0,0,0,2.819,4.354c.044.23.089.456.133.686.116-.035.232-.065.345-.1a13.189,13.189,0,0,0,.662,1.987,3.035,3.035,0,0,0,1.329,1.264c.217.712.429,1.427.644,2.138.054-.044.106-.087.16-.135,1.388,1.6,2.723,3.249,4.177,4.789,1.432,1.519,2.393,3.568,5.086,4.42-.292-.735-.429-1.18-.64-1.585-2.086-4.017-6.383-6.229-8.419-10.292q-1.046-2.083-2.18-4.118c-.339-.608-.788-1.153-1.188-1.726A.259.259,0,0,1,334.922,2202.259Zm6.988-22.632c.151-.1.291-.2.393-.272.608.41,1.192.8,1.582,1.055.886,1.184,1.662,2.216,2.437,3.248-.024.012-.047.02-.069.034l1.919,1.916c.627-.486.291-1.021-.126-1.521-3.042-3.655-6.072-7.321-9.141-10.953-3.056-3.608-6.361-6.942-10.6-9.186-2.578-1.361-5.138-2.773-7.79-3.981a41.494,41.494,0,0,0-9.96-2.993,8.576,8.576,0,0,0-1.545-.014c-.035.155-.072.308-.109.46a19.981,19.981,0,0,0,3.6,1.333,30.449,30.449,0,0,1,8.214,3.062,14.785,14.785,0,0,1,2.15,1.323,7.719,7.719,0,0,0,3.649,1.428,7.224,7.224,0,0,1,3.731,2.007c3.074,3.014,6,6.188,8.908,9.365A45.8,45.8,0,0,1,341.91,2179.626Zm2.064-14.483a3.284,3.284,0,0,0-.449-.6c-6.32-5.308-12.565-10.721-20.007-14.472-1.691-.852-3.451-1.575-5.178-2.358-.24-.107-.555-.154-.706-.337-2.585-3.138-6.3-2.9-9.777-3.153a81.254,81.254,0,0,0-8.345.105c-.341.01-.672.37-1.008.566l.15.372c.849,0,1.7-.037,2.548.007,3.782.2,7.58.291,11.336.726,1.306.15,2.518,1.17,3.761,1.814.734.379,1.442.818,2.175,1.208,1.089.58,2.182,1.154,3.284,1.709a40.572,40.572,0,0,1,4.274,2.16c3.382,2.254,6.676,4.639,9.99,6.99a7.658,7.658,0,0,1,1.487,1.292c1.047,1.266,2.057,2.41,3.9,2.642.844.107,1.59,1,2.382,1.528C343.851,2165.28,343.912,2165.211,343.974,2165.144Zm-54.537,81.967c.037.163.072.324.121.535-.215.062-.43.123-.642.181,0,.072.005.14.008.212h2.654l-.037.091c3.787.642,7.573,1.291,11.362,1.919,2.988.5,5.993.919,8.965,1.5a4.062,4.062,0,0,1,1.491.98l10.39,2.372c.022-.074.042-.148.062-.222l.6.523c.217-.113.415-.213.642-.333.235.2.471.4.746.637.145-.217.266-.4.387-.588.013.121.025.24.035.365a22.421,22.421,0,0,0,2.738-.171c.852-.155,1.936.466,2.506-.719-.173.077-.346.151-.382.168-.533-.212-.956-.383-1.378-.553-.035.074-.069.149-.1.226.188.129.377.26.881.6-.581-.1-.813-.119-1.039-.176-3.087-.785-6.16-1.623-9.262-2.343-2.158-.5-4.387-.7-6.518-1.279-6.314-1.7-12.627-3.339-19.192-3.792-1.351-.094-2.655-.547-4.01.01C290.2,2247.36,289.815,2247.173,289.437,2247.11Zm48.047-89.926c.363,1.27,3.493,3.583,4.323,3.156-.077-.9-4.849-5.015-5.479-5.1a44.342,44.342,0,0,0-3.654-3.226c-3.9-2.721-7.908-5.225-12.58-6.5a9.467,9.467,0,0,1-2.906-1.82c-.97-.733-1.891-1.469-2.582-1.294-5.968-1.311-11.336-2.062-16.9-.721.111.2.138.316.21.375a3.254,3.254,0,0,0,.439.262c.193-.116.388-.23.582-.346,0,.069.007.142.008.212h2.746c0-.078.005-.151.007-.229.595-.058,1.187-.111,1.782-.167-.012.08-.02.155-.032.234,1.123.121,2.242.244,3.366.361,2.061.222,4.136.35,6.178.689a12.809,12.809,0,0,1,4.938,2.269c2.5,1.659,5.459,2.622,8.061,4.158,1.768,1.044,3.893,1.587,5.2,3.4.343.478,1.042.692,1.553,1.061,1.365.98,2.714,1.987,4.077,2.972A3.15,3.15,0,0,0,337.483,2157.184Zm-46.331,60.3c0,.946,0,1.891,0,2.837,0,.1.1.215.076.3-.879,2.59,1.718,3.827,2.309,5.852.109.371.745.635,1.183.86,1.745.9,3.54,1.7,5.256,2.654,2.61,1.443,5.133,3.042,7.758,4.452a44.965,44.965,0,0,0,5.061,2.224c.4.155.963-.09,1.452-.158.007-.135.013-.272.018-.41a7.019,7.019,0,0,0-.861-.627c-3.933-2.015-7.92-3.938-11.8-6.059a34.406,34.406,0,0,1-7.183-4.665c-1.392-1.306-2.876-3.17-2.3-5.617.121-.519-.25-1.154-.4-1.736C291.539,2217.419,291.346,2217.451,291.153,2217.479Zm3.373,32.967a24.687,24.687,0,0,0-2.723-.819c-.333-.065-.753.331-1.183.54.227.383.378.629.519.866.437.165.876.328,1.385.518l.39-.472a5.529,5.529,0,0,0,3.935.661,20.023,20.023,0,0,1,4.9.341c2.5.437,4.966,1.064,7.444,1.624,1.773.4,3.553.781,5.3,1.261a10.79,10.79,0,0,1,1.578.9,7.753,7.753,0,0,1,1.123.446c2.494.472,4.99.948,7.666,1.456-.057.067.069-.081.183-.226l2.7-.153c.023-.163.05-.328.074-.494a5.64,5.64,0,0,0-1.06-.244,18.527,18.527,0,0,1-2.314-.029c-2.508-.456-5-1-7.488-1.516-.207-.042-.407-.11-.608-.17-4.407-1.314-8.812-2.641-13.224-3.937a3.239,3.239,0,0,0-.992-.013A12.822,12.822,0,0,0,294.526,2250.447Zm11.831-13.648c1.292.508,3.056,1.252,4.864,1.859.313.1.822-.383,1.239-.6-.271-.346-.467-.838-.82-1.015q-8.768-4.419-17.579-8.748a24.734,24.734,0,0,0-3.635-1.345,2,2,0,0,0-2.476.882c-.176.292-.027.782-.027,1.21l2.961-.655c.175.443.274.706.376.966.049-.072.1-.143.151-.215a25.46,25.46,0,0,0,2.565,1.344c1.136.45,2.331.748,3.373,1.071,1.576.731,3.118,1.319,4.526,2.133S304.556,2235.535,306.356,2236.8Zm-6.454-2.593a9.8,9.8,0,0,0-1.533-.892c-2.887-1.057-5.762-2.187-8.714-3.034a9.322,9.322,0,0,0-3.81.059c-.612.089-1.151.694-1.857,1.153.424.264.612.385.817.513-.094.151-.185.291-.271.431.04.049.084.1.129.151.361-.251.723-.5,1.124-.78.1.109.245.276.212.241h2.173c.891-.681,1.869-.007,2.945.468,1.306.582,2.7.974,4.056,1.439,1.805.612,3.617,1.212,5.424,1.824.97.33,1.935.667,3.264,1.127-.1-.61-.04-1.218-.24-1.319-1.178-.609-2.412-1.1-3.627-1.625C299.963,2234.041,299.933,2234.123,299.9,2234.206Zm13.7,4.392.889-.38c-.034.092-.069.185-.1.277,1.039.443,2.069.908,3.116,1.324q6.038,2.377,12.088,4.728a5.682,5.682,0,0,0,1.461.562,6.72,6.72,0,0,0,1.788-.414,8.036,8.036,0,0,0-1.508-1.255c-2.351-.951-4.741-1.815-7.1-2.739-2.077-.812-4.126-1.7-6.21-2.494a25.679,25.679,0,0,0-3.452-1.052c-.3-.069-.755.266-1.027.528C313.425,2237.8,313.572,2238.2,313.607,2238.6Zm-30.362-73.508-.988-.516c-.195.269-.4.553-.644.893a1.962,1.962,0,0,0,2.565-.176,42.224,42.224,0,0,1,4-2.628c.7-.3,1.425-.547,2.092-.91a7.124,7.124,0,0,1,4.758-1.064,3.26,3.26,0,0,0,1.109.113c4.6-1.765,9.288-2.839,14.226-1.281.047-.279.082-.348.061-.378a5.87,5.87,0,0,0-4.116-1.644c-.955.169-1.948.167-2.891.373-2.106.462-4.2,1.012-6.291,1.514a4.633,4.633,0,0,1-1.15.2c-3.7-.087-6.879,1.56-10.093,3.062a9.029,9.029,0,0,0-1.9,1.324A5.253,5.253,0,0,0,283.245,2165.09Zm-3.094,57.485c-1.062.328-1.454,1.195-.521,2.217a24.528,24.528,0,0,0,1.556-1.955c1.413-2.2,2.894-4.372,4.108-6.683a15.363,15.363,0,0,0,.874-3.694,7.276,7.276,0,0,1,.333-.961q1.969-5.027,3.943-10.054a6.831,6.831,0,0,0,.418-1.013,3.372,3.372,0,0,0-.054-.893c-.183-.037-.365-.077-.546-.116l-2.57,6.25c-1.731,3.5-2.419,7.368-4.077,10.843-.356.733-.716,1.463-1.072,2.195l-.15-.094C281.705,2219.831,281.02,2221.042,280.151,2222.575Zm37.875-80c.156.242.266.641.477.707,2.245.728,4.509,1.4,6.763,2.1a4.77,4.77,0,0,1,1.22.5c.86.561,1.655,1.222,2.519,1.773,1.474.941,3.045,1.74,4.456,2.767,1.286.929,2.4,2.1,3.615,3.126a4.658,4.658,0,0,0,1,.514l.324-.386q-.673-.787-1.346-1.578c.012-.046.023-.092.034-.136-1.382-1.022-2.77-2.027-4.136-3.067-.457-.346-.81-.832-1.279-1.153-1.819-1.259-3.645-2.508-5.519-3.683a3.343,3.343,0,0,0-1.5-.249,11.471,11.471,0,0,1-2.074-.074c-1.459-.39-2.882-.924-4.319-1.4C318.185,2142.414,318.106,2142.5,318.026,2142.575Zm-31.342,13.547q-1.613.9-3.23,1.807c.091.2.18.394.271.588,1.069-.36,2.153-.684,3.207-1.084,1.708-.647,3.356-1.477,5.1-1.983,2.651-.766,5.351-1.376,8.054-1.936.934-.192,1.941-.03,2.926-.187l7.175-.425c-.022-.2-.04-.4-.059-.592C302.023,2151.478,294.316,2153.313,286.684,2156.122Zm45.272-10.658c.005.037.035.239.066.44l1.247.773.378-.136c-.15-.378-.187-.938-.462-1.109-4.251-2.628-8.291-5.721-13.229-6.98-3.279-.837-6.644-1.338-9.975-1.955a1.236,1.236,0,0,0-1.055.479c.232.05.467.094.7.151,4.513,1.119,9.03,2.222,13.533,3.381a3.817,3.817,0,0,1,1.469.9,5.8,5.8,0,0,0,3.037,1.6c1.084.185,2.007,1.274,3.025,1.928A8.106,8.106,0,0,0,331.955,2145.464Zm-46.072,83.044a2.073,2.073,0,0,0,1.983-2.062c.46-.551.85-1.023,1.361-1.639a15.443,15.443,0,0,0,1.743,1.5,4.588,4.588,0,0,0,1.442.37c-.1-.487-.052-1.111-.34-1.443-1.566-1.789-2.689-2.281-4.469-.29a17.021,17.021,0,0,1-7.3,4.773,5.208,5.208,0,0,0-.687.479c.575.217.976.533,1.276.454,1.424-.368,2.83-.816,4.217-1.306C285.4,2229.25,285.576,2228.856,285.884,2228.508Zm9.225,24.632a3.143,3.143,0,0,0,.973.551c1.382.2,2.792.23,4.158.493a24.873,24.873,0,0,1,3.1,1.012,10.283,10.283,0,0,0,2.2.555H308.2c.072.107.227.334.427.627.284-.128.536-.24.792-.35-.012.091-.02.183-.03.277,1.452.123,2.9.249,4.385.375.005-.008-.049.126-.24.612.716-.355,1.18-.583,1.642-.813-.035-.168-.069-.338-.1-.506l-4.482-.294c.017-.083.035-.165.05-.248-2.192-.363-4.38-.728-6.689-1.112a19.524,19.524,0,0,1-4.177-1.34c-1.563-.894-2.978.073-4.44-.195C295.255,2252.9,295.183,2253.023,295.109,2253.141Zm29.026-111.048c-7.1-1.983-14.209-3.967-21.748-3.409-.01.118-.017.233-.025.352l4.593.208,4.007.537c0,.04,0,.08-.005.123a6.386,6.386,0,0,1,1.987.307c2.037,1.064,4.23,1.125,6.437,1.34a16.64,16.64,0,0,1,3.269,1.126,8.925,8.925,0,0,0,1.375.23C324.063,2142.634,324.1,2142.365,324.135,2142.093Zm17.886,39.064a5.2,5.2,0,0,0,.454,1.212c.5.731,1.121,1.389,1.639,2.111.18.252.2.615.4.781.252.4.5.81.753,1.213-.037.016-.074.027-.113.041q1.679,2.383,3.356,4.768c.1-.019.214-.033.319-.052a4.416,4.416,0,0,0-.222-1.443c-.815-1.531-1.679-3.042-2.614-4.5-.76-1.19-1.63-2.312-2.487-3.439a8.116,8.116,0,0,0-1-.928C342.347,2181,342.182,2181.077,342.021,2181.157Zm-28.265,34q-1.6-3.257-3.192-6.52c-.138.023-.277.043-.415.064-.03.467-.229,1.008-.061,1.387q1.112,2.516,2.43,4.936c.161.3.734.372,1.116.548C313.678,2215.438,313.716,2215.3,313.757,2215.162Zm24.738,26.688c.334.38.644.729.9,1.023.733.1,1.39.185,2.077.276h1.775l.659-.535c-.5-.048-.76-.076-1.024-.1.04-.093.077-.184.116-.277-.6-.259-1.207-.516-2.118-.908C339.863,2239.868,339.594,2239.881,338.495,2241.85Zm-20.624-105.929,11.367,4.713.124-.113c-.7-.486-1.407-.969-2.2-1.518-3.039-1.118-6.106-2.244-9.177-3.371C317.948,2135.728,317.911,2135.825,317.871,2135.921Zm22.085,28.564c1.973,2.107,3.867,4.131,5.951,6.355l-1-2.405-.808-.138v-.679C342.179,2165.157,341.036,2164.248,339.955,2164.485Zm-43.49-20.2a7.391,7.391,0,0,1-1.455.543,5.1,5.1,0,0,1-1.22-.165c-.173.271-.292.467-.3.471-1.116.189-2.091.358-3.064.524.017.094.037.189.057.287l7.531-.69c.027-.076.052-.15.082-.225C297.472,2144.748,296.844,2144.464,296.465,2144.289Zm-9.857,10.024q2.342-.858,4.681-1.711c-.077-.211-.155-.425-.23-.638l-4.706,1.664C286.438,2153.854,286.522,2154.083,286.608,2154.313Zm15.755,101.131H298.2c.229.182.521.605.84.632,1.1.087,2.208.034,3.314.034C302.358,2255.889,302.361,2255.667,302.363,2255.445Zm-20.7-22.184c.188-.341.3-.542.454-.825.136.264.235.454.318.615.373-.215.75-.429,1.326-.756.039-.2.111-.615.2-1.1-1.128.449-2.14.848-3.393,1.341C281.052,2232.859,281.339,2233.051,281.662,2233.261Zm59.765,13.585c.081-.531.143-.911.213-1.365l-.222-.193c-.346.452-.644.837-.936,1.224l-.506-.484c.1-.187.2-.373.3-.562-.044-.043-.091-.087-.138-.131-.378.35-.758.7-1.277,1.18C339.88,2246.648,340.65,2246.747,341.426,2246.846Z" transform="translate(42.947 -848.235)"/><rect class="c" width="230.033" height="159.924" transform="translate(195 1269.223)"/></g></g></svg>