<svg width="17" height="17" viewBox="0 0 17 17" fill="none" xmlns="http://www.w3.org/2000/svg">
<path d="M7.38075 6.26225C7.89108 6.26225 8.3731 6.37166 8.82795 6.58973C9.16905 6.75026 9.47805 6.96923 9.75439 7.24623C10.0312 7.52282 10.2503 7.83141 10.4107 8.17235C10.1919 8.39124 9.92798 8.50031 9.61947 8.50031C9.5117 8.50031 9.40263 8.4839 9.29199 8.45189C9.10551 8.1495 8.85086 7.89493 8.54841 7.70855C8.19016 7.49056 7.80097 7.38091 7.38116 7.38091C7.08931 7.38091 6.80698 7.43631 6.53285 7.54711C6.25897 7.65807 6.01439 7.82124 5.79829 8.03709L4.11948 9.71574C3.90388 9.93134 3.74071 10.176 3.62992 10.4503C3.52003 10.7194 3.46358 11.0074 3.46372 11.2981C3.46372 11.5895 3.51912 11.8723 3.62992 12.1459C3.74071 12.4202 3.90388 12.6649 4.11948 12.8805C4.33542 13.0964 4.58016 13.2596 4.85388 13.3705C5.12331 13.4803 5.41154 13.5367 5.70251 13.5365C5.99404 13.5365 6.27654 13.4813 6.55083 13.3705C6.82479 13.2596 7.06928 13.0964 7.28522 12.8806L8.46116 11.705C8.83427 11.8068 9.22018 11.8579 9.61947 11.8579C9.68389 11.8579 9.77401 11.855 9.89031 11.8494C9.84632 11.8985 9.80122 11.9465 9.75505 11.9935L8.0764 13.6721C7.75238 13.9955 7.38617 14.2403 6.97662 14.4066C6.57219 14.5718 6.13939 14.6565 5.70251 14.6557C5.26498 14.6557 4.84001 14.5721 4.42808 14.4043C4.01615 14.237 3.64978 13.9927 3.3283 13.6722C3.00493 13.3485 2.76035 12.9821 2.59407 12.5725C2.42895 12.1682 2.34425 11.7355 2.34473 11.2987C2.34423 10.8617 2.42893 10.4289 2.59407 10.0243C2.76043 9.61479 3.00493 9.24841 3.3283 8.9248L5.00719 7.24615C5.03969 7.21414 5.08762 7.16916 5.15147 7.11089C5.46376 6.83389 5.81208 6.62313 6.1966 6.47893C6.58136 6.33522 6.97621 6.2625 7.38141 6.2625L7.38075 6.26217V6.26225ZM11.2984 2.34522C11.7353 2.34456 12.1681 2.42932 12.5725 2.59472C12.9816 2.76035 13.3484 3.00534 13.6722 3.3292C13.9958 3.65216 14.2406 4.01837 14.4068 4.42816C14.5716 4.83281 14.6562 5.26566 14.6557 5.70259C14.6557 6.13972 14.5718 6.56428 14.4046 6.9767C14.2367 7.38887 13.9926 7.75533 13.6718 8.07566L11.993 9.75431C11.961 9.78714 11.913 9.83228 11.8487 9.89039C11.5372 10.1675 11.1889 10.3777 10.8036 10.5216C10.425 10.6646 10.0237 10.7381 9.61897 10.7385C9.10905 10.7385 8.62638 10.629 8.17186 10.411C7.83068 10.2503 7.52224 10.0315 7.24525 9.75439C6.96841 9.47781 6.75002 9.16921 6.58932 8.82819C6.80763 8.60939 7.07133 8.50023 7.38034 8.50023C7.48802 8.50023 7.59767 8.51664 7.70831 8.54865C7.89435 8.85117 8.14882 9.10578 8.45123 9.29199C8.80998 9.50998 9.19892 9.61946 9.61865 9.61946C9.91001 9.61946 10.1928 9.56406 10.4667 9.45343C10.7408 9.34247 10.9855 9.1793 11.201 8.96345L12.88 7.28464C13.0959 7.0692 13.2591 6.82454 13.3702 6.55025C13.48 6.28107 13.5364 5.99312 13.5363 5.70243C13.5363 5.41091 13.4809 5.12808 13.3702 4.85461C13.2591 4.58032 13.0959 4.33566 12.88 4.12006C12.6641 3.90412 12.4196 3.74096 12.1454 3.62983C11.8762 3.5201 11.5882 3.46374 11.2975 3.46388C11.0061 3.46388 10.7233 3.51928 10.4493 3.62983C10.1752 3.74096 9.93052 3.90412 9.71508 4.12006L8.53864 5.29535C8.1657 5.19374 7.77954 5.14269 7.38034 5.14269C7.31632 5.14269 7.22571 5.1454 7.10909 5.15098C7.15312 5.10185 7.19832 5.0538 7.24467 5.00686L8.92357 3.32829C9.24447 3.00788 9.61093 2.76355 10.0232 2.59628C10.4356 2.42844 10.8602 2.34473 11.2975 2.34473L11.2983 2.34522H11.2984Z" fill="#6B6B6B"/>
</svg>
