<svg width="32" height="32" viewBox="0 0 32 32" fill="none" xmlns="http://www.w3.org/2000/svg">
<circle cx="16" cy="16" r="16" fill="#F6B91B"/>
<path d="M23.3335 16C23.3337 17.2117 23.0338 18.4046 22.4603 19.472C21.8869 20.5395 21.0579 21.4482 20.0475 22.117C19.037 22.7857 17.8766 23.1937 16.67 23.3044C15.4633 23.415 14.248 23.225 13.1328 22.7512L14.572 21.312C15.5054 21.5635 16.4885 21.5644 17.4224 21.3148C18.3563 21.0652 19.2079 20.5739 19.8915 19.8904C20.575 19.2069 21.0663 18.3552 21.3159 17.4214C21.5655 16.4875 21.5645 15.5043 21.3131 14.5709L22.7523 13.1326C23.1263 14.0126 23.3335 14.9825 23.3335 16ZM16.0001 8.66663C17.0149 8.66663 17.982 8.87288 18.861 9.24596L17.4219 10.6851C16.4894 10.4354 15.5076 10.4355 14.5752 10.6854C13.6427 10.9353 12.7925 11.4262 12.1099 12.1088C11.4273 12.7914 10.9363 13.6416 10.6864 14.5741C10.4365 15.5065 10.4365 16.4883 10.6862 17.4208L9.24612 18.8609C8.77363 17.7457 8.58469 16.5309 8.69618 15.3249C8.80766 14.1189 9.21611 12.9593 9.88503 11.9497C10.5539 10.94 11.4625 10.1118 12.5296 9.5389C13.5966 8.96602 14.789 8.66634 16.0001 8.66663Z" fill="black"/>
</svg>
