<svg width="262" height="76" viewBox="0 0 262 76" fill="none" xmlns="http://www.w3.org/2000/svg">
<path fill-rule="evenodd" clip-rule="evenodd" d="M23.4993 3L11.0988 24.1812L14.6261 29.955H7.71154L3 37.9926L23.4996 73H33.3257L36.5328 67.5189L40.0837 73H64.5008L85 37.9834V37.9831L72.4437 16.5338H65.7174L68.926 10.5684L64.502 3H23.4993ZM25.9418 5.0301H63.2934L65.9311 9.5789H34.6748L47.8181 32.0225H74.4722L69.2766 23.1503H53.128L50.6255 18.6015H71.2374L81.9884 37.0225H45.2168L25.9418 5.0301ZM38.2861 11.609H66.0025L63.3565 16.5338H48.2612L44.7357 22.6334L38.2861 11.609ZM45.9435 24.6284L48.8478 19.6074L51.2945 24.0292L48.427 28.8752L45.9435 24.6284ZM24.1637 19.6577L26.4623 23.4512H22.1342L24.1637 19.6577ZM53.0762 25.218H66.8522L64.0025 29.955H50.2381L53.0762 25.218ZM22.1987 25.5188H27.7079L34.642 37.0225H28.8061L22.1987 25.5188ZM68.6638 26.1802L70.8655 29.955H66.4213L68.6638 26.1802ZM10.1268 32.0225H15.8772L23.9348 45.2261L31.0239 45.2107L24.5063 56.3918L10.1268 32.0225ZM45.2168 39.0527H81.9884L63.2946 70.97H42.487L53.5691 52.5489H58.8657L51.0659 66.4211H61.4579L74.4425 43.4135H48.2359L32.1191 70.97H25.9418L45.2168 39.0527ZM26.3281 43.1915L28.8 39.0527H34.6756L32.2246 43.2204L26.3281 43.1915ZM57.9167 58.3875L61.8272 51.4622L58.4425 45.4813H70.895L60.818 63.3004L57.9167 58.3875ZM50.6465 45.4813H56.057L58.8649 50.4813H53.5769L50.6465 45.4813ZM37.7079 65.4403L48.8398 46.4144L51.7649 51.4073L40.6227 69.9397L37.7079 65.4403ZM56.7434 60.6123L59.0197 64.4286H54.6036L56.7434 60.6123Z" fill="url(#paint0_linear_241_1005)"/>
<path fill-rule="evenodd" clip-rule="evenodd" d="M94.0197 30.4186C92.7827 31.2189 91.8035 32.2677 91.0823 33.5653C90.3609 34.8624 90 36.2692 90 37.7847V38.0939V38.4031C90 39.9186 90.3609 41.3253 91.0823 42.6226C91.8035 43.9201 92.7827 44.9687 94.0197 45.7693C95.4624 46.7149 97.0507 47.1877 98.7849 47.1877C100.616 47.1877 102.274 46.6693 103.759 45.6326C105.244 44.5959 106.308 43.2475 106.951 41.5861C107.351 40.5553 107.551 39.4943 107.551 38.4031V37.5666H98.5484V38.0939V41.5861H102.313C101.379 42.6408 100.204 43.1679 98.7849 43.1679C97.4753 43.1679 96.3536 42.7017 95.4201 41.7678C94.4863 40.8343 94.0197 39.7128 94.0197 38.4031V38.0939V37.7847C94.0197 36.475 94.4863 35.3538 95.4201 34.4196C96.3536 33.4864 97.4753 33.0195 98.7849 33.0195C99.6698 33.0195 100.485 33.2469 101.231 33.7016C101.977 34.1563 102.55 34.7598 102.95 35.5112L106.551 33.7288C105.811 32.3102 104.747 31.1674 103.359 30.3005C101.97 29.4336 100.446 29 98.7849 29C97.0507 29 95.4624 29.4729 94.0197 30.4186Z" fill="url(#paint1_linear_241_1005)"/>
<path fill-rule="evenodd" clip-rule="evenodd" d="M111.553 29V33.0195V36.0932V38.0939V40.0945V43.1679V47.1877H111.554H126.267V47.1827V43.1679H115.554V40.0945H125.012V36.0932H115.554V33.0195H126.267V29.0002L126.266 29H111.553Z" fill="url(#paint2_linear_241_1005)"/>
<path fill-rule="evenodd" clip-rule="evenodd" d="M140.324 29H136.305H130.267V33.0195H136.305V47.1877H140.324V33.0195H146.363V29.0002L146.362 29H140.324Z" fill="url(#paint3_linear_241_1005)"/>
<path fill-rule="evenodd" clip-rule="evenodd" d="M152.111 33.3467L147.654 41.9133L145.908 45.2598L145.563 45.933L144.908 47.1877H144.909H145.908H149.437L150.092 45.933H158.658L159.313 47.1877H162.823H163.841L163.187 45.933L162.823 45.2598L161.095 41.9133L156.621 33.3467L154.366 29L152.111 33.3467ZM154.366 37.6937L156.567 41.9133H152.165L154.366 37.6937Z" fill="url(#paint4_linear_241_1005)"/>
<path fill-rule="evenodd" clip-rule="evenodd" d="M179.392 29H175.882L175.227 30.255L173.136 34.2744L170.953 38.494L168.753 34.2744L166.661 30.255L166.006 29H162.496H161.478L162.132 30.255L162.496 30.9279L164.224 34.2744L168.68 42.8409L170.953 47.1877L173.209 42.8409L177.665 34.2744L179.392 30.9279L179.756 30.255L180.411 29.0002L180.41 29H179.392Z" fill="url(#paint5_linear_241_1005)"/>
<path fill-rule="evenodd" clip-rule="evenodd" d="M184.412 29V33.0195V36.0932V38.0939V40.0945V43.1679V47.1877H184.413H199.126V43.1679H188.413V40.0945H197.871V36.0932H188.413V33.0195H199.126V29H199.125H184.412Z" fill="url(#paint6_linear_241_1005)"/>
<path fill-rule="evenodd" clip-rule="evenodd" d="M207.146 29H203.127V41.0949V47.1877H203.128H207.146V41.0949V37.0754V33.0195H213.331C213.888 33.0195 214.367 33.2167 214.767 33.6109C215.167 34.0047 215.367 34.481 215.367 35.0385C215.367 35.596 215.167 36.075 214.767 36.475C214.367 36.8753 213.888 37.0754 213.331 37.0754H212.457H207.601L210.348 41.0949L214.512 47.1877H219.369L215.04 40.8402C216.301 40.4765 217.338 39.7581 218.15 38.6851C218.962 37.6118 219.369 36.3967 219.369 35.0385C219.369 33.3773 218.778 31.9554 217.595 30.773C216.413 29.591 214.991 29 213.331 29H207.146Z" fill="url(#paint7_linear_241_1005)"/>
<path fill-rule="evenodd" clip-rule="evenodd" d="M228.918 29C228.396 29 227.887 29.0729 227.39 29.2183C226.226 29.5575 225.265 30.2218 224.507 31.2099C223.749 32.1982 223.37 33.3107 223.37 34.5473C223.37 35.0446 223.449 35.5598 223.607 36.0932C223.789 36.7966 224.14 37.4636 224.661 38.0939C225.401 38.9669 226.31 39.561 227.39 39.8765C227.887 40.0218 228.396 40.0945 228.918 40.0945H229.972H234.737C235.162 40.0945 235.525 40.2463 235.829 40.549C236.132 40.8525 236.283 41.2162 236.283 41.6405C236.283 42.0651 236.132 42.4258 235.829 42.7226C235.525 43.0202 235.162 43.1679 234.737 43.1679H228.918C228.542 43.1679 228.214 43.0499 227.935 42.8137C227.656 42.5771 227.486 42.283 227.426 41.9315H227.39H223.388C223.449 43.12 223.852 44.1776 224.598 45.1052C225.344 46.0329 226.274 46.6544 227.39 46.9695C227.887 47.1146 228.396 47.1877 228.918 47.1877H234.737C236.265 47.1877 237.572 46.6452 238.657 45.56C239.742 44.4749 240.285 43.1679 240.285 41.6405C240.285 41.0949 240.212 40.5797 240.066 40.0945C239.848 39.3551 239.497 38.6881 239.012 38.0939C238.49 37.4757 237.857 36.9875 237.111 36.6297C236.366 36.272 235.574 36.0932 234.737 36.0932H233.282H228.918C228.493 36.0932 228.132 35.9414 227.835 35.6385C227.538 35.3353 227.39 34.9719 227.39 34.5473C227.39 34.123 227.538 33.7623 227.835 33.465C228.132 33.1684 228.493 33.0195 228.918 33.0195H234.737C235.113 33.0195 235.444 33.1376 235.729 33.3741C236.014 33.6109 236.186 33.9047 236.247 34.2563H240.285C240.2 32.7894 239.624 31.5459 238.557 30.5281C237.49 29.5093 236.217 29 234.737 29H228.918Z" fill="url(#paint8_linear_241_1005)"/>
<path fill-rule="evenodd" clip-rule="evenodd" d="M244.286 29V29.005V33.0195V36.0932V38.0939V40.0945V43.1679V47.1877H244.287H259V43.1679H248.288V40.0945H257.745V36.0932H248.288V33.0195H259V29H258.999H244.286Z" fill="url(#paint9_linear_241_1005)"/>
<defs>
<linearGradient id="paint0_linear_241_1005" x1="44" y1="-10.8672" x2="44" y2="78.6013" gradientUnits="userSpaceOnUse">
<stop stop-color="#F1A506"/>
<stop offset="1" stop-color="#FCCE33"/>
</linearGradient>
<linearGradient id="paint1_linear_241_1005" x1="98.7757" y1="25.3969" x2="98.7757" y2="48.6431" gradientUnits="userSpaceOnUse">
<stop stop-color="#F1A506"/>
<stop offset="1" stop-color="#FCCE33"/>
</linearGradient>
<linearGradient id="paint2_linear_241_1005" x1="118.91" y1="25.3969" x2="118.91" y2="48.6431" gradientUnits="userSpaceOnUse">
<stop stop-color="#F1A506"/>
<stop offset="1" stop-color="#FCCE33"/>
</linearGradient>
<linearGradient id="paint3_linear_241_1005" x1="138.315" y1="25.3969" x2="138.315" y2="48.6431" gradientUnits="userSpaceOnUse">
<stop stop-color="#F1A506"/>
<stop offset="1" stop-color="#FCCE33"/>
</linearGradient>
<linearGradient id="paint4_linear_241_1005" x1="154.375" y1="25.3969" x2="154.375" y2="48.6431" gradientUnits="userSpaceOnUse">
<stop stop-color="#F1A506"/>
<stop offset="1" stop-color="#FCCE33"/>
</linearGradient>
<linearGradient id="paint5_linear_241_1005" x1="170.944" y1="25.3969" x2="170.944" y2="48.6431" gradientUnits="userSpaceOnUse">
<stop stop-color="#F1A506"/>
<stop offset="1" stop-color="#FCCE33"/>
</linearGradient>
<linearGradient id="paint6_linear_241_1005" x1="191.769" y1="25.3969" x2="191.769" y2="48.6431" gradientUnits="userSpaceOnUse">
<stop stop-color="#F1A506"/>
<stop offset="1" stop-color="#FCCE33"/>
</linearGradient>
<linearGradient id="paint7_linear_241_1005" x1="211.248" y1="25.3969" x2="211.248" y2="48.6431" gradientUnits="userSpaceOnUse">
<stop stop-color="#F1A506"/>
<stop offset="1" stop-color="#FCCE33"/>
</linearGradient>
<linearGradient id="paint8_linear_241_1005" x1="231.828" y1="25.3969" x2="231.828" y2="48.6431" gradientUnits="userSpaceOnUse">
<stop stop-color="#F1A506"/>
<stop offset="1" stop-color="#FCCE33"/>
</linearGradient>
<linearGradient id="paint9_linear_241_1005" x1="251.643" y1="25.3969" x2="251.643" y2="48.6431" gradientUnits="userSpaceOnUse">
<stop stop-color="#F1A506"/>
<stop offset="1" stop-color="#FCCE33"/>
</linearGradient>
</defs>
</svg>
