<svg width="180" height="156" viewBox="0 0 180 156" fill="none" xmlns="http://www.w3.org/2000/svg">
<path fill-rule="evenodd" clip-rule="evenodd" d="M44.9986 0L17.7779 47.2037L25.5208 60.071H10.3424L0 77.9835L44.9992 156H66.5685L73.6086 143.785L81.4033 156H135.002L180 77.9629V77.9623L152.437 30.1611H137.672L144.716 16.8667L135.004 0H44.9986ZM50.3601 4.52421H132.351L138.141 14.6615H69.5301L98.3812 64.6787H156.89L145.485 44.9064H110.037L104.544 34.769H149.789L173.389 75.8217H92.671L50.3601 4.52421ZM77.4574 19.1858H138.298L132.49 30.1611H99.3539L91.6148 43.7544L77.4574 19.1858ZM94.2662 48.2004L100.641 37.0108L106.012 46.8652L99.7179 57.6647L94.2662 48.2004ZM46.4569 37.1229L51.5026 45.5771H42.0019L46.4569 37.1229ZM109.923 49.5145H140.163L133.908 60.071H103.693L109.923 49.5145ZM42.1434 50.1847H54.2368L69.4581 75.8217H56.6476L42.1434 50.1847ZM144.14 51.6587L148.973 60.071H139.217L144.14 51.6587ZM15.6443 64.6787H28.2671L45.9544 94.1039L61.5159 94.0695L47.2091 118.988L15.6443 64.6787ZM92.671 80.3461H173.389L132.354 151.476H86.6788L111.005 110.423H122.632L105.511 141.338H128.322L156.825 90.0644H99.2982L63.9199 151.476H50.3601L92.671 80.3461ZM51.2081 89.5695L56.634 80.3461H69.5318L64.1515 89.6341L51.2081 89.5695ZM120.549 123.435L129.133 108.002L121.703 94.6727H149.038L126.918 134.384L120.549 123.435ZM104.59 94.6727H116.467L122.63 105.815H111.023L104.59 94.6727ZM76.1881 139.153L100.624 96.7522L107.045 107.879L82.5865 149.18L76.1881 139.153ZM117.973 128.393L122.97 136.898H113.276L117.973 128.393Z" fill="url(#paint0_linear_128_803)"/>
<defs>
<linearGradient id="paint0_linear_128_803" x1="90" y1="-30.9041" x2="90" y2="168.483" gradientUnits="userSpaceOnUse">
<stop stop-color="#F1A506"/>
<stop offset="1" stop-color="#FCCE33"/>
</linearGradient>
</defs>
</svg>
