<svg xmlns="http://www.w3.org/2000/svg" width="58" height="61.005" viewBox="0 0 58 61.005"><defs><style>.a{fill:#00e88a;}</style></defs><g transform="translate(-931 -7201.995)"><path class="a" d="M110.4,71.5v25.7a6.742,6.742,0,0,1-3.372,5.841L91.517,112A6.744,6.744,0,0,1,81.4,106.162v-.594a6.746,6.746,0,0,1,3.373-5.841l8.255-4.764A6.743,6.743,0,0,0,96.4,89.123V79.586a6.745,6.745,0,0,0-3.372-5.841l-8.256-4.765a6.745,6.745,0,0,0-6.743,0l-8.256,4.765A6.746,6.746,0,0,0,66.4,79.586V97.5a6.744,6.744,0,0,1-10.115,5.841l-.514-.3a6.742,6.742,0,0,1-3.372-5.84V71.5a6.746,6.746,0,0,1,3.373-5.841L78.03,52.814a6.745,6.745,0,0,1,6.743,0l22.256,12.848A6.745,6.745,0,0,1,110.4,71.5Z" transform="translate(878.599 7150.084)"/><path class="a" d="M76.2,79.128l3.441-1.986a4.136,4.136,0,0,1,4.139,0l3.441,1.986a4.14,4.14,0,0,1,2.069,3.585v3.973a4.142,4.142,0,0,1-2.069,3.585l-3.441,1.986a4.141,4.141,0,0,1-4.139,0L76.2,90.271a4.141,4.141,0,0,1-2.07-3.585V82.713A4.139,4.139,0,0,1,76.2,79.128Z" transform="translate(877.789 7149.73)"/></g></svg>