<svg width="37" height="36" viewBox="0 0 37 36" fill="none" xmlns="http://www.w3.org/2000/svg">
<path d="M18.5116 5.21021C20.2589 5.21021 21.9534 5.55122 23.546 6.22622C25.0858 6.87661 26.471 7.81177 27.6593 9.00005C28.8475 10.1883 29.7827 11.5735 30.4331 13.1133C31.1081 14.7059 31.4491 16.4004 31.4491 18.1477C31.4491 19.895 31.1081 21.5895 30.4331 23.1821C29.7827 24.7219 28.8475 26.1071 27.6593 27.2954C26.471 28.4836 25.0858 29.4188 23.546 30.0692C21.9534 30.7442 20.2589 31.0852 18.5116 31.0852C16.7643 31.0852 15.0698 30.7442 13.4772 30.0692C11.9374 29.4188 10.5522 28.4836 9.36394 27.2954C8.17566 26.1071 7.2405 24.7219 6.59011 23.1821C5.91511 21.5895 5.5741 19.895 5.5741 18.1477C5.5741 16.4004 5.91511 14.7059 6.59011 13.1133C7.2405 11.5735 8.17566 10.1883 9.36394 9.00005C10.5522 7.81177 11.9374 6.87661 13.4772 6.22622C15.0698 5.55122 16.7643 5.21021 18.5116 5.21021ZM18.5116 2.39771C9.81394 2.39771 2.7616 9.45005 2.7616 18.1477C2.7616 26.8454 9.81394 33.8977 18.5116 33.8977C27.2093 33.8977 34.2616 26.8454 34.2616 18.1477C34.2616 9.45005 27.2093 2.39771 18.5116 2.39771Z" fill="#2C2C2C"/>
<path d="M14.5846 23.2559L10.6788 19.0477C10.1514 18.4781 10.1831 17.5887 10.7526 17.0613C11.3221 16.534 12.2116 16.5656 12.7389 17.1352L14.8096 19.3641C15.3229 19.916 16.1807 19.9652 16.7538 19.4766L24.4003 12.9305C24.9909 12.4242 25.8768 12.4945 26.3831 13.0852C26.8893 13.6758 26.819 14.5617 26.2284 15.068L16.5323 23.3684C15.9592 23.8605 15.0979 23.8113 14.5846 23.2559Z" fill="#00E88A"/>
</svg>
