<svg width="37" height="36" viewBox="0 0 37 36" fill="none" xmlns="http://www.w3.org/2000/svg">
<path d="M18.5116 2.39771C9.81394 2.39771 2.7616 9.45005 2.7616 18.1477C2.7616 26.8454 9.81394 33.8977 18.5116 33.8977C27.2093 33.8977 34.2616 26.8454 34.2616 18.1477C34.2616 9.45005 27.2093 2.39771 18.5116 2.39771Z" fill="#00E88A"/>
<path d="M14.5846 23.2559L10.6788 19.0477C10.1514 18.4781 10.1831 17.5887 10.7526 17.0613C11.3221 16.534 12.2116 16.5656 12.7389 17.1352L14.8096 19.3641C15.3229 19.916 16.1807 19.9652 16.7538 19.4766L24.4003 12.9305C24.9909 12.4242 25.8768 12.4945 26.3831 13.0852C26.8893 13.6758 26.819 14.5617 26.2284 15.068L16.5323 23.3684C15.9592 23.8605 15.0979 23.8113 14.5846 23.2559Z" fill="black"/>
</svg>
